FrauncesItalic_WeightMax.ufo
<glyph name="dollar" format="2">
  <advance width="1066"/>
  <unicode hex="0024"/>
  <outline>
    <contour>
      <point x="542.0" y="0.0" type="curve" smooth="yes"/>
      <point x="832.0" y="0.0"/>
      <point x="1050.0" y="162.0"/>
      <point x="1100.0" y="354.0" type="curve" smooth="yes"/>
      <point x="1138.0" y="492.0"/>
      <point x="1078.0" y="632.0"/>
      <point x="822.0" y="726.0" type="curve" smooth="yes"/>
      <point x="610.0" y="802.0"/>
      <point x="550.0" y="866.0"/>
      <point x="576.0" y="964.0" type="curve" smooth="yes"/>
      <point x="606.0" y="1074.0"/>
      <point x="720.0" y="1142.0"/>
      <point x="838.0" y="1142.0" type="curve" smooth="yes"/>
      <point x="954.0" y="1142.0"/>
      <point x="1008.0" y="1074.0"/>
      <point x="984.0" y="984.0" type="curve" smooth="yes"/>
      <point x="970.0" y="932.0" type="line" smooth="yes"/>
      <point x="948.0" y="848.0"/>
      <point x="996.0" y="790.0"/>
      <point x="1072.0" y="790.0" type="curve" smooth="yes"/>
      <point x="1146.0" y="790.0"/>
      <point x="1228.0" y="856.0"/>
      <point x="1250.0" y="938.0" type="curve" smooth="yes"/>
      <point x="1296.0" y="1114.0"/>
      <point x="1140.0" y="1258.0"/>
      <point x="898.0" y="1258.0" type="curve" smooth="yes"/>
      <point x="616.0" y="1258.0"/>
      <point x="382.0" y="1088.0"/>
      <point x="328.0" y="886.0" type="curve" smooth="yes"/>
      <point x="282.0" y="714.0"/>
      <point x="362.0" y="596.0"/>
      <point x="596.0" y="508.0" type="curve" smooth="yes"/>
      <point x="804.0" y="426.0"/>
      <point x="860.0" y="362.0"/>
      <point x="836.0" y="270.0" type="curve" smooth="yes"/>
      <point x="810.0" y="174.0"/>
      <point x="708.0" y="116.0"/>
      <point x="584.0" y="116.0" type="curve" smooth="yes"/>
      <point x="460.0" y="116.0"/>
      <point x="402.0" y="190.0"/>
      <point x="428.0" y="294.0" type="curve" smooth="yes"/>
      <point x="442.0" y="346.0" type="line" smooth="yes"/>
      <point x="466.0" y="432.0"/>
      <point x="418.0" y="488.0"/>
      <point x="342.0" y="488.0" type="curve" smooth="yes"/>
      <point x="266.0" y="488.0"/>
      <point x="188.0" y="424.0"/>
      <point x="166.0" y="340.0" type="curve" smooth="yes"/>
      <point x="116.0" y="154.0"/>
      <point x="286.0" y="0.0"/>
    </contour>
    <contour>
      <point x="650.0" y="530.0" type="line"/>
      <point x="552.0" y="162.0"/>
      <point x="446.0" y="78.0"/>
      <point x="418.0" y="-28.0" type="curve" smooth="yes"/>
      <point x="394.0" y="-120.0"/>
      <point x="442.0" y="-160.0"/>
      <point x="506.0" y="-160.0" type="curve" smooth="yes"/>
      <point x="574.0" y="-160.0"/>
      <point x="632.0" y="-116.0"/>
      <point x="658.0" y="-28.0" type="curve" smooth="yes"/>
      <point x="688.0" y="78.0"/>
      <point x="626.0" y="160.0"/>
      <point x="726.0" y="530.0" type="curve"/>
    </contour>
    <contour>
      <point x="770.0" y="710.0" type="line"/>
      <point x="876.0" y="1102.0"/>
      <point x="982.0" y="1184.0"/>
      <point x="1012.0" y="1296.0" type="curve" smooth="yes"/>
      <point x="1034.0" y="1384.0"/>
      <point x="984.0" y="1428.0"/>
      <point x="924.0" y="1428.0" type="curve" smooth="yes"/>
      <point x="860.0" y="1428.0"/>
      <point x="794.0" y="1388.0"/>
      <point x="770.0" y="1300.0" type="curve" smooth="yes"/>
      <point x="742.0" y="1194.0"/>
      <point x="806.0" y="1110.0"/>
      <point x="696.0" y="710.0" type="curve"/>
    </contour>
  </outline>
</glyph>
<glyph name="parenleft" format="2">
  <advance width="830"/>
  <unicode hex="0028"/>
  <outline>
    <contour>
      <point x="298.0" y="580.0" type="curve" smooth="yes"/>
      <point x="170.0" y="108.0"/>
      <point x="330.0" y="-228.0"/>
      <point x="580.0" y="-324.0" type="curve" smooth="yes"/>
      <point x="612.0" y="-336.0"/>
      <point x="646.0" y="-340.0"/>
      <point x="666.0" y="-340.0" type="curve" smooth="yes"/>
      <point x="696.0" y="-340.0"/>
      <point x="724.0" y="-316.0"/>
      <point x="732.0" y="-284.0" type="curve" smooth="yes"/>
      <point x="738.0" y="-264.0"/>
      <point x="732.0" y="-246.0"/>
      <point x="702.0" y="-230.0" type="curve" smooth="yes"/>
      <point x="528.0" y="-138.0"/>
      <point x="480.0" y="160.0"/>
      <point x="594.0" y="580.0" type="curve" smooth="yes"/>
      <point x="706.0" y="998.0"/>
      <point x="914.0" y="1298.0"/>
      <point x="1136.0" y="1390.0" type="curve" smooth="yes"/>
      <point x="1174.0" y="1406.0"/>
      <point x="1190.0" y="1426.0"/>
      <point x="1196.0" y="1450.0" type="curve" smooth="yes"/>
      <point x="1204.0" y="1476.0"/>
      <point x="1190.0" y="1502.0"/>
      <point x="1162.0" y="1502.0" type="curve" smooth="yes"/>
      <point x="1142.0" y="1502.0"/>
      <point x="1116.0" y="1492.0"/>
      <point x="1068.0" y="1476.0" type="curve" smooth="yes"/>
      <point x="738.0" y="1360.0"/>
      <point x="412.0" y="1004.0"/>
    </contour>
  </outline>
</glyph>
<glyph name="asterisk" format="2">
  <advance width="1012"/>
  <unicode hex="002A"/>
  <outline>
    <contour>
      <point x="816.0" y="1032.0" type="line"/>
      <point x="858.0" y="1184.0"/>
      <point x="974.0" y="1222.0"/>
      <point x="1002.0" y="1328.0" type="curve" smooth="yes"/>
      <point x="1028.0" y="1428.0"/>
      <point x="972.0" y="1474.0"/>
      <point x="902.0" y="1474.0" type="curve" smooth="yes"/>
      <point x="834.0" y="1474.0"/>
      <point x="754.0" y="1428.0"/>
      <point x="728.0" y="1336.0" type="curve" smooth="yes"/>
      <point x="698.0" y="1230.0"/>
      <point x="792.0" y="1186.0"/>
      <point x="750.0" y="1032.0" type="curve"/>
    </contour>
    <contour>
      <point x="802.0" y="1062.0" type="line"/>
      <point x="672.0" y="1110.0"/>
      <point x="698.0" y="1222.0"/>
      <point x="606.0" y="1254.0" type="curve" smooth="yes"/>
      <point x="518.0" y="1286.0"/>
      <point x="442.0" y="1236.0"/>
      <point x="400.0" y="1168.0" type="curve" smooth="yes"/>
      <point x="362.0" y="1104.0"/>
      <point x="364.0" y="1026.0"/>
      <point x="442.0" y="994.0" type="curve" smooth="yes"/>
      <point x="534.0" y="960.0"/>
      <point x="632.0" y="1048.0"/>
      <point x="766.0" y="1000.0" type="curve"/>
    </contour>
    <contour>
      <point x="764.0" y="1050.0" type="line"/>
      <point x="640.0" y="928.0"/>
      <point x="542.0" y="960.0"/>
      <point x="456.0" y="874.0" type="curve" smooth="yes"/>
      <point x="376.0" y="792.0"/>
      <point x="384.0" y="716.0"/>
      <point x="428.0" y="674.0" type="curve" smooth="yes"/>
      <point x="474.0" y="634.0"/>
      <point x="556.0" y="632.0"/>
      <point x="628.0" y="704.0" type="curve" smooth="yes"/>
      <point x="716.0" y="790.0"/>
      <point x="682.0" y="888.0"/>
      <point x="808.0" y="1012.0" type="curve"/>
    </contour>
    <contour>
      <point x="754.0" y="1014.0" type="line"/>
      <point x="810.0" y="890.0"/>
      <point x="722.0" y="798.0"/>
      <point x="760.0" y="712.0" type="curve" smooth="yes"/>
      <point x="798.0" y="630.0"/>
      <point x="882.0" y="634.0"/>
      <point x="948.0" y="674.0" type="curve" smooth="yes"/>
      <point x="1014.0" y="714.0"/>
      <point x="1062.0" y="792.0"/>
      <point x="1030.0" y="868.0" type="curve" smooth="yes"/>
      <point x="994.0" y="954.0"/>
      <point x="874.0" y="928.0"/>
      <point x="818.0" y="1052.0" type="curve"/>
    </contour>
    <contour>
      <point x="786.0" y="1002.0" type="line"/>
      <point x="942.0" y="1048.0"/>
      <point x="990.0" y="960.0"/>
      <point x="1098.0" y="992.0" type="curve" smooth="yes"/>
      <point x="1202.0" y="1024.0"/>
      <point x="1246.0" y="1102.0"/>
      <point x="1240.0" y="1168.0" type="curve" smooth="yes"/>
      <point x="1238.0" y="1234.0"/>
      <point x="1186.0" y="1284.0"/>
      <point x="1092.0" y="1258.0" type="curve" smooth="yes"/>
      <point x="982.0" y="1226.0"/>
      <point x="942.0" y="1112.0"/>
      <point x="784.0" y="1064.0" type="curve"/>
    </contour>
  </outline>
</glyph>
<glyph name="comma" format="2">
  <advance width="594"/>
  <unicode hex="002C"/>
  <outline>
    <contour>
      <point x="258.0" y="0.0" type="curve" smooth="yes"/>
      <point x="304.0" y="-20.0"/>
      <point x="320.0" y="-36.0"/>
      <point x="320.0" y="-76.0" type="curve" smooth="yes"/>
      <point x="320.0" y="-136.0"/>
      <point x="256.9649860678319" y="-209.5627406880137"/>
      <point x="128.0" y="-268.0" type="curve" smooth="yes"/>
      <point x="70.79627223118344" y="-293.64305037912465"/>
      <point x="52.0" y="-324.72340425531917"/>
      <point x="52.0" y="-354.0" type="curve" smooth="yes"/>
      <point x="52.0" y="-390.0"/>
      <point x="78.0" y="-418.0"/>
      <point x="110.0" y="-418.0" type="curve" smooth="yes"/>
      <point x="142.0" y="-418.0"/>
      <point x="178.0" y="-408.0"/>
      <point x="220.0" y="-390.0" type="curve" smooth="yes"/>
      <point x="416.0" y="-302.0"/>
      <point x="558.0" y="-128.0"/>
      <point x="558.0" y="142.0" type="curve" smooth="yes"/>
      <point x="558.0" y="272.0"/>
      <point x="490.0" y="352.0"/>
      <point x="390.0" y="352.0" type="curve" smooth="yes"/>
      <point x="258.0" y="352.0"/>
      <point x="162.0" y="250.0"/>
      <point x="162.0" y="140.0" type="curve" smooth="yes"/>
      <point x="162.0" y="66.0"/>
      <point x="198.0" y="26.0"/>
    </contour>
  </outline>
</glyph>
<glyph name="hyphen" format="2">
  <advance width="411"/>
  <unicode hex="002D"/>
  <outline>
    <contour>
      <point x="409" y="297" type="curve" smooth="yes"/>
      <point x="164" y="297" type="line" smooth="yes"/>
      <point x="136" y="297"/>
      <point x="121" y="287"/>
      <point x="109" y="260" type="curve" smooth="yes"/>
      <point x="101" y="243" type="line" smooth="yes"/>
      <point x="97" y="233"/>
      <point x="95" y="227"/>
      <point x="95" y="221" type="curve" smooth="yes"/>
      <point x="95" y="201"/>
      <point x="112" y="189"/>
      <point x="133" y="189" type="curve" smooth="yes"/>
      <point x="377" y="189" type="line" smooth="yes"/>
      <point x="406.0" y="189.0"/>
      <point x="421" y="200"/>
      <point x="433" y="227" type="curve" smooth="yes"/>
      <point x="440" y="243" type="line" smooth="yes"/>
      <point x="445" y="254"/>
      <point x="446" y="260"/>
      <point x="446" y="266" type="curve" smooth="yes"/>
      <point x="446" y="285"/>
      <point x="430.0" y="297.0"/>
    </contour>
  </outline>
</glyph>
<glyph name="one" format="2">
  <advance width="924"/>
  <unicode hex="0031"/>
  <outline>
    <contour>
      <point x="422.0" y="1094.0" type="line" smooth="yes"/>
      <point x="370.0" y="1094.0"/>
      <point x="352.0" y="1122.0"/>
      <point x="364.0" y="1162.0" type="curve" smooth="yes"/>
      <point x="374.0" y="1202.0"/>
      <point x="414.0" y="1232.0"/>
      <point x="466.0" y="1232.0" type="curve" smooth="yes"/>
      <point x="532.0" y="1232.0" type="line" smooth="yes"/>
      <point x="640.0" y="1232.0"/>
      <point x="724.0" y="1236.0"/>
      <point x="806.0" y="1292.0" type="curve" smooth="yes"/>
      <point x="844.0" y="1318.0"/>
      <point x="872.0" y="1330.0"/>
      <point x="912.0" y="1330.0" type="curve" smooth="yes"/>
      <point x="958.0" y="1330.0"/>
      <point x="980.0" y="1306.0"/>
      <point x="964.0" y="1246.0" type="curve" smooth="yes"/>
      <point x="706.0" y="286.0" type="line" smooth="yes"/>
      <point x="686.0" y="208.0"/>
      <point x="712.0" y="152.0"/>
      <point x="766.0" y="144.0" type="curve" smooth="yes"/>
      <point x="822.0" y="136.0" type="line" smooth="yes"/>
      <point x="866.0" y="130.0"/>
      <point x="894.0" y="110.0"/>
      <point x="884.0" y="72.0" type="curve" smooth="yes"/>
      <point x="870.0" y="22.0"/>
      <point x="838.0" y="0.0"/>
      <point x="786.0" y="0.0" type="curve" smooth="yes"/>
      <point x="140.0" y="0.0" type="line" smooth="yes"/>
      <point x="90.0" y="0.0"/>
      <point x="66.0" y="22.0"/>
      <point x="80.0" y="72.0" type="curve" smooth="yes"/>
      <point x="90.0" y="114.0"/>
      <point x="126.0" y="134.0"/>
      <point x="180.0" y="142.0" type="curve" smooth="yes"/>
      <point x="234.0" y="150.0" type="line" smooth="yes"/>
      <point x="302.0" y="160.0"/>
      <point x="368.0" y="206.0"/>
      <point x="388.0" y="286.0" type="curve" smooth="yes"/>
      <point x="564.0" y="940.0" type="line" smooth="yes"/>
      <point x="592.0" y="1048.0"/>
      <point x="558.0" y="1094.0"/>
      <point x="480.0" y="1094.0" type="curve" smooth="yes"/>
    </contour>
  </outline>
</glyph>
<glyph name="three" format="2">
  <advance width="532"/>
  <unicode hex="0033"/>
  <outline>
    <contour>
      <point x="361" y="340" type="line"/>
      <point x="621" y="552" type="line" smooth="yes"/>
      <point x="645" y="571"/>
      <point x="656" y="591"/>
      <point x="660" y="605" type="curve" smooth="yes"/>
      <point x="667" y="631"/>
      <point x="652" y="649"/>
      <point x="620" y="649" type="curve" smooth="yes"/>
      <point x="301" y="649" type="line" smooth="yes"/>
      <point x="260" y="649"/>
      <point x="229" y="626"/>
      <point x="217" y="592" type="curve" smooth="yes"/>
      <point x="173" y="468" type="line" smooth="yes"/>
      <point x="166" y="446"/>
      <point x="178" y="435"/>
      <point x="198" y="435" type="curve" smooth="yes"/>
      <point x="217" y="435"/>
      <point x="234" y="450"/>
      <point x="247" y="466" type="curve" smooth="yes"/>
      <point x="271" y="495" type="line" smooth="yes"/>
      <point x="292" y="521"/>
      <point x="316" y="530"/>
      <point x="350" y="530" type="curve" smooth="yes"/>
      <point x="555" y="530" type="line"/>
      <point x="554" y="585" type="line"/>
      <point x="289" y="369" type="line" smooth="yes"/>
      <point x="272" y="356"/>
      <point x="258" y="341"/>
      <point x="254" y="324" type="curve" smooth="yes"/>
      <point x="249" y="305"/>
      <point x="262" y="292"/>
      <point x="284" y="292" type="curve" smooth="yes"/>
      <point x="320" y="292" type="line" smooth="yes"/>
      <point x="382" y="292"/>
      <point x="415" y="252"/>
      <point x="393" y="172" type="curve" smooth="yes"/>
      <point x="374" y="99"/>
      <point x="328" y="50"/>
      <point x="280" y="49" type="curve" smooth="yes"/>
      <point x="238" y="48"/>
      <point x="218" y="76"/>
      <point x="228" y="111" type="curve" smooth="yes"/>
      <point x="238" y="149" type="line" smooth="yes"/>
      <point x="251" y="199"/>
      <point x="225" y="234"/>
      <point x="183" y="234" type="curve" smooth="yes"/>
      <point x="134" y="234"/>
      <point x="83" y="196"/>
      <point x="70" y="144" type="curve" smooth="yes"/>
      <point x="46" y="56"/>
      <point x="109" y="-15"/>
      <point x="254" y="-15" type="curve" smooth="yes"/>
      <point x="399" y="-15"/>
      <point x="518" y="66"/>
      <point x="552" y="195" type="curve" smooth="yes"/>
      <point x="583" y="310"/>
      <point x="505" y="365"/>
      <point x="360" y="365" type="curve" smooth="yes"/>
      <point x="357" y="365"/>
      <point x="341" y="365"/>
      <point x="337" y="365" type="curve"/>
    </contour>
  </outline>
</glyph>
<glyph name="six" format="2">
  <advance width="1232"/>
  <unicode hex="0036"/>
  <outline>
    <contour>
      <point x="986.0" y="1320.0" type="curve" smooth="yes"/>
      <point x="534.0" y="1320.0"/>
      <point x="218.0" y="906.0"/>
      <point x="218.0" y="400.0" type="curve" smooth="yes"/>
      <point x="218.0" y="122.0"/>
      <point x="362.0" y="-30.0"/>
      <point x="650.0" y="-30.0" type="curve" smooth="yes"/>
      <point x="1022.0" y="-30.0"/>
      <point x="1268.0" y="236.0"/>
      <point x="1268.0" y="518.0" type="curve" smooth="yes"/>
      <point x="1268.0" y="708.0"/>
      <point x="1136.0" y="828.0"/>
      <point x="924.0" y="828.0" type="curve" smooth="yes"/>
      <point x="674.0" y="828.0"/>
      <point x="470.0" y="664.0"/>
      <point x="414.0" y="452.0" type="curve"/>
      <point x="510.0" y="424.0" type="line"/>
      <point x="544.0" y="558.0"/>
      <point x="668.0" y="654.0"/>
      <point x="788.0" y="654.0" type="curve" smooth="yes"/>
      <point x="888.0" y="654.0"/>
      <point x="954.0" y="588.0"/>
      <point x="954.0" y="454.0" type="curve" smooth="yes"/>
      <point x="954.0" y="250.0"/>
      <point x="846.0" y="120.0"/>
      <point x="706.0" y="120.0" type="curve" smooth="yes"/>
      <point x="602.0" y="120.0"/>
      <point x="526.0" y="184.0"/>
      <point x="526.0" y="328.0" type="curve" smooth="yes"/>
      <point x="526.0" y="858.0"/>
      <point x="754.0" y="1172.0"/>
      <point x="946.0" y="1172.0" type="curve" smooth="yes"/>
      <point x="1024.0" y="1172.0"/>
      <point x="1066.0" y="1124.0"/>
      <point x="1066.0" y="1060.0" type="curve" smooth="yes"/>
      <point x="1066.0" y="1032.0"/>
      <point x="1066.0" y="1024.0"/>
      <point x="1066.0" y="996.0" type="curve" smooth="yes"/>
      <point x="1066.0" y="902.0"/>
      <point x="1134.0" y="844.0"/>
      <point x="1232.0" y="844.0" type="curve" smooth="yes"/>
      <point x="1334.0" y="844.0"/>
      <point x="1414.0" y="934.0"/>
      <point x="1414.0" y="1042.0" type="curve" smooth="yes"/>
      <point x="1414.0" y="1200.0"/>
      <point x="1284.0" y="1320.0"/>
    </contour>
  </outline>
</glyph>
<glyph name="less" format="2">
  <advance width="1056"/>
  <unicode hex="003C"/>
  <outline>
    <contour>
      <point x="1026.0" y="226.0" type="curve" smooth="yes"/>
      <point x="1044.0" y="288.0"/>
      <point x="1018.0" y="348.0"/>
      <point x="924.0" y="400.0" type="curve" smooth="yes"/>
      <point x="792.0" y="478.0"/>
      <point x="580.0" y="550.0"/>
      <point x="352.0" y="622.0" type="curve"/>
      <point x="344.0" y="590.0" type="line"/>
      <point x="608.0" y="660.0"/>
      <point x="860.0" y="730.0"/>
      <point x="1040.0" y="814.0" type="curve" smooth="yes"/>
      <point x="1156.0" y="868.0"/>
      <point x="1214.0" y="924.0"/>
      <point x="1230.0" y="982.0" type="curve" smooth="yes"/>
      <point x="1244.0" y="1040.0"/>
      <point x="1230.0" y="1082.0"/>
      <point x="1188.0" y="1082.0" type="curve" smooth="yes"/>
      <point x="1148.0" y="1082.0"/>
      <point x="1094.0" y="1064.0"/>
      <point x="1034.0" y="1024.0" type="curve" smooth="yes"/>
      <point x="920.0" y="948.0"/>
      <point x="610.0" y="810.0"/>
      <point x="364.0" y="726.0" type="curve" smooth="yes"/>
      <point x="274.0" y="694.0"/>
      <point x="234.0" y="652.0"/>
      <point x="222.0" y="606.0" type="curve" smooth="yes"/>
      <point x="210.0" y="562.0"/>
      <point x="228.0" y="518.0"/>
      <point x="300.0" y="486.0" type="curve" smooth="yes"/>
      <point x="502.0" y="404.0"/>
      <point x="742.0" y="266.0"/>
      <point x="810.0" y="188.0" type="curve" smooth="yes"/>
      <point x="848.0" y="144.0"/>
      <point x="894.0" y="130.0"/>
      <point x="926.0" y="130.0" type="curve" smooth="yes"/>
      <point x="972.0" y="130.0"/>
      <point x="1012.0" y="170.0"/>
    </contour>
  </outline>
</glyph>
<glyph name="question" format="2">
  <advance width="902"/>
  <unicode hex="003F"/>
  <outline>
    <contour>
      <point x="610.0" y="770.0" type="curve" smooth="yes"/>
      <point x="768.0" y="842.0"/>
      <point x="844.0" y="910.0"/>
      <point x="888.0" y="1086.0" type="curve" smooth="yes"/>
      <point x="923.8219484789755" y="1229.2877939159018"/>
      <point x="862.4561403508771" y="1316.0"/>
      <point x="784.0" y="1316.0" type="curve" smooth="yes"/>
      <point x="706.5454545454545" y="1316.0"/>
      <point x="654.1204570950807" y="1276.0293076604667"/>
      <point x="642.0" y="1206.0" type="curve" smooth="yes"/>
      <point x="624.0" y="1102.0" type="line" smooth="yes"/>
      <point x="608.0484605662301" y="1009.8355499382185"/>
      <point x="537.4761904761905" y="960.0"/>
      <point x="466.0" y="960.0" type="curve" smooth="yes"/>
      <point x="387.6842105263158" y="960.0"/>
      <point x="342.0" y="1019.943661971831"/>
      <point x="342.0" y="1112.0" type="curve" smooth="yes"/>
      <point x="342.0" y="1274.2013422818793"/>
      <point x="524.0" y="1430.0"/>
      <point x="820.0" y="1430.0" type="curve" smooth="yes"/>
      <point x="1070.0" y="1430.0"/>
      <point x="1214.0" y="1290.0"/>
      <point x="1156.0" y="1078.0" type="curve" smooth="yes"/>
      <point x="1120.0" y="944.0"/>
      <point x="1056.479220029003" y="865.5862550153072"/>
      <point x="792.0" y="726.0" type="curve" smooth="yes"/>
      <point x="707.6963492012549" y="680.9073495727642"/>
      <point x="650.8320652589664" y="621.7710147144873"/>
      <point x="628.0" y="500.0" type="curve" smooth="yes"/>
      <point x="618.0" y="446.0"/>
      <point x="586.0" y="412.0"/>
      <point x="532.0" y="412.0" type="curve" smooth="yes"/>
      <point x="450.0" y="412.0"/>
      <point x="386.0" y="466.0"/>
      <point x="386.0" y="552.0" type="curve" smooth="yes"/>
      <point x="386.0" y="632.0"/>
      <point x="444.0" y="694.0"/>
    </contour>
    <contour>
      <point x="386.168" y="-23.99" type="curve" smooth="yes"/>
      <point x="516.049654676259" y="-23.99"/>
      <point x="626.882" y="82.93745454545456"/>
      <point x="626.882" y="203.66199999999998" type="curve" smooth="yes"/>
      <point x="626.882" y="281.8504590163934"/>
      <point x="565.0374285714286" y="336.14799999999997"/>
      <point x="477.602" y="336.14799999999997" type="curve" smooth="yes"/>
      <point x="338.98485714285715" y="336.14799999999997"/>
      <point x="235.022" y="220.6696641221374"/>
      <point x="235.022" y="110.362" type="curve" smooth="yes"/>
      <point x="235.022" y="32.351161290322565"/>
      <point x="298.8865070422535" y="-23.99"/>
    </contour>
  </outline>
</glyph>
<glyph name="B" format="2">
  <advance width="1390"/>
  <unicode hex="0042"/>
  <outline>
    <contour>
      <point x="664.0" y="427.9179954441913"/>
      <point x="786.6947576889044" y="904.5956913604753"/>
      <point x="864.0" y="1112.0" type="curve" smooth="yes"/>
      <point x="894.6360222087943" y="1192.7676949140941"/>
      <point x="933.4698795180723" y="1246.0"/>
      <point x="1050.0" y="1246.0" type="curve" smooth="yes"/>
      <point x="1148.0434782608695" y="1246.0"/>
      <point x="1214.0" y="1174.177777777778"/>
      <point x="1214.0" y="1044.0" type="curve" smooth="yes"/>
      <point x="1214.0" y="859.8072289156627"/>
      <point x="1066.0" y="732.0"/>
      <point x="886.0" y="732.0" type="curve" smooth="yes"/>
      <point x="672.0" y="732.0" type="line"/>
      <point x="624.0" y="596.0" type="line"/>
      <point x="912.0" y="596.0" type="line" smooth="yes"/>
      <point x="1038.0" y="596.0"/>
      <point x="1116.0" y="524.0"/>
      <point x="1116.0" y="404.0" type="curve" smooth="yes"/>
      <point x="1116.0" y="257.45454545454544"/>
      <point x="981.9310344827586" y="156.0"/>
      <point x="846.0" y="156.0" type="curve" smooth="yes"/>
      <point x="717.9259259259259" y="156.0"/>
      <point x="664.0" y="215.71875"/>
      <point x="664.0" y="338.0" type="curve" smooth="yes"/>
    </contour>
    <contour>
      <point x="422.0" y="1400.0"/>
      <point x="396.0" y="1364.0"/>
      <point x="396.0" y="1326.0" type="curve" smooth="yes"/>
      <point x="396.0" y="1286.0"/>
      <point x="422.0" y="1278.0"/>
      <point x="464.0" y="1258.0" type="curve" smooth="yes"/>
      <point x="490.0" y="1246.0" type="line" smooth="yes"/>
      <point x="526.3580405514667" y="1229.219365899323"/>
      <point x="538.0" y="1210.0"/>
      <point x="538.0" y="1164.0" type="curve" smooth="yes"/>
      <point x="538.0" y="1135.25"/>
      <point x="534.0" y="1106.0"/>
      <point x="528.0" y="1072.0" type="curve" smooth="yes"/>
      <point x="478.0" y="812.0"/>
      <point x="400.0" y="540.0"/>
      <point x="302.0" y="242.0" type="curve" smooth="yes"/>
      <point x="286.0" y="194.0"/>
      <point x="260.0" y="174.0"/>
      <point x="214.0" y="160.0" type="curve" smooth="yes"/>
      <point x="180.0" y="150.0" type="line" smooth="yes"/>
      <point x="114.0" y="130.0"/>
      <point x="92.0" y="97.07692307692308"/>
      <point x="92.0" y="64.0" type="curve" smooth="yes"/>
      <point x="92.0" y="24.888888888888886"/>
      <point x="116.0" y="0.0"/>
      <point x="162.0" y="0.0" type="curve" smooth="yes"/>
      <point x="808.0" y="0.0" type="line" smooth="yes"/>
      <point x="1199.1351351351352" y="0.0"/>
      <point x="1456.0" y="192.0"/>
      <point x="1456.0" y="406.0" type="curve" smooth="yes"/>
      <point x="1456.0" y="584.0"/>
      <point x="1344.0" y="680.0"/>
      <point x="996.0" y="680.0" type="curve"/>
      <point x="998.0" y="662.0" type="line"/>
      <point x="1304.0" y="662.0"/>
      <point x="1556.0" y="836.0"/>
      <point x="1556.0" y="1052.0" type="curve" smooth="yes"/>
      <point x="1556.0" y="1280.0"/>
      <point x="1405.0535714285716" y="1400.0"/>
      <point x="1128.0" y="1400.0" type="curve" smooth="yes"/>
      <point x="490.0" y="1400.0" type="line" smooth="yes"/>
    </contour>
  </outline>
</glyph>
<glyph name="D" format="2">
  <advance width="1516"/>
  <unicode hex="0044"/>
  <outline>
    <contour>
      <point x="854.0" y="158.0" type="curve" smooth="yes"/>
      <point x="822.0" y="158.0" type="line" smooth="yes"/>
      <point x="734.0" y="158.0"/>
      <point x="668.0" y="218.0"/>
      <point x="668.0" y="310.0" type="curve" smooth="yes"/>
      <point x="668.0" y="348.0"/>
      <point x="672.0" y="392.0"/>
      <point x="678.0" y="418.0" type="curve" smooth="yes"/>
      <point x="712.0" y="590.0"/>
      <point x="802.0" y="928.0"/>
      <point x="858.0" y="1088.0" type="curve" smooth="yes"/>
      <point x="900.0" y="1206.0"/>
      <point x="940.0" y="1242.0"/>
      <point x="1002.0" y="1242.0" type="curve" smooth="yes"/>
      <point x="1052.0" y="1242.0" type="line" smooth="yes"/>
      <point x="1210.0" y="1242.0"/>
      <point x="1316.0" y="1086.0"/>
      <point x="1316.0" y="852.0" type="curve" smooth="yes"/>
      <point x="1316.0" y="384.0"/>
      <point x="1098.0" y="158.0"/>
    </contour>
    <contour>
      <point x="118.13740142013138" y="134.33940032772261"/>
      <point x="94.0" y="97.33333333333334"/>
      <point x="94.0" y="64.0" type="curve" smooth="yes"/>
      <point x="94.0" y="21.333333333333336"/>
      <point x="114.57142857142857" y="0.0"/>
      <point x="158.0" y="0.0" type="curve" smooth="yes"/>
      <point x="844.0" y="0.0" type="line" smooth="yes"/>
      <point x="1300.0" y="0.0"/>
      <point x="1656.0" y="362.0"/>
      <point x="1656.0" y="796.0" type="curve" smooth="yes"/>
      <point x="1656.0" y="1152.2080299473137"/>
      <point x="1420.0" y="1400.0"/>
      <point x="1080.0" y="1400.0" type="curve" smooth="yes"/>
      <point x="476.0" y="1400.0" type="line" smooth="yes"/>
      <point x="428.0" y="1400.0"/>
      <point x="398.0" y="1362.0"/>
      <point x="398.0" y="1322.0" type="curve" smooth="yes"/>
      <point x="398.0" y="1284.0"/>
      <point x="420.0" y="1264.0"/>
      <point x="448.0" y="1256.0" type="curve" smooth="yes"/>
      <point x="494.0" y="1244.0" type="line" smooth="yes"/>
      <point x="526.0" y="1236.0"/>
      <point x="540.0" y="1218.0"/>
      <point x="540.0" y="1172.0" type="curve" smooth="yes"/>
      <point x="540.0" y="1056.0"/>
      <point x="416.0" y="614.0"/>
      <point x="316.0" y="298.0" type="curve" smooth="yes"/>
      <point x="282.0" y="194.0"/>
      <point x="260.0" y="168.0"/>
      <point x="212.0" y="156.0" type="curve" smooth="yes"/>
      <point x="160.0" y="144.0" type="line" smooth="yes"/>
    </contour>
  </outline>
</glyph>
<glyph name="F" format="2">
  <advance width="580"/>
  <unicode hex="0046"/>
  <outline>
    <contour>
      <point x="200" y="664" type="curve" smooth="yes"/>
      <point x="200.0" y="643.4871794871794"/>
      <point x="208.69047006677997" y="633.5612271142371"/>
      <point x="231" y="624" type="curve" smooth="yes"/>
      <point x="245" y="618" type="line" smooth="yes"/>
      <point x="267.86507635171375" y="608.2006815635513"/>
      <point x="275" y="599"/>
      <point x="270" y="573" type="curve" smooth="yes"/>
      <point x="239" y="421"/>
      <point x="198" y="274"/>
      <point x="156" y="133" type="curve" smooth="yes"/>
      <point x="147.03166284859128" y="103.10554282863761"/>
      <point x="135.9838392899166" y="86.71043792617061"/>
      <point x="112" y="81" type="curve" smooth="yes"/>
      <point x="91" y="76" type="line" smooth="yes"/>
      <point x="62.39609407607565" y="69.18954620858943"/>
      <point x="46.0" y="57.55"/>
      <point x="46" y="35" type="curve" smooth="yes"/>
      <point x="46.0" y="13.61111111111111"/>
      <point x="57.0" y="0"/>
      <point x="79" y="0" type="curve" smooth="yes"/>
      <point x="367" y="0" type="line" smooth="yes"/>
      <point x="406" y="0"/>
      <point x="416.0" y="17"/>
      <point x="416" y="38" type="curve" smooth="yes"/>
      <point x="416.0" y="58.0"/>
      <point x="405" y="68"/>
      <point x="363" y="78" type="curve" smooth="yes"/>
      <point x="342" y="83"/>
      <point x="321" y="99"/>
      <point x="329" y="139" type="curve" smooth="yes"/>
      <point x="358.6026372944483" y="278.84694170135936"/>
      <point x="395.7845132111485" y="445.1230162769392"/>
      <point x="455" y="634" type="curve"/>
      <point x="525" y="634" type="line" smooth="yes"/>
      <point x="571.6153846153846" y="634"/>
      <point x="613" y="621"/>
      <point x="626" y="582" type="curve" smooth="yes"/>
      <point x="636" y="552" type="line" smooth="yes"/>
      <point x="648.3264595774795" y="515.0206212675616"/>
      <point x="663.09375" y="505.0"/>
      <point x="687" y="505" type="curve" smooth="yes"/>
      <point x="705.6521739130435" y="505.0"/>
      <point x="728" y="523"/>
      <point x="726" y="557" type="curve" smooth="yes"/>
      <point x="719" y="687" type="line" smooth="yes"/>
      <point x="717.2197262724611" y="720.062226368579"/>
      <point x="714.8636363636364" y="733.0"/>
      <point x="693" y="733" type="curve" smooth="yes"/>
      <point x="678.8064516129033" y="733.0"/>
      <point x="664.9890133685598" y="726.167422774108"/>
      <point x="649" y="713" type="curve" smooth="yes"/>
      <point x="637.2171373654219" y="703.3594760262542"/>
      <point x="615.5454545454545" y="700"/>
      <point x="601" y="700" type="curve" smooth="yes"/>
      <point x="240" y="700" type="line" smooth="yes"/>
      <point x="217.77777777777777" y="700"/>
      <point x="200.0" y="688.0"/>
    </contour>
    <contour>
      <point x="312" y="375" type="line"/>
      <point x="294" y="306" type="line"/>
      <point x="466" y="306" type="line" smooth="yes"/>
      <point x="505.05797101449275" y="306"/>
      <point x="531" y="295"/>
      <point x="543" y="272" type="curve" smooth="yes"/>
      <point x="560.1618434672196" y="239.69535347346894"/>
      <point x="571.1489361702128" y="234.0"/>
      <point x="592" y="234" type="curve" smooth="yes"/>
      <point x="607.8666666666667" y="234.0"/>
      <point x="625.9449117763385" y="249.9543496124548"/>
      <point x="620" y="281" type="curve" smooth="yes"/>
      <point x="593" y="422" type="line" smooth="yes"/>
      <point x="590" y="440"/>
      <point x="581.0" y="456.0"/>
      <point x="561" y="456" type="curve" smooth="yes"/>
      <point x="545.0" y="456.0"/>
      <point x="532.8871687461334" y="442.9971852209454"/>
      <point x="517" y="417" type="curve" smooth="yes"/>
      <point x="498.39486047842666" y="383.9241964060918"/>
      <point x="464.8666666666667" y="375"/>
      <point x="432" y="375" type="curve" smooth="yes"/>
    </contour>
  </outline>
</glyph>
<glyph name="L" format="2">
  <advance width="1170"/>
  <unicode hex="004C"/>
  <outline>
    <contour>
      <point x="808.0" y="0.0" type="line" smooth="yes"/>
      <point x="891.8378378378378" y="0.0"/>
      <point x="937.8095238095237" y="-32.0"/>
      <point x="996.0" y="-32.0" type="curve" smooth="yes"/>
      <point x="1134.0" y="-32.0"/>
      <point x="1250.0" y="138.0"/>
      <point x="1250.0" y="322.0" type="curve" smooth="yes"/>
      <point x="1250.0" y="388.0"/>
      <point x="1224.2105263157894" y="416.0"/>
      <point x="1180.0" y="416.0" type="curve" smooth="yes"/>
      <point x="1139.8490566037735" y="416.0"/>
      <point x="1109.3171599130558" y="394.9919979668919"/>
      <point x="1068.0" y="334.0" type="curve" smooth="yes"/>
      <point x="1026.0" y="272.0" type="line" smooth="yes"/>
      <point x="968.0" y="186.0"/>
      <point x="915.6981132075472" y="142.0"/>
      <point x="804.0" y="142.0" type="curve" smooth="yes"/>
      <point x="694.9565217391305" y="142.0"/>
      <point x="652.0" y="192.0"/>
      <point x="652.0" y="256.0" type="curve" smooth="yes"/>
      <point x="652.0" y="356.0"/>
      <point x="750.0" y="804.0"/>
      <point x="878.0" y="1154.0" type="curve" smooth="yes"/>
      <point x="898.0" y="1206.0"/>
      <point x="920.0" y="1234.0"/>
      <point x="966.0" y="1244.0" type="curve" smooth="yes"/>
      <point x="1018.0" y="1256.0" type="line" smooth="yes"/>
      <point x="1057.4209415459688" y="1265.097140356762"/>
      <point x="1086.0" y="1284.0"/>
      <point x="1086.0" y="1330.0" type="curve" smooth="yes"/>
      <point x="1086.0" y="1370.0"/>
      <point x="1072.1538461538462" y="1398.0"/>
      <point x="1014.0" y="1398.0" type="curve" smooth="yes"/>
      <point x="478.0" y="1398.0" type="line" smooth="yes"/>
      <point x="432.0" y="1398.0"/>
      <point x="417.8049006941667" y="1377.3310880942856"/>
      <point x="404.0" y="1330.0" type="curve" smooth="yes"/>
      <point x="394.1096714357533" y="1284.504488604465"/>
      <point x="414.56322946595793" y="1264.8591926335105"/>
      <point x="450.0" y="1256.0" type="curve" smooth="yes"/>
      <point x="498.0" y="1244.0" type="line" smooth="yes"/>
      <point x="534.0" y="1234.0"/>
      <point x="548.0" y="1206.0"/>
      <point x="542.0" y="1168.0" type="curve" smooth="yes"/>
      <point x="484.0" y="864.0"/>
      <point x="406.0" y="556.0"/>
      <point x="310.0" y="268.0" type="curve" smooth="yes"/>
      <point x="290.0" y="210.0"/>
      <point x="268.0" y="176.0"/>
      <point x="218.0" y="164.0" type="curve" smooth="yes"/>
      <point x="176.0" y="154.0" type="line" smooth="yes"/>
      <point x="122.84587054144356" y="141.34425489081988"/>
      <point x="105.9101080438554" y="115.62245378419267"/>
      <point x="96.0" y="74.0" type="curve" smooth="yes"/>
      <point x="81.77828954644957" y="23.208176951605623"/>
      <point x="112.0" y="0.0"/>
      <point x="168.0" y="0.0" type="curve" smooth="yes"/>
    </contour>
  </outline>
</glyph>
<glyph name="Q" format="2">
  <advance width="1564"/>
  <unicode hex="0051"/>
  <outline>
    <contour>
      <point x="806.0" y="154.0" type="curve" smooth="yes"/>
      <point x="806.0" y="-126.0"/>
      <point x="994.2795698924731" y="-372.0"/>
      <point x="1218.0" y="-372.0" type="curve" smooth="yes"/>
      <point x="1301.8709677419354" y="-372.0"/>
      <point x="1370.206891688679" y="-346.19501432986385"/>
      <point x="1426.0" y="-250.0" type="curve" smooth="yes"/>
      <point x="1472.0" y="-170.0"/>
      <point x="1488.0" y="-137.0566037735849"/>
      <point x="1488.0" y="-104.0" type="curve" smooth="yes"/>
      <point x="1488.0" y="-78.0"/>
      <point x="1472.0" y="-54.0"/>
      <point x="1436.0" y="-54.0" type="curve" smooth="yes"/>
      <point x="1396.0" y="-54.0"/>
      <point x="1358.0" y="-104.0"/>
      <point x="1300.0" y="-104.0" type="curve" smooth="yes"/>
      <point x="1096.0" y="-104.0"/>
      <point x="946.0" y="62.11235955056182"/>
      <point x="946.0" y="248.0" type="curve" smooth="yes"/>
      <point x="946.0" y="335.4754098360656"/>
      <point x="972.0" y="392.36923076923074"/>
      <point x="972.0" y="432.0" type="curve" smooth="yes"/>
      <point x="972.0" y="462.0"/>
      <point x="960.0" y="484.0"/>
      <point x="924.0" y="484.0" type="curve" smooth="yes"/>
      <point x="861.5294117647059" y="484.0"/>
      <point x="806.0" y="376.3913043478261"/>
    </contour>
    <contour>
      <point x="1158.0" y="1430.0" type="curve" smooth="yes"/>
      <point x="708.0" y="1430.0"/>
      <point x="386.0" y="1130.0"/>
      <point x="284.0" y="714.0" type="curve" smooth="yes"/>
      <point x="170.0" y="250.0"/>
      <point x="394.0" y="-30.0"/>
      <point x="766.0" y="-30.0" type="curve" smooth="yes"/>
      <point x="1166.0" y="-30.0"/>
      <point x="1546.0" y="228.0"/>
      <point x="1662.0" y="710.0" type="curve" smooth="yes"/>
      <point x="1764.0" y="1134.0"/>
      <point x="1508.0" y="1430.0"/>
    </contour>
    <contour>
      <point x="818.0" y="134.0" type="curve" smooth="yes"/>
      <point x="694.0" y="134.0"/>
      <point x="580.3842511789879" y="281.3123747631112"/>
      <point x="686.0" y="708.0" type="curve" smooth="yes"/>
      <point x="773.0388225173467" y="1056.155290069387"/>
      <point x="960.0" y="1272.0"/>
      <point x="1120.0" y="1272.0" type="curve" smooth="yes"/>
      <point x="1266.0" y="1272.0"/>
      <point x="1359.245324544365" y="1078.9997311273669"/>
      <point x="1264.0" y="734.0" type="curve" smooth="yes"/>
      <point x="1141.3264658615233" y="284.85657662202925"/>
      <point x="982.0" y="134.0"/>
    </contour>
  </outline>
</glyph>
<glyph name="T" format="2">
  <advance width="632"/>
  <unicode hex="0054"/>
  <outline>
    <contour>
      <point x="390" y="714" type="curve" smooth="yes"/>
      <point x="229.0" y="714.0"/>
      <point x="154.0" y="644.4861111111111"/>
      <point x="154" y="560" type="curve" smooth="yes"/>
      <point x="154" y="502"/>
      <point x="186" y="470"/>
      <point x="233" y="470" type="curve" smooth="yes"/>
      <point x="284" y="470"/>
      <point x="318" y="506"/>
      <point x="318" y="542" type="curve" smooth="yes"/>
      <point x="318" y="568"/>
      <point x="310" y="582"/>
      <point x="310" y="602" type="curve" smooth="yes"/>
      <point x="310.0" y="630.1111111111111"/>
      <point x="335.0" y="648.0"/>
      <point x="404" y="648" type="curve" smooth="yes"/>
      <point x="494.0" y="648.0"/>
      <point x="628.0" y="589.0"/>
      <point x="721" y="589" type="curve" smooth="yes"/>
      <point x="779.0" y="589.0"/>
      <point x="820.0" y="629.7547169811321"/>
      <point x="820" y="679" type="curve" smooth="yes"/>
      <point x="820.0" y="733.0681818181819"/>
      <point x="793.54" y="757.0"/>
      <point x="757" y="757" type="curve" smooth="yes"/>
      <point x="719.3555555555556" y="757.0"/>
      <point x="696.7588378559567" y="733.1856841499324"/>
      <point x="680" y="707" type="curve" smooth="yes"/>
      <point x="667.7573039506252" y="687.2233371510099"/>
      <point x="652.3076923076923" y="680.0"/>
      <point x="630" y="680" type="curve" smooth="yes"/>
      <point x="578.8" y="680.0"/>
      <point x="492.0" y="714.0"/>
    </contour>
    <contour>
      <point x="452" y="677" type="line"/>
      <point x="407" y="508"/>
      <point x="348" y="321"/>
      <point x="285" y="145" type="curve" smooth="yes"/>
      <point x="271" y="107"/>
      <point x="257.2370718459498" y="87.33890194223117"/>
      <point x="227" y="76" type="curve" smooth="yes"/>
      <point x="211" y="70" type="line" smooth="yes"/>
      <point x="182" y="59"/>
      <point x="160" y="56"/>
      <point x="157" y="33" type="curve" smooth="yes"/>
      <point x="154" y="11"/>
      <point x="163" y="0"/>
      <point x="193" y="0" type="curve" smooth="yes"/>
      <point x="486" y="0" type="line" smooth="yes"/>
      <point x="513.0" y="0.0"/>
      <point x="530" y="10"/>
      <point x="532" y="33" type="curve" smooth="yes"/>
      <point x="534" y="56"/>
      <point x="519" y="57"/>
      <point x="490" y="70" type="curve" smooth="yes"/>
      <point x="476" y="76" type="line" smooth="yes"/>
      <point x="456.52366599673087" y="84.34700028711534"/>
      <point x="450" y="105"/>
      <point x="460" y="147" type="curve" smooth="yes"/>
      <point x="498" y="314"/>
      <point x="544" y="487"/>
      <point x="589" y="639" type="curve"/>
    </contour>
  </outline>
</glyph>
<glyph name="U" format="2">
  <advance width="1438"/>
  <unicode hex="0055"/>
  <anchor x="1176.0" y="1476.0" name="center"/>
  <outline>
    <contour>
      <point x="1190.0" y="426.0" type="line" smooth="yes"/>
      <point x="1132.0" y="230.0"/>
      <point x="1012.0" y="156.0"/>
      <point x="866.0" y="156.0" type="curve" smooth="yes"/>
      <point x="738.0" y="156.0"/>
      <point x="658.0" y="214.0"/>
      <point x="658.0" y="332.0" type="curve" smooth="yes"/>
      <point x="658.0" y="406.0"/>
      <point x="670.0" y="494.0"/>
      <point x="714.0" y="648.0" type="curve" smooth="yes"/>
      <point x="832.0" y="1068.0" type="line" smooth="yes"/>
      <point x="864.0" y="1184.0"/>
      <point x="904.0" y="1228.0"/>
      <point x="964.0" y="1248.0" type="curve" smooth="yes"/>
      <point x="1034.0" y="1272.0"/>
      <point x="1066.0" y="1302.0"/>
      <point x="1066.0" y="1338.0" type="curve" smooth="yes"/>
      <point x="1066.0" y="1380.0"/>
      <point x="1040.0" y="1400.0"/>
      <point x="988.0" y="1400.0" type="curve" smooth="yes"/>
      <point x="448.0" y="1400.0" type="line" smooth="yes"/>
      <point x="400.0" y="1400.0"/>
      <point x="376.0" y="1368.0"/>
      <point x="376.0" y="1332.0" type="curve" smooth="yes"/>
      <point x="376.0" y="1294.0"/>
      <point x="390.0" y="1276.0"/>
      <point x="440.0" y="1250.0" type="curve" smooth="yes"/>
      <point x="482.0" y="1228.0"/>
      <point x="506.0" y="1194.0"/>
      <point x="506.0" y="1162.0" type="curve" smooth="yes"/>
      <point x="506.0" y="1142.0"/>
      <point x="494.0" y="1102.0"/>
      <point x="484.0" y="1068.0" type="curve" smooth="yes"/>
      <point x="366.0" y="648.0" type="line" smooth="yes"/>
      <point x="338.0" y="548.0"/>
      <point x="294.0" y="392.0"/>
      <point x="294.0" y="314.0" type="curve" smooth="yes"/>
      <point x="294.0" y="114.0"/>
      <point x="440.0" y="-30.0"/>
      <point x="742.0" y="-30.0" type="curve" smooth="yes"/>
      <point x="1068.0" y="-30.0"/>
      <point x="1278.0" y="112.0"/>
      <point x="1376.0" y="452.0" type="curve" smooth="yes"/>
      <point x="1546.0" y="1050.0" type="line" smooth="yes"/>
      <point x="1580.0" y="1168.0"/>
      <point x="1608.0" y="1198.0"/>
      <point x="1686.0" y="1224.0" type="curve" smooth="yes"/>
      <point x="1744.0" y="1244.0"/>
      <point x="1788.0" y="1272.0"/>
      <point x="1788.0" y="1332.0" type="curve" smooth="yes"/>
      <point x="1788.0" y="1372.0"/>
      <point x="1756.0" y="1400.0"/>
      <point x="1710.0" y="1400.0" type="curve" smooth="yes"/>
      <point x="1322.0" y="1400.0" type="line" smooth="yes"/>
      <point x="1268.0" y="1400.0"/>
      <point x="1240.0" y="1368.0"/>
      <point x="1240.0" y="1332.0" type="curve" smooth="yes"/>
      <point x="1240.0" y="1302.0"/>
      <point x="1256.0" y="1276.0"/>
      <point x="1330.0" y="1240.0" type="curve" smooth="yes"/>
      <point x="1374.0" y="1218.0"/>
      <point x="1390.0" y="1184.0"/>
      <point x="1390.0" y="1148.0" type="curve" smooth="yes"/>
      <point x="1390.0" y="1102.0"/>
      <point x="1378.0" y="1072.0"/>
      <point x="1362.0" y="1018.0" type="curve" smooth="yes"/>
    </contour>
  </outline>
</glyph>
<glyph name="V" format="2">
  <advance width="1328"/>
  <unicode hex="0056"/>
  <outline>
    <contour>
      <point x="1148.0" y="1318.0" type="curve" smooth="yes"/>
      <point x="1148.0" y="1282.0"/>
      <point x="1172.0" y="1256.0"/>
      <point x="1208.0" y="1228.0" type="curve" smooth="yes"/>
      <point x="1226.0" y="1214.0" type="line" smooth="yes"/>
      <point x="1250.0" y="1194.0"/>
      <point x="1262.0" y="1164.0"/>
      <point x="1262.0" y="1128.0" type="curve" smooth="yes"/>
      <point x="1262.0" y="1102.0"/>
      <point x="1246.0" y="1060.0"/>
      <point x="1216.0" y="1014.0" type="curve" smooth="yes"/>
      <point x="644.0" y="122.0" type="line"/>
      <point x="762.0" y="158.0" type="line"/>
      <point x="754.0" y="480.0"/>
      <point x="748.0" y="914.0"/>
      <point x="748.0" y="1086.0" type="curve" smooth="yes"/>
      <point x="748.0" y="1180.0"/>
      <point x="784.0" y="1220.0"/>
      <point x="834.0" y="1232.0" type="curve" smooth="yes"/>
      <point x="866.0" y="1240.0" type="line" smooth="yes"/>
      <point x="906.0" y="1250.0"/>
      <point x="944.0" y="1274.0"/>
      <point x="944.0" y="1326.0" type="curve" smooth="yes"/>
      <point x="944.0" y="1374.0"/>
      <point x="914.0" y="1400.0"/>
      <point x="880.0" y="1400.0" type="curve" smooth="yes"/>
      <point x="416.0" y="1400.0" type="line" smooth="yes"/>
      <point x="374.0" y="1400.0"/>
      <point x="336.0" y="1364.0"/>
      <point x="336.0" y="1320.0" type="curve" smooth="yes"/>
      <point x="336.0" y="1288.0"/>
      <point x="340.0" y="1264.0"/>
      <point x="372.0" y="1242.0" type="curve" smooth="yes"/>
      <point x="390.0" y="1230.0"/>
      <point x="424.0" y="1194.0"/>
      <point x="430.0" y="1092.0" type="curve" smooth="yes"/>
      <point x="448.0" y="808.0"/>
      <point x="466.0" y="376.0"/>
      <point x="460.0" y="238.0" type="curve" smooth="yes"/>
      <point x="458.0" y="212.0"/>
      <point x="458.0" y="192.0"/>
      <point x="448.0" y="146.0" type="curve" smooth="yes"/>
      <point x="438.0" y="94.0" type="line" smooth="yes"/>
      <point x="426.0" y="34.0"/>
      <point x="452.0" y="0.0"/>
      <point x="514.0" y="0.0" type="curve" smooth="yes"/>
      <point x="698.0" y="0.0" type="line" smooth="yes"/>
      <point x="758.0" y="0.0"/>
      <point x="816.0" y="32.0"/>
      <point x="828.0" y="92.0" type="curve" smooth="yes"/>
      <point x="832.0" y="112.0" type="line" smooth="yes"/>
      <point x="842.0" y="158.0"/>
      <point x="864.0" y="190.0"/>
      <point x="886.0" y="226.0" type="curve" smooth="yes"/>
      <point x="1410.0" y="1020.0" type="line" smooth="yes"/>
      <point x="1488.0" y="1138.0"/>
      <point x="1524.0" y="1162.0"/>
      <point x="1582.0" y="1184.0" type="curve" smooth="yes"/>
      <point x="1666.0" y="1216.0"/>
      <point x="1692.0" y="1250.0"/>
      <point x="1692.0" y="1304.0" type="curve" smooth="yes"/>
      <point x="1692.0" y="1370.0"/>
      <point x="1660.0" y="1400.0"/>
      <point x="1586.0" y="1400.0" type="curve" smooth="yes"/>
      <point x="1226.0" y="1400.0" type="line" smooth="yes"/>
      <point x="1184.0" y="1400.0"/>
      <point x="1148.0" y="1366.0"/>
    </contour>
  </outline>
</glyph>
<glyph name="X" format="2">
  <advance width="1374"/>
  <unicode hex="0058"/>
  <outline>
    <contour>
      <point x="710.0" y="764.0" type="line"/>
      <point x="546.0" y="556.0" type="line" smooth="yes"/>
      <point x="320.86581581923144" y="270.4639615268301"/>
      <point x="240.0" y="218.0"/>
      <point x="136.0" y="194.0" type="curve" smooth="yes"/>
      <point x="50.45033972564826" y="176.09425715187987"/>
      <point x="26.0" y="140.26666666666665"/>
      <point x="26.0" y="90.0" type="curve" smooth="yes"/>
      <point x="26.0" y="34.054054054054056"/>
      <point x="54.285714285714285" y="0.0"/>
      <point x="116.0" y="0.0" type="curve" smooth="yes"/>
      <point x="480.0" y="0.0" type="line" smooth="yes"/>
      <point x="528.0" y="0.0"/>
      <point x="566.0" y="34.0"/>
      <point x="566.0" y="80.0" type="curve" smooth="yes"/>
      <point x="566.0" y="107.2093023255814"/>
      <point x="558.0008288885147" y="129.499378333614"/>
      <point x="520.0" y="158.0" type="curve" smooth="yes"/>
      <point x="498.21148095803943" y="174.94662592152486"/>
      <point x="492.0" y="200.96296296296296"/>
      <point x="492.0" y="216.0" type="curve" smooth="yes"/>
      <point x="492.0" y="271.3"/>
      <point x="522.7730291630976" y="316.4865597779534"/>
      <point x="688.0" y="532.0" type="curve" smooth="yes"/>
      <point x="780.0" y="652.0" type="line"/>
    </contour>
    <contour>
      <point x="1082.0" y="578.0"/>
      <point x="922.0" y="964.0"/>
      <point x="856.0" y="1154.0" type="curve" smooth="yes"/>
      <point x="840.0" y="1198.0"/>
      <point x="866.0" y="1232.0"/>
      <point x="896.0" y="1240.0" type="curve" smooth="yes"/>
      <point x="936.0" y="1250.0" type="line" smooth="yes"/>
      <point x="982.0" y="1262.0"/>
      <point x="1010.0" y="1288.0"/>
      <point x="1010.0" y="1332.0" type="curve" smooth="yes"/>
      <point x="1010.0" y="1376.0"/>
      <point x="986.0" y="1400.0"/>
      <point x="940.0" y="1400.0" type="curve" smooth="yes"/>
      <point x="432.0" y="1400.0" type="line" smooth="yes"/>
      <point x="380.0" y="1400.0"/>
      <point x="346.0" y="1372.0"/>
      <point x="346.0" y="1332.0" type="curve" smooth="yes"/>
      <point x="346.0" y="1296.0"/>
      <point x="362.0" y="1270.0"/>
      <point x="422.0" y="1244.0" type="curve" smooth="yes"/>
      <point x="464.0" y="1224.0"/>
      <point x="480.0" y="1216.0"/>
      <point x="506.0" y="1160.0" type="curve" smooth="yes"/>
      <point x="658.0" y="802.0"/>
      <point x="810.0" y="442.0"/>
      <point x="882.0" y="252.0" type="curve" smooth="yes"/>
      <point x="890.0" y="226.0"/>
      <point x="892.0" y="214.0"/>
      <point x="892.0" y="204.0" type="curve" smooth="yes"/>
      <point x="892.0" y="180.0"/>
      <point x="870.0" y="162.0"/>
      <point x="828.0" y="156.0" type="curve" smooth="yes"/>
      <point x="770.0" y="148.0"/>
      <point x="744.0" y="116.0"/>
      <point x="744.0" y="74.0" type="curve" smooth="yes"/>
      <point x="744.0" y="32.0"/>
      <point x="764.0" y="0.0"/>
      <point x="812.0" y="0.0" type="curve" smooth="yes"/>
      <point x="1300.0" y="0.0" type="line" smooth="yes"/>
      <point x="1352.0" y="0.0"/>
      <point x="1386.0" y="32.0"/>
      <point x="1386.0" y="74.0" type="curve" smooth="yes"/>
      <point x="1386.0" y="118.0"/>
      <point x="1374.0" y="136.0"/>
      <point x="1318.0" y="156.0" type="curve" smooth="yes"/>
      <point x="1282.0" y="168.0"/>
      <point x="1256.0" y="186.0"/>
      <point x="1234.0" y="234.0" type="curve" smooth="yes"/>
    </contour>
    <contour>
      <point x="1020.0" y="660.0" type="line"/>
      <point x="1134.0" y="834.0" type="line" smooth="yes"/>
      <point x="1278.0" y="1054.0"/>
      <point x="1360.0" y="1120.0"/>
      <point x="1422.0" y="1120.0" type="curve" smooth="yes"/>
      <point x="1478.0" y="1120.0"/>
      <point x="1514.0" y="1072.0"/>
      <point x="1588.0" y="1072.0" type="curve" smooth="yes"/>
      <point x="1666.0" y="1072.0"/>
      <point x="1746.0" y="1140.0"/>
      <point x="1746.0" y="1244.0" type="curve" smooth="yes"/>
      <point x="1746.0" y="1348.0"/>
      <point x="1684.0" y="1430.0"/>
      <point x="1558.0" y="1430.0" type="curve" smooth="yes"/>
      <point x="1424.0" y="1430.0"/>
      <point x="1326.0" y="1368.0"/>
      <point x="1020.0" y="896.0" type="curve" smooth="yes"/>
      <point x="946.0" y="782.0" type="line"/>
    </contour>
  </outline>
</glyph>
<glyph name="Z" format="2">
  <advance width="1264"/>
  <unicode hex="005A"/>
  <outline>
    <contour>
      <point x="844.0" y="0.0" type="line" smooth="yes"/>
      <point x="927.3870967741935" y="0.0"/>
      <point x="974.0" y="-32.0"/>
      <point x="1032.0" y="-32.0" type="curve" smooth="yes"/>
      <point x="1194.021978021978" y="-32.0"/>
      <point x="1336.0" y="155.01382488479265"/>
      <point x="1336.0" y="362.0" type="curve" smooth="yes"/>
      <point x="1336.0" y="457.7551020408163"/>
      <point x="1310.0" y="500.0"/>
      <point x="1262.0" y="500.0" type="curve" smooth="yes"/>
      <point x="1216.0" y="500.0"/>
      <point x="1187.8893124772671" y="478.714830327915"/>
      <point x="1150.0" y="430.0" type="curve" smooth="yes"/>
      <point x="1080.0" y="340.0" type="line" smooth="yes"/>
      <point x="970.0" y="198.0"/>
      <point x="891.0" y="142.0"/>
      <point x="720.0" y="142.0" type="curve" smooth="yes"/>
      <point x="402.0" y="142.0" type="line"/>
      <point x="464.0" y="46.0" type="line"/>
      <point x="784.0" y="456.0"/>
      <point x="1162.0" y="906.0"/>
      <point x="1446.0" y="1200.0" type="curve" smooth="yes"/>
      <point x="1484.0" y="1238.0"/>
      <point x="1512.0" y="1288.0"/>
      <point x="1512.0" y="1320.0" type="curve" smooth="yes"/>
      <point x="1512.0" y="1376.0"/>
      <point x="1484.0" y="1400.0"/>
      <point x="1416.0" y="1400.0" type="curve" smooth="yes"/>
      <point x="738.0" y="1400.0" type="line" smooth="yes"/>
      <point x="664.0" y="1400.0"/>
      <point x="630.0" y="1446.0"/>
      <point x="580.0" y="1446.0" type="curve" smooth="yes"/>
      <point x="528.0" y="1446.0"/>
      <point x="490.0" y="1422.0"/>
      <point x="464.0" y="1346.0" type="curve" smooth="yes"/>
      <point x="384.0" y="1102.0" type="line" smooth="yes"/>
      <point x="374.0" y="1070.0"/>
      <point x="366.0" y="1050.0"/>
      <point x="366.0" y="1032.0" type="curve" smooth="yes"/>
      <point x="366.0" y="998.0"/>
      <point x="390.0" y="976.0"/>
      <point x="436.0" y="976.0" type="curve" smooth="yes"/>
      <point x="474.0" y="976.0"/>
      <point x="496.0" y="996.0"/>
      <point x="570.0" y="1072.0" type="curve" smooth="yes"/>
      <point x="650.0" y="1154.0" type="line" smooth="yes"/>
      <point x="728.0" y="1234.0"/>
      <point x="758.0" y="1258.0"/>
      <point x="852.0" y="1258.0" type="curve" smooth="yes"/>
      <point x="1216.0" y="1258.0" type="line"/>
      <point x="1172.0" y="1352.0" type="line"/>
      <point x="859.4419396310195" y="946.6827733279673"/>
      <point x="472.39068025115915" y="512.516505527536"/>
      <point x="242.0" y="270.0" type="curve" smooth="yes"/>
      <point x="170.0" y="196.0"/>
      <point x="118.0" y="130.0"/>
      <point x="118.0" y="84.0" type="curve" smooth="yes"/>
      <point x="118.0" y="26.0"/>
      <point x="148.0" y="0.0"/>
      <point x="218.0" y="0.0" type="curve" smooth="yes"/>
    </contour>
  </outline>
</glyph>
<glyph name="bracketleft" format="2">
  <advance width="786"/>
  <unicode hex="005B"/>
  <outline>
    <contour>
      <point x="816.0" y="1278.0" type="line" smooth="yes"/>
      <point x="832.0" y="1338.0"/>
      <point x="894.0" y="1386.0"/>
      <point x="952.0" y="1386.0" type="curve" smooth="yes"/>
      <point x="1052.0" y="1386.0" type="line" smooth="yes"/>
      <point x="1114.0" y="1386.0"/>
      <point x="1142.0" y="1404.0"/>
      <point x="1154.0" y="1446.0" type="curve" smooth="yes"/>
      <point x="1162.0" y="1480.0"/>
      <point x="1148.0" y="1512.0"/>
      <point x="1090.0" y="1512.0" type="curve" smooth="yes"/>
      <point x="726.0" y="1512.0" type="line" smooth="yes"/>
      <point x="658.0" y="1512.0"/>
      <point x="588.0" y="1450.0"/>
      <point x="568.0" y="1374.0" type="curve" smooth="yes"/>
      <point x="142.0" y="-216.0" type="line" smooth="yes"/>
      <point x="122.0" y="-292.0"/>
      <point x="158.0" y="-354.0"/>
      <point x="226.0" y="-354.0" type="curve" smooth="yes"/>
      <point x="590.0" y="-354.0" type="line" smooth="yes"/>
      <point x="648.0" y="-354.0"/>
      <point x="680.0" y="-320.0"/>
      <point x="688.0" y="-288.0" type="curve" smooth="yes"/>
      <point x="700.0" y="-246.0"/>
      <point x="680.0" y="-228.0"/>
      <point x="618.0" y="-228.0" type="curve" smooth="yes"/>
      <point x="518.0" y="-228.0" type="line" smooth="yes"/>
      <point x="460.0" y="-228.0"/>
      <point x="426.0" y="-180.0"/>
      <point x="442.0" y="-120.0" type="curve" smooth="yes"/>
    </contour>
  </outline>
</glyph>
<glyph name="backslash" format="2">
  <advance width="840"/>
  <unicode hex="005C"/>
  <outline>
    <contour>
      <point x="430.0" y="1364.0" type="curve" smooth="yes"/>
      <point x="426.0" y="1388.0"/>
      <point x="426.0" y="1408.0"/>
      <point x="430.0" y="1424.0" type="curve" smooth="yes"/>
      <point x="448.0" y="1490.0"/>
      <point x="508.0" y="1534.0"/>
      <point x="566.0" y="1534.0" type="curve" smooth="yes"/>
      <point x="626.0" y="1534.0"/>
      <point x="652.0" y="1480.0"/>
      <point x="650.0" y="1424.0" type="curve" smooth="yes"/>
      <point x="642.0" y="1264.0"/>
      <point x="616.0" y="1120.0"/>
      <point x="646.0" y="690.0" type="curve" smooth="yes"/>
      <point x="680.0" y="222.0"/>
      <point x="746.0" y="124.0"/>
      <point x="766.0" y="-36.0" type="curve" smooth="yes"/>
      <point x="770.0" y="-72.0"/>
      <point x="768.0" y="-94.0"/>
      <point x="764.0" y="-114.0" type="curve" smooth="yes"/>
      <point x="750.0" y="-162.0"/>
      <point x="694.0" y="-212.0"/>
      <point x="638.0" y="-212.0" type="curve" smooth="yes"/>
      <point x="580.0" y="-212.0"/>
      <point x="536.0" y="-174.0"/>
      <point x="540.0" y="-84.0" type="curve" smooth="yes"/>
      <point x="544.0" y="70.0"/>
      <point x="576.0" y="168.0"/>
      <point x="552.0" y="654.0" type="curve" smooth="yes"/>
      <point x="530.0" y="1098.0"/>
      <point x="456.0" y="1220.0"/>
    </contour>
  </outline>
</glyph>
<glyph name="underscore" format="2">
  <advance width="1284"/>
  <unicode hex="005F"/>
  <outline>
    <contour>
      <point x="1128.0" y="134.0" type="curve" smooth="yes"/>
      <point x="210.0" y="134.0" type="line" smooth="yes"/>
      <point x="160.0" y="134.0"/>
      <point x="116.0" y="95.0"/>
      <point x="116.0" y="56.0" type="curve" smooth="yes"/>
      <point x="116.0" y="17.945945945945937"/>
      <point x="140.0" y="-8.0"/>
      <point x="190.0" y="-8.0" type="curve" smooth="yes"/>
      <point x="1108.0" y="-8.0" type="line" smooth="yes"/>
      <point x="1158.0" y="-8.0"/>
      <point x="1202.0" y="29.116279069767415"/>
      <point x="1202.0" y="68.0" type="curve" smooth="yes"/>
      <point x="1202.0" y="107.9473684210526"/>
      <point x="1176.0" y="134.0"/>
    </contour>
  </outline>
</glyph>
<glyph name="c" format="2">
  <advance width="918"/>
  <unicode hex="0063"/>
  <anchor x="736.0" y="1072.0" name="center"/>
  <outline>
    <contour>
      <point x="686.0" y="814.0" type="curve" smooth="yes"/>
      <point x="728.0" y="814.0"/>
      <point x="754.0" y="780.0"/>
      <point x="754.0" y="738.0" type="curve" smooth="yes"/>
      <point x="754.0" y="706.0"/>
      <point x="740.0" y="668.0"/>
      <point x="740.0" y="642.0" type="curve" smooth="yes"/>
      <point x="740.0" y="572.0"/>
      <point x="788.0" y="528.0"/>
      <point x="858.0" y="528.0" type="curve" smooth="yes"/>
      <point x="960.0" y="528.0"/>
      <point x="1044.0" y="608.0"/>
      <point x="1044.0" y="742.0" type="curve" smooth="yes"/>
      <point x="1044.0" y="860.0"/>
      <point x="952.0" y="980.0"/>
      <point x="768.0" y="980.0" type="curve" smooth="yes"/>
      <point x="439.08196721311475" y="980.0"/>
      <point x="160.0" y="660.0"/>
      <point x="160.0" y="316.0" type="curve" smooth="yes"/>
      <point x="160.0" y="124.0"/>
      <point x="292.0" y="-30.0"/>
      <point x="512.0" y="-30.0" type="curve" smooth="yes"/>
      <point x="768.0" y="-30.0"/>
      <point x="954.0" y="136.0"/>
      <point x="954.0" y="280.0" type="curve" smooth="yes"/>
      <point x="954.0" y="338.0"/>
      <point x="930.0" y="374.0"/>
      <point x="896.0" y="374.0" type="curve" smooth="yes"/>
      <point x="854.0" y="374.0"/>
      <point x="824.0" y="342.0"/>
      <point x="802.0" y="306.0" type="curve" smooth="yes"/>
      <point x="752.0" y="226.0"/>
      <point x="692.0" y="164.0"/>
      <point x="596.0" y="164.0" type="curve" smooth="yes"/>
      <point x="517.8333333333334" y="164.0"/>
      <point x="462.0" y="258.0"/>
      <point x="462.0" y="408.0" type="curve" smooth="yes"/>
      <point x="462.0" y="640.0"/>
      <point x="571.0265486725664" y="814.0"/>
    </contour>
  </outline>
</glyph>
<glyph name="j" format="2">
  <advance width="608"/>
  <unicode hex="006A"/>
  <outline>
    <contour>
      <point x="600.0" y="1084.0" type="curve" smooth="yes"/>
      <point x="733.2537313432836" y="1084.0"/>
      <point x="848.0" y="1176.5555555555557"/>
      <point x="848.0" y="1280.0" type="curve" smooth="yes"/>
      <point x="848.0" y="1367.6923076923076"/>
      <point x="780.1052631578948" y="1430.0"/>
      <point x="676.0" y="1430.0" type="curve" smooth="yes"/>
      <point x="535.4285714285714" y="1430.0"/>
      <point x="430.0" y="1330.091743119266"/>
      <point x="430.0" y="1232.0" type="curve" smooth="yes"/>
      <point x="430.0" y="1139.5"/>
      <point x="495.73333333333335" y="1084.0"/>
    </contour>
    <contour>
      <point x="610.0" y="498.0" type="curve" smooth="yes"/>
      <point x="434.0" y="-116.0" type="line" smooth="yes"/>
      <point x="366.74735125718473" y="-350.62003595504876"/>
      <point x="208.84745762711864" y="-510.0"/>
      <point x="2.0" y="-510.0" type="curve" smooth="yes"/>
      <point x="-147.3814432989691" y="-510.0"/>
      <point x="-228.0" y="-428.0"/>
      <point x="-228.0" y="-334.0" type="curve" smooth="yes"/>
      <point x="-228.0" y="-246.0"/>
      <point x="-173.1891891891892" y="-184.0"/>
      <point x="-72.0" y="-184.0" type="curve" smooth="yes"/>
      <point x="5.117117117117118" y="-184.0"/>
      <point x="69.96039603960395" y="-264.0"/>
      <point x="142.0" y="-264.0" type="curve" smooth="yes"/>
      <point x="216.0" y="-264.0"/>
      <point x="264.0" y="-232.0"/>
      <point x="264.0" y="-160.0" type="curve" smooth="yes"/>
      <point x="264.0" y="-106.0"/>
      <point x="191.3621834336933" y="-21.652630911285073"/>
      <point x="228.0" y="102.0" type="curve" smooth="yes"/>
      <point x="356.0" y="534.0" type="line" smooth="yes"/>
      <point x="374.9677693022157" y="597.7527801546695"/>
      <point x="380.0" y="628.0"/>
      <point x="380.0" y="672.0" type="curve" smooth="yes"/>
      <point x="380.0" y="708.0"/>
      <point x="359.42857142857144" y="732.0"/>
      <point x="332.0" y="732.0" type="curve" smooth="yes"/>
      <point x="312.0" y="732.0"/>
      <point x="300.0" y="724.0"/>
      <point x="286.0" y="708.0" type="curve" smooth="yes"/>
      <point x="268.0" y="688.0"/>
      <point x="246.0" y="684.0"/>
      <point x="228.0" y="684.0" type="curve" smooth="yes"/>
      <point x="196.0" y="684.0"/>
      <point x="174.0" y="702.0"/>
      <point x="172.0" y="756.0" type="curve" smooth="yes"/>
      <point x="170.0" y="854.0"/>
      <point x="350.0" y="980.0"/>
      <point x="558.0" y="980.0" type="curve" smooth="yes"/>
      <point x="642.0" y="980.0"/>
      <point x="684.0" y="930.0"/>
      <point x="684.0" y="856.0" type="curve" smooth="yes"/>
      <point x="684.0" y="754.0"/>
      <point x="644.0" y="616.0"/>
    </contour>
  </outline>
</glyph>
<glyph name="p" format="2">
  <advance width="1134"/>
  <unicode hex="0070"/>
  <outline>
    <contour>
      <point x="708.0" y="942.0" type="line" smooth="yes"/>
      <point x="734.0" y="1038.0"/>
      <point x="738.0" y="1056.0"/>
      <point x="738.0" y="1076.0" type="curve" smooth="yes"/>
      <point x="738.0" y="1132.0"/>
      <point x="702.0" y="1172.0"/>
      <point x="648.0" y="1172.0" type="curve" smooth="yes"/>
      <point x="562.0" y="1172.0"/>
      <point x="500.0" y="1126.0"/>
      <point x="464.0" y="996.0" type="curve" smooth="yes"/>
      <point x="116.0" y="-230.0" type="line" smooth="yes"/>
      <point x="106.0" y="-266.0"/>
      <point x="78.0" y="-290.0"/>
      <point x="34.0" y="-316.0" type="curve" smooth="yes"/>
      <point x="-26.512732451060423" y="-348.77773007765774"/>
      <point x="-48.0" y="-376.0"/>
      <point x="-48.0" y="-402.0" type="curve" smooth="yes"/>
      <point x="-48.0" y="-448.0"/>
      <point x="-19.38779868893829" y="-470.8817877049278"/>
      <point x="18.0" y="-470.0" type="curve" smooth="yes"/>
      <point x="442.0" y="-460.0" type="line" smooth="yes"/>
      <point x="483.5490501288159" y="-459.0200695724336"/>
      <point x="512.0" y="-432.0"/>
      <point x="512.0" y="-394.0" type="curve" smooth="yes"/>
      <point x="512.0" y="-362.0"/>
      <point x="499.11364208795993" y="-334.4772751805543"/>
      <point x="456.0" y="-316.0" type="curve" smooth="yes"/>
      <point x="412.0" y="-296.0"/>
      <point x="396.0" y="-276.0"/>
      <point x="396.0" y="-242.0" type="curve" smooth="yes"/>
      <point x="396.0" y="-210.0"/>
      <point x="410.0" y="-168.0"/>
      <point x="420.0" y="-130.0" type="curve" smooth="yes"/>
    </contour>
    <contour>
      <point x="248.0" y="600.0" type="curve" smooth="yes"/>
      <point x="294.0" y="600.0"/>
      <point x="332.0" y="626.0"/>
      <point x="368.0" y="654.0" type="curve" smooth="yes"/>
      <point x="485.9496704011998" y="751.8731307584424"/>
      <point x="576.0" y="802.0"/>
      <point x="724.0" y="802.0" type="curve" smooth="yes"/>
      <point x="848.0" y="802.0"/>
      <point x="926.0" y="710.0"/>
      <point x="926.0" y="548.0" type="curve" smooth="yes"/>
      <point x="926.0" y="292.0"/>
      <point x="790.0" y="138.0"/>
      <point x="626.0" y="138.0" type="curve" smooth="yes"/>
      <point x="526.0" y="138.0"/>
      <point x="469.85640874792995" y="167.95568094200974"/>
      <point x="412.0" y="294.0" type="curve"/>
      <point x="274.0" y="220.0" type="line"/>
      <point x="313.819264707401" y="66.69583087650622"/>
      <point x="418.44444444444446" y="-32.0"/>
      <point x="624.0" y="-32.0" type="curve" smooth="yes"/>
      <point x="934.6950354609928" y="-32.0"/>
      <point x="1216.0" y="234.0"/>
      <point x="1216.0" y="586.0" type="curve" smooth="yes"/>
      <point x="1216.0" y="828.0"/>
      <point x="1082.0" y="980.0"/>
      <point x="862.0" y="980.0" type="curve" smooth="yes"/>
      <point x="550.0" y="980.0"/>
      <point x="376.10378503764184" y="891.0456910882922"/>
      <point x="242.0" y="764.0" type="curve" smooth="yes"/>
      <point x="222.0" y="744.0"/>
      <point x="192.0" y="708.0"/>
      <point x="192.0" y="668.0" type="curve" smooth="yes"/>
      <point x="192.0" y="622.0"/>
      <point x="218.0" y="600.0"/>
    </contour>
  </outline>
</glyph>
<glyph name="t" format="2">
  <advance width="738"/>
  <unicode hex="0074"/>
  <outline>
    <contour>
      <point x="302.0" y="720.0" type="line" smooth="yes"/>
      <point x="324.0" y="702.0"/>
      <point x="338.0" y="686.0"/>
      <point x="338.0" y="648.0" type="curve" smooth="yes"/>
      <point x="338.0" y="624.1224489795918"/>
      <point x="327.044032824952" y="591.4569229697075"/>
      <point x="316.0" y="558.0" type="curve" smooth="yes"/>
      <point x="248.0" y="352.0" type="line" smooth="yes"/>
      <point x="208.0" y="228.0"/>
      <point x="192.0" y="182.0"/>
      <point x="192.0" y="126.0" type="curve" smooth="yes"/>
      <point x="192.0" y="34.0"/>
      <point x="270.0" y="-30.0"/>
      <point x="380.0" y="-30.0" type="curve" smooth="yes"/>
      <point x="648.0" y="-30.0"/>
      <point x="780.0" y="128.0"/>
      <point x="780.0" y="226.0" type="curve" smooth="yes"/>
      <point x="780.0" y="254.0"/>
      <point x="770.0" y="274.0"/>
      <point x="732.0" y="274.0" type="curve" smooth="yes"/>
      <point x="712.0" y="274.0"/>
      <point x="692.0" y="266.0"/>
      <point x="670.0" y="244.0" type="curve" smooth="yes"/>
      <point x="642.0" y="216.0"/>
      <point x="608.0" y="192.0"/>
      <point x="552.0" y="192.0" type="curve" smooth="yes"/>
      <point x="522.0" y="192.0"/>
      <point x="502.0" y="230.0"/>
      <point x="502.0" y="272.0" type="curve" smooth="yes"/>
      <point x="502.0" y="300.0"/>
      <point x="510.0" y="330.0"/>
      <point x="546.0" y="436.0" type="curve" smooth="yes"/>
      <point x="688.0" y="864.0" type="line" smooth="yes"/>
      <point x="721.5264281082319" y="965.0514875374877"/>
      <point x="754.0" y="1035.8947368421052"/>
      <point x="754.0" y="1094.0" type="curve" smooth="yes"/>
      <point x="754.0" y="1134.0"/>
      <point x="730.0" y="1164.0"/>
      <point x="692.0" y="1164.0" type="curve" smooth="yes"/>
      <point x="640.0" y="1164.0"/>
      <point x="592.0" y="1138.0"/>
      <point x="552.0" y="1096.0" type="curve" smooth="yes"/>
      <point x="440.0" y="974.0" type="line" smooth="yes"/>
      <point x="396.0" y="926.0"/>
      <point x="362.0" y="910.0"/>
      <point x="320.0" y="910.0" type="curve" smooth="yes"/>
      <point x="300.0" y="910.0" type="line" smooth="yes"/>
      <point x="248.0" y="910.0"/>
      <point x="210.0" y="876.0"/>
      <point x="210.0" y="838.0" type="curve" smooth="yes"/>
      <point x="210.0" y="800.0"/>
      <point x="226.0" y="778.0"/>
      <point x="258.0" y="754.0" type="curve" smooth="yes"/>
    </contour>
    <contour>
      <point x="536.0" y="752.0" type="line"/>
      <point x="536.0" y="752.0"/>
      <point x="770.0" y="752.0"/>
      <point x="814.0" y="752.0" type="curve" smooth="yes"/>
      <point x="878.0" y="752.0"/>
      <point x="924.0" y="780.0"/>
      <point x="926.0" y="844.0" type="curve" smooth="yes"/>
      <point x="928.0" y="886.0"/>
      <point x="910.0" y="910.0"/>
      <point x="860.0" y="910.0" type="curve" smooth="yes"/>
      <point x="828.0" y="910.0"/>
      <point x="592.0" y="910.0"/>
      <point x="592.0" y="910.0" type="curve"/>
    </contour>
  </outline>
</glyph>
<glyph name="x" format="2">
  <advance width="1240"/>
  <unicode hex="0078"/>
  <outline>
    <contour>
      <point x="410.0" y="142.0" type="curve" smooth="yes"/>
      <point x="376.0" y="142.0"/>
      <point x="356.0" y="162.0"/>
      <point x="356.0" y="186.0" type="curve" smooth="yes"/>
      <point x="356.0" y="214.0"/>
      <point x="370.0" y="246.0"/>
      <point x="370.0" y="268.0" type="curve" smooth="yes"/>
      <point x="370.0" y="338.0"/>
      <point x="322.0" y="382.0"/>
      <point x="250.0" y="382.0" type="curve" smooth="yes"/>
      <point x="158.0" y="382.0"/>
      <point x="80.0" y="312.0"/>
      <point x="80.0" y="194.0" type="curve" smooth="yes"/>
      <point x="80.0" y="82.0"/>
      <point x="156.0" y="-32.0"/>
      <point x="306.0" y="-32.0" type="curve" smooth="yes"/>
      <point x="484.0" y="-32.0"/>
      <point x="642.0" y="128.0"/>
      <point x="642.0" y="312.0" type="curve"/>
      <point x="616.0" y="312.0" type="line"/>
      <point x="616.0" y="70.0"/>
      <point x="708.0" y="-30.0"/>
      <point x="908.0" y="-30.0" type="curve" smooth="yes"/>
      <point x="1100.0" y="-30.0"/>
      <point x="1274.0" y="138.0"/>
      <point x="1274.0" y="268.0" type="curve" smooth="yes"/>
      <point x="1274.0" y="306.0"/>
      <point x="1252.2608695652175" y="332.0"/>
      <point x="1224.0" y="332.0" type="curve" smooth="yes"/>
      <point x="1188.0" y="332.0"/>
      <point x="1168.5132850223347" y="312.83992094563854"/>
      <point x="1146.0" y="276.0" type="curve" smooth="yes"/>
      <point x="1120.0" y="232.0"/>
      <point x="1078.8333333333333" y="192.0"/>
      <point x="1016.0" y="192.0" type="curve" smooth="yes"/>
      <point x="946.0" y="192.0"/>
      <point x="880.0" y="236.0"/>
      <point x="880.0" y="384.0" type="curve" smooth="yes"/>
      <point x="880.0" y="599.2380952380952"/>
      <point x="991.1016949152543" y="784.0"/>
      <point x="1110.0" y="784.0" type="curve" smooth="yes"/>
      <point x="1140.2222222222222" y="784.0"/>
      <point x="1158.0" y="764.0"/>
      <point x="1158.0" y="740.0" type="curve" smooth="yes"/>
      <point x="1158.0" y="714.0"/>
      <point x="1146.0" y="684.0"/>
      <point x="1146.0" y="664.0" type="curve" smooth="yes"/>
      <point x="1146.0" y="604.7659574468086"/>
      <point x="1189.5357142857142" y="568.0"/>
      <point x="1252.0" y="568.0" type="curve" smooth="yes"/>
      <point x="1346.6" y="568.0"/>
      <point x="1424.0" y="636.0"/>
      <point x="1424.0" y="754.0" type="curve" smooth="yes"/>
      <point x="1424.0" y="876.0"/>
      <point x="1350.0" y="980.0"/>
      <point x="1208.0" y="980.0" type="curve" smooth="yes"/>
      <point x="1022.0" y="980.0"/>
      <point x="848.0" y="794.0"/>
      <point x="848.0" y="594.0" type="curve"/>
      <point x="866.0" y="598.0" type="line"/>
      <point x="868.0" y="888.0"/>
      <point x="788.0" y="980.0"/>
      <point x="630.0" y="980.0" type="curve" smooth="yes"/>
      <point x="426.34285714285716" y="980.0"/>
      <point x="270.0" y="835.6910569105692"/>
      <point x="270.0" y="730.0" type="curve" smooth="yes"/>
      <point x="270.0" y="678.7692307692307"/>
      <point x="305.3103448275862" y="656.0"/>
      <point x="334.0" y="656.0" type="curve" smooth="yes"/>
      <point x="370.1463414634147" y="656.0"/>
      <point x="392.0" y="682.0"/>
      <point x="412.0" y="710.0" type="curve" smooth="yes"/>
      <point x="446.0" y="758.0"/>
      <point x="480.0" y="782.0"/>
      <point x="522.0" y="782.0" type="curve" smooth="yes"/>
      <point x="574.0" y="782.0"/>
      <point x="610.0" y="736.0"/>
      <point x="610.0" y="580.0" type="curve" smooth="yes"/>
      <point x="610.0" y="314.0"/>
      <point x="512.0" y="142.0"/>
    </contour>
  </outline>
</glyph>
<glyph name="braceright" format="2">
  <advance width="878"/>
  <unicode hex="007D"/>
  <outline>
    <contour>
      <point x="506.0" y="554.0" type="curve" smooth="yes"/>
      <point x="500.0" y="534.0"/>
      <point x="478.0" y="516.0"/>
      <point x="452.0" y="516.0" type="curve" smooth="yes"/>
      <point x="386.0" y="516.0"/>
      <point x="324.0" y="448.0"/>
      <point x="298.0" y="352.0" type="curve" smooth="yes"/>
      <point x="258.0" y="202.0"/>
      <point x="320.0" y="72.0"/>
      <point x="284.0" y="-64.0" type="curve" smooth="yes"/>
      <point x="256.0" y="-166.0"/>
      <point x="154.0" y="-248.0"/>
      <point x="58.0" y="-248.0" type="curve" smooth="yes"/>
      <point x="18.0" y="-248.0" type="line" smooth="yes"/>
      <point x="-34.0" y="-248.0"/>
      <point x="-74.0" y="-272.0"/>
      <point x="-86.0" y="-314.0" type="curve" smooth="yes"/>
      <point x="-96.0" y="-350.0"/>
      <point x="-76.0" y="-378.0"/>
      <point x="-20.0" y="-378.0" type="curve" smooth="yes"/>
      <point x="124.0" y="-378.0" type="line" smooth="yes"/>
      <point x="346.0" y="-378.0"/>
      <point x="538.0" y="-252.0"/>
      <point x="586.0" y="-68.0" type="curve" smooth="yes"/>
      <point x="634.0" y="108.0"/>
      <point x="486.0" y="222.0"/>
      <point x="524.0" y="364.0" type="curve" smooth="yes"/>
      <point x="540.0" y="424.0"/>
      <point x="600.0" y="458.0"/>
      <point x="652.0" y="460.0" type="curve" smooth="yes"/>
      <point x="712.0" y="460.0"/>
      <point x="718.0" y="420.0"/>
      <point x="780.0" y="420.0" type="curve" smooth="yes"/>
      <point x="838.0" y="420.0"/>
      <point x="904.0" y="482.0"/>
      <point x="922.0" y="552.0" type="curve" smooth="yes"/>
      <point x="942.0" y="628.0"/>
      <point x="914.0" y="684.0"/>
      <point x="850.0" y="684.0" type="curve" smooth="yes"/>
      <point x="782.0" y="684.0"/>
      <point x="746.0" y="644.0"/>
      <point x="698.0" y="644.0" type="curve" smooth="yes"/>
      <point x="644.0" y="646.0"/>
      <point x="612.0" y="688.0"/>
      <point x="628.0" y="750.0" type="curve" smooth="yes"/>
      <point x="664.0" y="884.0"/>
      <point x="874.0" y="1002.0"/>
      <point x="924.0" y="1192.0" type="curve" smooth="yes"/>
      <point x="972.0" y="1372.0"/>
      <point x="850.0" y="1502.0"/>
      <point x="628.0" y="1502.0" type="curve" smooth="yes"/>
      <point x="484.0" y="1502.0" type="line" smooth="yes"/>
      <point x="428.0" y="1502.0"/>
      <point x="392.0" y="1466.0"/>
      <point x="384.0" y="1438.0" type="curve" smooth="yes"/>
      <point x="372.0" y="1390.0"/>
      <point x="400.0" y="1372.0"/>
      <point x="452.0" y="1372.0" type="curve" smooth="yes"/>
      <point x="492.0" y="1372.0" type="line" smooth="yes"/>
      <point x="588.0" y="1372.0"/>
      <point x="646.0" y="1288.0"/>
      <point x="620.0" y="1188.0" type="curve" smooth="yes"/>
      <point x="580.0" y="1042.0"/>
      <point x="446.0" y="904.0"/>
      <point x="408.0" y="760.0" type="curve" smooth="yes"/>
      <point x="384.0" y="668.0"/>
      <point x="402.0" y="592.0"/>
      <point x="474.0" y="592.0" type="curve" smooth="yes"/>
      <point x="500.0" y="592.0"/>
      <point x="512.0" y="580.0"/>
    </contour>
  </outline>
</glyph>
<glyph name="cent" format="2">
  <advance width="892"/>
  <unicode hex="00A2"/>
  <outline>
    <contour>
      <point x="398.0" y="80.0" type="curve" smooth="yes"/>
      <point x="376.0" y="2.0"/>
      <point x="414.0" y="-32.0"/>
      <point x="468.0" y="-32.0" type="curve" smooth="yes"/>
      <point x="526.0" y="-32.0"/>
      <point x="582.0" y="14.0"/>
      <point x="600.0" y="80.0" type="curve" smooth="yes"/>
      <point x="618.0" y="152.0"/>
      <point x="580.0" y="238.0"/>
      <point x="698.0" y="676.0" type="curve" smooth="yes"/>
      <point x="804.0" y="1076.0"/>
      <point x="896.0" y="1152.0"/>
      <point x="914.0" y="1218.0" type="curve" smooth="yes"/>
      <point x="934.0" y="1294.0"/>
      <point x="892.0" y="1330.0"/>
      <point x="842.0" y="1330.0" type="curve" smooth="yes"/>
      <point x="786.0" y="1330.0"/>
      <point x="728.0" y="1296.0"/>
      <point x="708.0" y="1222.0" type="curve" smooth="yes"/>
      <point x="692.0" y="1162.0"/>
      <point x="744.0" y="1084.0"/>
      <point x="636.0" y="676.0" type="curve" smooth="yes"/>
      <point x="518.0" y="242.0"/>
      <point x="416.0" y="152.0"/>
    </contour>
    <contour>
      <point x="1060.0" y="852.0" type="curve" smooth="yes"/>
      <point x="1098.0" y="996.0"/>
      <point x="1000.0" y="1094.0"/>
      <point x="816.0" y="1094.0" type="curve" smooth="yes"/>
      <point x="542.0" y="1094.0"/>
      <point x="302.0" y="904.0"/>
      <point x="230.0" y="636.0" type="curve" smooth="yes"/>
      <point x="166.0" y="398.0"/>
      <point x="300.0" y="234.0"/>
      <point x="538.0" y="234.0" type="curve" smooth="yes"/>
      <point x="728.0" y="234.0"/>
      <point x="910.0" y="348.0"/>
      <point x="946.0" y="482.0" type="curve" smooth="yes"/>
      <point x="954.0" y="518.0"/>
      <point x="942.0" y="544.0"/>
      <point x="918.0" y="544.0" type="curve" smooth="yes"/>
      <point x="898.0" y="544.0"/>
      <point x="874.0" y="534.0"/>
      <point x="832.0" y="502.0" type="curve" smooth="yes"/>
      <point x="790.0" y="468.0"/>
      <point x="730.0" y="448.0"/>
      <point x="650.0" y="448.0" type="curve" smooth="yes"/>
      <point x="522.0" y="448.0"/>
      <point x="452.0" y="560.0"/>
      <point x="494.0" y="720.0" type="curve" smooth="yes"/>
      <point x="532.0" y="856.0"/>
      <point x="628.0" y="964.0"/>
      <point x="734.0" y="964.0" type="curve" smooth="yes"/>
      <point x="806.0" y="964.0"/>
      <point x="840.0" y="930.0"/>
      <point x="826.0" y="882.0" type="curve" smooth="yes"/>
      <point x="820.0" y="856.0" type="line" smooth="yes"/>
      <point x="798.0" y="776.0"/>
      <point x="834.0" y="716.0"/>
      <point x="906.0" y="716.0" type="curve" smooth="yes"/>
      <point x="974.0" y="716.0"/>
      <point x="1040.0" y="776.0"/>
    </contour>
  </outline>
</glyph>
<glyph name="currency" format="2">
  <advance width="534"/>
  <unicode hex="00A4"/>
  <outline>
    <contour>
      <point x="302" y="136" type="curve" smooth="yes"/>
      <point x="198" y="136"/>
      <point x="138" y="224"/>
      <point x="165" y="326" type="curve" smooth="yes"/>
      <point x="193" y="429"/>
      <point x="300" y="514"/>
      <point x="404" y="514" type="curve" smooth="yes"/>
      <point x="510" y="514"/>
      <point x="570" y="429"/>
      <point x="542" y="326" type="curve" smooth="yes"/>
      <point x="515" y="224"/>
      <point x="408" y="136"/>
    </contour>
    <contour>
      <point x="328" y="226" type="curve" smooth="yes"/>
      <point x="381" y="226"/>
      <point x="438" y="270"/>
      <point x="453" y="326" type="curve" smooth="yes"/>
      <point x="468" y="382"/>
      <point x="434" y="425"/>
      <point x="381" y="425" type="curve" smooth="yes"/>
      <point x="325" y="425"/>
      <point x="271" y="382"/>
      <point x="256" y="326" type="curve" smooth="yes"/>
      <point x="241" y="270"/>
      <point x="272" y="226"/>
    </contour>
    <contour>
      <point x="487" y="441" type="line"/>
      <point x="531" y="483"/>
      <point x="555" y="509"/>
      <point x="573" y="522" type="curve"/>
      <point x="605" y="549"/>
      <point x="624" y="546"/>
      <point x="633" y="533" type="curve" smooth="yes"/>
      <point x="641" y="520"/>
      <point x="639" y="500"/>
      <point x="608" y="476" type="curve" smooth="yes"/>
      <point x="590" y="461"/>
      <point x="559" y="445"/>
      <point x="509" y="412" type="curve"/>
    </contour>
    <contour>
      <point x="242" y="410" type="line"/>
      <point x="210" y="442"/>
      <point x="189" y="457"/>
      <point x="180" y="470" type="curve" smooth="yes"/>
      <point x="161" y="495"/>
      <point x="171" y="520"/>
      <point x="187" y="533" type="curve" smooth="yes"/>
      <point x="203" y="547"/>
      <point x="225" y="549"/>
      <point x="244" y="523" type="curve"/>
      <point x="253" y="509"/>
      <point x="262" y="484"/>
      <point x="283" y="444" type="curve"/>
    </contour>
    <contour>
      <point x="101" y="173" type="curve" smooth="yes"/>
      <point x="120" y="187"/>
      <point x="150" y="204"/>
      <point x="201" y="238" type="curve"/>
      <point x="221" y="210" type="line"/>
      <point x="176" y="168"/>
      <point x="152" y="142"/>
      <point x="134" y="127" type="curve" smooth="yes"/>
      <point x="106" y="102"/>
      <point x="84" y="105"/>
      <point x="75" y="117" type="curve" smooth="yes"/>
      <point x="67" y="129"/>
      <point x="69" y="149"/>
    </contour>
    <contour>
      <point x="525" y="173" type="curve" smooth="yes"/>
      <point x="545" y="151"/>
      <point x="537" y="129"/>
      <point x="521" y="117" type="curve" smooth="yes"/>
      <point x="506" y="105"/>
      <point x="482" y="103"/>
      <point x="468" y="128" type="curve" smooth="yes"/>
      <point x="459" y="141"/>
      <point x="450" y="167"/>
      <point x="427" y="206" type="curve"/>
      <point x="464" y="236" type="line"/>
      <point x="494" y="203"/>
      <point x="515" y="185"/>
    </contour>
  </outline>
</glyph>
<glyph name="yen" format="2">
  <advance width="1178"/>
  <unicode hex="00A5"/>
  <outline>
    <contour>
      <point x="232.0" y="484.0" type="curve" smooth="yes"/>
      <point x="184.0" y="484.0"/>
      <point x="152.0" y="450.0"/>
      <point x="142.0" y="416.0" type="curve" smooth="yes"/>
      <point x="134.0" y="388.0"/>
      <point x="150.0" y="362.0"/>
      <point x="196.0" y="362.0" type="curve" smooth="yes"/>
      <point x="247.82258064516128" y="362.0"/>
      <point x="320.758064516129" y="386.0"/>
      <point x="672.0" y="386.0" type="curve" smooth="yes"/>
      <point x="1037.2140077821011" y="386.0"/>
      <point x="1106.4124513618676" y="370.0"/>
      <point x="1166.0" y="370.0" type="curve" smooth="yes"/>
      <point x="1216.0" y="370.0"/>
      <point x="1246.0" y="396.0"/>
      <point x="1252.0" y="424.0" type="curve" smooth="yes"/>
      <point x="1262.0" y="462.0"/>
      <point x="1246.0" y="488.0"/>
      <point x="1198.0" y="490.0" type="curve" smooth="yes"/>
      <point x="1138.3549155367082" y="491.9240349826868"/>
      <point x="1059.4752851711028" y="460.0"/>
      <point x="692.0" y="460.0" type="curve" smooth="yes"/>
      <point x="347.0" y="460.0"/>
      <point x="291.4166666666667" y="484.0"/>
    </contour>
    <contour>
      <point x="286.0" y="686.0" type="curve" smooth="yes"/>
      <point x="238.0" y="686.0"/>
      <point x="206.0" y="652.0"/>
      <point x="196.0" y="618.0" type="curve" smooth="yes"/>
      <point x="190.0" y="590.0"/>
      <point x="204.0" y="564.0"/>
      <point x="250.0" y="564.0" type="curve" smooth="yes"/>
      <point x="297.59615384615387" y="564.0"/>
      <point x="362.32427707006735" y="584.1922721754371"/>
      <point x="646.0" y="588.0" type="curve"/>
      <point x="628.0" y="662.0" type="line"/>
      <point x="386.1356544204742" y="667.6686955995201"/>
      <point x="337.01657458563534" y="686.0"/>
    </contour>
    <contour>
      <point x="870.0" y="586.0" type="line"/>
      <point x="1101.7083806873388" y="581.1727420690138"/>
      <point x="1165.8064516129032" y="572.0"/>
      <point x="1220.0" y="572.0" type="curve" smooth="yes"/>
      <point x="1270.0" y="572.0"/>
      <point x="1300.0" y="598.0"/>
      <point x="1306.0" y="626.0" type="curve" smooth="yes"/>
      <point x="1316.0" y="664.0"/>
      <point x="1300.0" y="690.0"/>
      <point x="1252.0" y="692.0" type="curve" smooth="yes"/>
      <point x="1201.5861087434964" y="694.2915405116593"/>
      <point x="1140.6569620875364" y="677.8857054676847"/>
      <point x="938.0" y="668.0" type="curve"/>
    </contour>
    <contour>
      <point x="782.8733376050377" y="507.45883097716245" type="curve"/>
      <point x="803.1716908441242" y="479.7792583784081" type="line"/>
      <point x="805.6831057238161" y="487.31350301748375"/>
      <point x="803.1716908441242" y="546.7503218368576"/>
      <point x="803.1716908441242" y="594.1881584532592" type="curve" smooth="yes"/>
      <point x="803.1716908441242" y="863.2004832570501"/>
      <point x="760.0968233374608" y="1109.3463890092842"/>
      <point x="699.8346198087748" y="1206.829365305688" type="curve" smooth="yes"/>
      <point x="652.561199117693" y="1282.4668384114188"/>
      <point x="587.6653204798058" y="1319.3929605406222"/>
      <point x="465.48090513932164" y="1319.3929605406222" type="curve" smooth="yes"/>
      <point x="349.2267002245535" y="1319.3929605406222"/>
      <point x="293.8675550270449" y="1294.6884712552035"/>
      <point x="293.8675550270449" y="1243.7354621040272" type="curve" smooth="yes"/>
      <point x="293.8675550270449" y="1206.7454878129647"/>
      <point x="318.1544873993678" y="1178.964506478771"/>
      <point x="363.98913894388915" y="1166.232658827515" type="curve" smooth="yes"/>
      <point x="486.9156850483189" y="1132.5541530454796"/>
      <point x="557.7461471351693" y="909.9373655716141"/>
      <point x="557.7461471351693" y="507.45883097716245" type="curve" smooth="yes"/>
      <point x="557.7461471351693" y="437.33724706031813"/>
      <point x="550.3161178607967" y="389.1640815636579"/>
      <point x="539.2930987359998" y="345.07200506447043" type="curve" smooth="yes"/>
      <point x="515.3041358170794" y="249.11615338878883" type="line" smooth="yes"/>
      <point x="500.54169709774374" y="188.22109367152933"/>
      <point x="463.63560029940464" y="153.1603017131072"/>
      <point x="410.12175994181297" y="142.08847267360548" type="curve" smooth="yes"/>
      <point x="371.37035830355694" y="134.70725331393766" type="line" smooth="yes"/>
      <point x="327.08304214555005" y="125.4807291143529"/>
      <point x="295.7128598669618" y="101.49176619543249"/>
      <point x="295.7128598669618" y="62.74036455717645" type="curve" smooth="yes"/>
      <point x="295.7128598669618" y="20.298353239086495"/>
      <point x="312.3206034262144" y="0.0"/>
      <point x="360.2985292640552" y="0.0" type="curve" smooth="yes"/>
      <point x="889.901018320221" y="0.0" type="line" smooth="yes"/>
      <point x="937.8789441580619" y="0.0"/>
      <point x="971.0944312765671" y="18.453048399169543"/>
      <point x="971.0944312765671" y="62.74036455717645" type="curve" smooth="yes"/>
      <point x="971.0944312765671" y="99.64646135551553"/>
      <point x="958.1772973971484" y="103.33707103534944"/>
      <point x="913.8899812391415" y="121.79011943451899" type="curve" smooth="yes"/>
      <point x="880.6744941206363" y="136.55255815385462" type="line" smooth="yes"/>
      <point x="838.2324828025464" y="155.00560655302417"/>
      <point x="825.3153489231277" y="212.21005659044974"/>
      <point x="834.5418731227124" y="263.87859210812445" type="curve" smooth="yes"/>
      <point x="849.3043118420482" y="350.6079195842213" type="line" smooth="yes"/>
      <point x="862.2214457214668" y="424.4201131808995"/>
      <point x="880.6744941206363" y="522.2212696964981"/>
      <point x="972.939736116484" y="688.2987052890239" type="curve" smooth="yes"/>
      <point x="1092.8845507110861" y="900.5087618794737"/>
      <point x="1197.474116739131" y="1042.5972345530793"/>
      <point x="1244.1995475842764" y="1042.5972345530793" type="curve" smooth="yes"/>
      <point x="1288.4868637422833" y="1042.5972345530793"/>
      <point x="1323.5476557007053" y="1009.381747434574"/>
      <point x="1378.906800898214" y="1009.381747434574" type="curve" smooth="yes"/>
      <point x="1465.6361283743108" y="1009.381747434574"/>
      <point x="1541.293626810906" y="1072.1221119917504"/>
      <point x="1541.293626810906" y="1158.8514394678473" type="curve" smooth="yes"/>
      <point x="1541.293626810906" y="1238.1995475842764"/>
      <point x="1491.4703961331481" y="1319.3929605406222"/>
      <point x="1382.5974105780479" y="1319.3929605406222" type="curve" smooth="yes"/>
      <point x="1210.984060465771" y="1319.3929605406222"/>
      <point x="1004.3099183950723" y="1110.8735136300065"/>
    </contour>
  </outline>
</glyph>
<glyph name="brokenbar" format="2">
  <advance width="346"/>
  <unicode hex="00A6"/>
  <outline>
    <contour>
      <point x="56" y="-165" type="curve" smooth="yes"/>
      <point x="41" y="-221"/>
      <point x="70" y="-245"/>
      <point x="107" y="-245" type="curve" smooth="yes"/>
      <point x="145" y="-245"/>
      <point x="187" y="-221"/>
      <point x="202" y="-165" type="curve" smooth="yes"/>
      <point x="213" y="-121"/>
      <point x="193" y="-74"/>
      <point x="256" y="159" type="curve" smooth="yes"/>
      <point x="265" y="193"/>
      <point x="256" y="207"/>
      <point x="228" y="207" type="curve" smooth="yes"/>
      <point x="200" y="207"/>
      <point x="185" y="193"/>
      <point x="176" y="159" type="curve" smooth="yes"/>
      <point x="113" y="-74"/>
      <point x="67" y="-121"/>
    </contour>
    <contour>
      <point x="284" y="686" type="curve" smooth="yes"/>
      <point x="272" y="643"/>
      <point x="292" y="595"/>
      <point x="230" y="362" type="curve" smooth="yes"/>
      <point x="221" y="328"/>
      <point x="229" y="314"/>
      <point x="257" y="314" type="curve" smooth="yes"/>
      <point x="285" y="314"/>
      <point x="301" y="328"/>
      <point x="310" y="362" type="curve" smooth="yes"/>
      <point x="372" y="595"/>
      <point x="418" y="643"/>
      <point x="430" y="686" type="curve" smooth="yes"/>
      <point x="445" y="742"/>
      <point x="422" y="766"/>
      <point x="378" y="766" type="curve" smooth="yes"/>
      <point x="336" y="766"/>
      <point x="299" y="742"/>
    </contour>
  </outline>
</glyph>
<glyph name="section" format="2">
  <advance width="532"/>
  <unicode hex="00A7"/>
  <outline>
    <contour>
      <point x="394" y="35" type="line"/>
      <point x="489" y="71"/>
      <point x="548" y="141"/>
      <point x="548" y="220" type="curve" smooth="yes"/>
      <point x="548" y="295"/>
      <point x="510" y="345"/>
      <point x="428" y="398" type="curve" smooth="yes"/>
      <point x="357" y="443"/>
      <point x="319" y="487"/>
      <point x="319" y="543" type="curve" smooth="yes"/>
      <point x="319" y="596"/>
      <point x="369" y="645"/>
      <point x="432" y="645" type="curve" smooth="yes"/>
      <point x="471" y="645"/>
      <point x="494" y="624"/>
      <point x="505" y="585" type="curve" smooth="yes"/>
      <point x="518" y="537" type="line" smooth="yes"/>
      <point x="530" y="493"/>
      <point x="555" y="482"/>
      <point x="590" y="482" type="curve" smooth="yes"/>
      <point x="632" y="482"/>
      <point x="660" y="517"/>
      <point x="660" y="569" type="curve" smooth="yes"/>
      <point x="660" y="643"/>
      <point x="591" y="713"/>
      <point x="461" y="713" type="curve" smooth="yes"/>
      <point x="288" y="713"/>
      <point x="190" y="613"/>
      <point x="190" y="503" type="curve" smooth="yes"/>
      <point x="190" y="426"/>
      <point x="228" y="368"/>
      <point x="315" y="310" type="curve" smooth="yes"/>
      <point x="383" y="263"/>
      <point x="416" y="228"/>
      <point x="416" y="176" type="curve" smooth="yes"/>
      <point x="416" y="134"/>
      <point x="390" y="98"/>
      <point x="352" y="86" type="curve"/>
    </contour>
    <contour>
      <point x="229" y="-174" type="curve" smooth="yes"/>
      <point x="195" y="-174"/>
      <point x="167" y="-154"/>
      <point x="155" y="-113" type="curve" smooth="yes"/>
      <point x="146" y="-81" type="line" smooth="yes"/>
      <point x="132" y="-32"/>
      <point x="106" y="-12"/>
      <point x="70" y="-12" type="curve" smooth="yes"/>
      <point x="30" y="-12"/>
      <point x="-2" y="-44"/>
      <point x="-2" y="-100" type="curve" smooth="yes"/>
      <point x="-2" y="-178"/>
      <point x="70" y="-244"/>
      <point x="198" y="-244" type="curve" smooth="yes"/>
      <point x="358" y="-244"/>
      <point x="463" y="-159"/>
      <point x="463" y="-42" type="curve" smooth="yes"/>
      <point x="463" y="40"/>
      <point x="418" y="88"/>
      <point x="328" y="150" type="curve" smooth="yes"/>
      <point x="258" y="199"/>
      <point x="227" y="232"/>
      <point x="227" y="284" type="curve" smooth="yes"/>
      <point x="227" y="325"/>
      <point x="257" y="362"/>
      <point x="298" y="374" type="curve"/>
      <point x="259" y="422" type="line"/>
      <point x="164" y="385"/>
      <point x="105" y="311"/>
      <point x="105" y="230" type="curve" smooth="yes"/>
      <point x="105" y="155"/>
      <point x="146" y="108"/>
      <point x="225" y="52" type="curve" smooth="yes"/>
      <point x="300" y="-1"/>
      <point x="326" y="-35"/>
      <point x="326" y="-88" type="curve" smooth="yes"/>
      <point x="326" y="-138"/>
      <point x="282" y="-174"/>
    </contour>
  </outline>
</glyph>
<glyph name="copyright" format="2">
  <advance width="785"/>
  <unicode hex="00A9"/>
  <outline>
    <contour>
      <point x="388" y="-15" type="curve" smooth="yes"/>
      <point x="190" y="-15"/>
      <point x="88" y="132"/>
      <point x="141" y="330" type="curve" smooth="yes"/>
      <point x="194" y="527"/>
      <point x="375" y="670"/>
      <point x="572" y="670" type="curve" smooth="yes"/>
      <point x="770" y="670"/>
      <point x="873" y="528"/>
      <point x="820" y="330" type="curve" smooth="yes"/>
      <point x="767" y="131"/>
      <point x="587" y="-15"/>
    </contour>
    <contour>
      <point x="401" y="35" type="curve" smooth="yes"/>
      <point x="570" y="35"/>
      <point x="725" y="161"/>
      <point x="770" y="330" type="curve" smooth="yes"/>
      <point x="815" y="498"/>
      <point x="726" y="620"/>
      <point x="558" y="620" type="curve" smooth="yes"/>
      <point x="389" y="620"/>
      <point x="237" y="499"/>
      <point x="191" y="330" type="curve" smooth="yes"/>
      <point x="146" y="160"/>
      <point x="231" y="35"/>
    </contour>
    <contour>
      <point x="526" y="113"/>
      <point x="617" y="179"/>
      <point x="633" y="239" type="curve" smooth="yes"/>
      <point x="636" y="249"/>
      <point x="633" y="257"/>
      <point x="626" y="257" type="curve" smooth="yes"/>
      <point x="619" y="257"/>
      <point x="613" y="255"/>
      <point x="600" y="241" type="curve" smooth="yes"/>
      <point x="571" y="213"/>
      <point x="523" y="194"/>
      <point x="483" y="194" type="curve" smooth="yes"/>
      <point x="403" y="194"/>
      <point x="365" y="257"/>
      <point x="388" y="345" type="curve" smooth="yes"/>
      <point x="413" y="435"/>
      <point x="471" y="488"/>
      <point x="531" y="488" type="curve" smooth="yes"/>
      <point x="570" y="488"/>
      <point x="601" y="472"/>
      <point x="621" y="423" type="curve" smooth="yes"/>
      <point x="629" y="404"/>
      <point x="639" y="399"/>
      <point x="650" y="399" type="curve" smooth="yes"/>
      <point x="663" y="399"/>
      <point x="674" y="407"/>
      <point x="677" y="418" type="curve" smooth="yes"/>
      <point x="679" y="425"/>
      <point x="679" y="430"/>
      <point x="679" y="447" type="curve" smooth="yes"/>
      <point x="676" y="509" type="line" smooth="yes"/>
      <point x="676" y="536"/>
      <point x="671" y="545"/>
      <point x="658" y="545" type="curve" smooth="yes"/>
      <point x="642" y="545"/>
      <point x="636" y="530"/>
      <point x="618" y="530" type="curve" smooth="yes"/>
      <point x="606" y="530"/>
      <point x="589" y="543"/>
      <point x="553" y="543" type="curve" smooth="yes"/>
      <point x="431" y="543"/>
      <point x="319" y="452"/>
      <point x="284" y="322" type="curve" smooth="yes"/>
      <point x="251" y="199"/>
      <point x="307" y="113"/>
      <point x="430" y="113" type="curve" smooth="yes"/>
    </contour>
  </outline>
</glyph>
<glyph name="guillemetleft" format="2">
  <advance width="1220"/>
  <unicode hex="00AB"/>
  <outline>
    <contour>
      <point x="242.0" y="496.0" type="curve" smooth="yes"/>
      <point x="236.0" y="470.0"/>
      <point x="234.0" y="432.0"/>
      <point x="282.0" y="406.0" type="curve" smooth="yes"/>
      <point x="372.0" y="356.0"/>
      <point x="464.0" y="254.0"/>
      <point x="512.0" y="152.0" type="curve" smooth="yes"/>
      <point x="532.0" y="112.0"/>
      <point x="556.0" y="98.0"/>
      <point x="582.0" y="98.0" type="curve" smooth="yes"/>
      <point x="614.0" y="98.0"/>
      <point x="640.0" y="118.0"/>
      <point x="648.0" y="152.0" type="curve" smooth="yes"/>
      <point x="658.0" y="186.0"/>
      <point x="646.0" y="212.0"/>
      <point x="632.0" y="258.0" type="curve" smooth="yes"/>
      <point x="596.0" y="362.0"/>
      <point x="556.0" y="458.0"/>
      <point x="500.0" y="544.0" type="curve"/>
      <point x="478.0" y="466.0" type="line"/>
      <point x="582.0" y="556.0"/>
      <point x="676.0" y="642.0"/>
      <point x="756.0" y="734.0" type="curve" smooth="yes"/>
      <point x="796.0" y="780.0"/>
      <point x="824.0" y="806.0"/>
      <point x="834.0" y="840.0" type="curve" smooth="yes"/>
      <point x="842.0" y="874.0"/>
      <point x="830.0" y="894.0"/>
      <point x="806.0" y="894.0" type="curve" smooth="yes"/>
      <point x="778.0" y="894.0"/>
      <point x="748.0" y="878.0"/>
      <point x="706.0" y="838.0" type="curve" smooth="yes"/>
      <point x="598.0" y="730.0"/>
      <point x="440.0" y="630.0"/>
      <point x="332.0" y="586.0" type="curve" smooth="yes"/>
      <point x="270.0" y="562.0"/>
      <point x="250.0" y="522.0"/>
    </contour>
    <contour>
      <point x="694.0" y="496.0" type="curve" smooth="yes"/>
      <point x="688.0" y="470.0"/>
      <point x="686.0" y="432.0"/>
      <point x="734.0" y="406.0" type="curve" smooth="yes"/>
      <point x="824.0" y="356.0"/>
      <point x="916.0" y="254.0"/>
      <point x="964.0" y="152.0" type="curve" smooth="yes"/>
      <point x="984.0" y="112.0"/>
      <point x="1008.0" y="98.0"/>
      <point x="1034.0" y="98.0" type="curve" smooth="yes"/>
      <point x="1066.0" y="98.0"/>
      <point x="1092.0" y="118.0"/>
      <point x="1100.0" y="152.0" type="curve" smooth="yes"/>
      <point x="1110.0" y="186.0"/>
      <point x="1098.0" y="212.0"/>
      <point x="1084.0" y="258.0" type="curve" smooth="yes"/>
      <point x="1048.0" y="362.0"/>
      <point x="1008.0" y="458.0"/>
      <point x="952.0" y="544.0" type="curve"/>
      <point x="930.0" y="466.0" type="line"/>
      <point x="1034.0" y="556.0"/>
      <point x="1128.0" y="642.0"/>
      <point x="1208.0" y="734.0" type="curve" smooth="yes"/>
      <point x="1248.0" y="780.0"/>
      <point x="1276.0" y="806.0"/>
      <point x="1286.0" y="840.0" type="curve" smooth="yes"/>
      <point x="1294.0" y="874.0"/>
      <point x="1282.0" y="894.0"/>
      <point x="1258.0" y="894.0" type="curve" smooth="yes"/>
      <point x="1230.0" y="894.0"/>
      <point x="1200.0" y="878.0"/>
      <point x="1158.0" y="838.0" type="curve" smooth="yes"/>
      <point x="1050.0" y="730.0"/>
      <point x="892.0" y="630.0"/>
      <point x="784.0" y="586.0" type="curve" smooth="yes"/>
      <point x="722.0" y="562.0"/>
      <point x="702.0" y="522.0"/>
    </contour>
  </outline>
</glyph>
<glyph name="registered" format="2">
  <advance width="555"/>
  <unicode hex="00AE"/>
  <outline>
    <contour>
      <point x="325" y="181" type="curve" smooth="yes"/>
      <point x="184" y="181"/>
      <point x="114" y="286"/>
      <point x="151" y="427" type="curve" smooth="yes"/>
      <point x="189" y="566"/>
      <point x="316" y="665"/>
      <point x="455" y="665" type="curve" smooth="yes"/>
      <point x="594" y="665"/>
      <point x="670" y="566"/>
      <point x="632" y="427" type="curve" smooth="yes"/>
      <point x="595" y="286"/>
      <point x="466" y="181"/>
    </contour>
    <contour>
      <point x="336" y="221" type="curve" smooth="yes"/>
      <point x="454" y="221"/>
      <point x="561" y="309"/>
      <point x="592" y="427" type="curve" smooth="yes"/>
      <point x="623" y="542"/>
      <point x="559" y="625"/>
      <point x="444" y="625" type="curve" smooth="yes"/>
      <point x="328" y="625"/>
      <point x="222" y="543"/>
      <point x="191" y="427" type="curve" smooth="yes"/>
      <point x="160" y="309"/>
      <point x="218" y="221"/>
    </contour>
    <contour>
      <point x="529" y="468" type="curve" smooth="yes"/>
      <point x="545" y="527"/>
      <point x="495" y="565"/>
      <point x="415" y="565" type="curve" smooth="yes"/>
      <point x="312" y="565" type="line" smooth="yes"/>
      <point x="303" y="565"/>
      <point x="297" y="559"/>
      <point x="294" y="550" type="curve" smooth="yes"/>
      <point x="292" y="542"/>
      <point x="295" y="537"/>
      <point x="303" y="535" type="curve" smooth="yes"/>
      <point x="312" y="533" type="line" smooth="yes"/>
      <point x="321" y="531"/>
      <point x="324" y="524"/>
      <point x="322" y="515" type="curve" smooth="yes"/>
      <point x="275" y="341" type="line" smooth="yes"/>
      <point x="273" y="332"/>
      <point x="267" y="327"/>
      <point x="256" y="324" type="curve" smooth="yes"/>
      <point x="246" y="321" type="line" smooth="yes"/>
      <point x="236" y="318"/>
      <point x="231" y="314"/>
      <point x="229" y="306" type="curve" smooth="yes"/>
      <point x="227" y="297"/>
      <point x="230" y="292"/>
      <point x="239" y="292" type="curve" smooth="yes"/>
      <point x="351" y="292" type="line" smooth="yes"/>
      <point x="360" y="292"/>
      <point x="366" y="297"/>
      <point x="368" y="306" type="curve" smooth="yes"/>
      <point x="370" y="313"/>
      <point x="367" y="318"/>
      <point x="361" y="320" type="curve" smooth="yes"/>
      <point x="351" y="324" type="line" smooth="yes"/>
      <point x="345" y="326"/>
      <point x="343" y="331"/>
      <point x="345" y="341" type="curve" smooth="yes"/>
      <point x="396" y="531" type="line"/>
      <point x="404" y="531" type="line" smooth="yes"/>
      <point x="442" y="531"/>
      <point x="462" y="506"/>
      <point x="452" y="470" type="curve" smooth="yes"/>
      <point x="444" y="440"/>
      <point x="417" y="418"/>
      <point x="386" y="418" type="curve" smooth="yes"/>
      <point x="365" y="418"/>
      <point x="354" y="421"/>
      <point x="341" y="429" type="curve"/>
      <point x="328" y="397" type="line"/>
      <point x="345" y="388"/>
      <point x="359" y="383"/>
      <point x="391" y="383" type="curve" smooth="yes"/>
      <point x="460" y="383"/>
      <point x="516" y="417"/>
    </contour>
    <contour>
      <point x="378" y="398" type="line"/>
      <point x="404" y="340" type="line" smooth="yes"/>
      <point x="406" y="336"/>
      <point x="407" y="333"/>
      <point x="406" y="328" type="curve" smooth="yes"/>
      <point x="405" y="325"/>
      <point x="403" y="322"/>
      <point x="398" y="320" type="curve" smooth="yes"/>
      <point x="391" y="318"/>
      <point x="387" y="313"/>
      <point x="385" y="305" type="curve" smooth="yes"/>
      <point x="383" y="297"/>
      <point x="386" y="292"/>
      <point x="396" y="292" type="curve" smooth="yes"/>
      <point x="486" y="292" type="line" smooth="yes"/>
      <point x="495" y="292"/>
      <point x="501" y="297"/>
      <point x="503" y="306" type="curve" smooth="yes"/>
      <point x="505" y="313"/>
      <point x="502" y="317"/>
      <point x="498" y="320" type="curve" smooth="yes"/>
      <point x="489" y="326"/>
      <point x="482" y="329"/>
      <point x="479" y="338" type="curve" smooth="yes"/>
      <point x="452" y="402" type="line"/>
    </contour>
  </outline>
</glyph>
<glyph name="degree" format="2">
  <advance width="728"/>
  <unicode hex="00B0"/>
  <outline>
    <contour>
      <point x="724.0" y="1330.0" type="curve" smooth="yes"/>
      <point x="552.0" y="1330.0"/>
      <point x="406.0" y="1218.0"/>
      <point x="368.0" y="1078.0" type="curve" smooth="yes"/>
      <point x="330.0" y="934.0"/>
      <point x="418.0" y="830.0"/>
      <point x="578.0" y="830.0" type="curve" smooth="yes"/>
      <point x="744.0" y="830.0"/>
      <point x="898.0" y="936.0"/>
      <point x="940.0" y="1092.0" type="curve" smooth="yes"/>
      <point x="978.0" y="1232.0"/>
      <point x="888.0" y="1330.0"/>
    </contour>
    <contour>
      <point x="752.0" y="1244.0"/>
      <point x="774.0" y="1158.0"/>
      <point x="746.0" y="1050.0" type="curve" smooth="yes"/>
      <point x="724.0" y="968.0"/>
      <point x="676.0" y="918.0"/>
      <point x="626.0" y="918.0" type="curve" smooth="yes"/>
      <point x="560.0" y="918.0"/>
      <point x="528.0" y="1002.0"/>
      <point x="556.0" y="1108.0" type="curve" smooth="yes"/>
      <point x="578.0" y="1188.0"/>
      <point x="632.0" y="1244.0"/>
      <point x="682.0" y="1244.0" type="curve" smooth="yes"/>
    </contour>
  </outline>
</glyph>
<glyph name="paragraph" format="2">
  <advance width="1322"/>
  <unicode hex="00B6"/>
  <outline>
    <contour>
      <point x="994.0" y="220.0" type="curve" smooth="yes"/>
      <point x="1230.0" y="1118.0" type="line" smooth="yes"/>
      <point x="1246.0" y="1182.0"/>
      <point x="1232.0" y="1230.0"/>
      <point x="1170.0" y="1230.0" type="curve" smooth="yes"/>
      <point x="1102.0" y="1230.0"/>
      <point x="1066.0" y="1176.0"/>
      <point x="1052.0" y="1126.0" type="curve" smooth="yes"/>
      <point x="748.0" y="-28.0" type="line" smooth="yes"/>
      <point x="670.0" y="-324.0"/>
      <point x="460.0" y="-490.0"/>
      <point x="176.0" y="-490.0" type="curve" smooth="yes"/>
      <point x="2.0" y="-490.0"/>
      <point x="-94.0" y="-400.0"/>
      <point x="-94.0" y="-280.0" type="curve" smooth="yes"/>
      <point x="-94.0" y="-210.0"/>
      <point x="-38.0" y="-138.0"/>
      <point x="58.0" y="-138.0" type="curve" smooth="yes"/>
      <point x="110.0" y="-138.0"/>
      <point x="152.0" y="-162.0"/>
      <point x="202.0" y="-216.0" type="curve" smooth="yes"/>
      <point x="250.0" y="-268.0"/>
      <point x="288.0" y="-310.0"/>
      <point x="342.0" y="-310.0" type="curve" smooth="yes"/>
      <point x="420.0" y="-310.0"/>
      <point x="502.0" y="-250.0"/>
      <point x="532.0" y="-136.0" type="curve" smooth="yes"/>
      <point x="712.0" y="556.0" type="line"/>
      <point x="678.0" y="550.0"/>
      <point x="640.0" y="542.0"/>
      <point x="590.0" y="542.0" type="curve" smooth="yes"/>
      <point x="330.0" y="542.0"/>
      <point x="188.0" y="732.0"/>
      <point x="260.0" y="1008.0" type="curve" smooth="yes"/>
      <point x="324.0" y="1246.0"/>
      <point x="574.0" y="1400.0"/>
      <point x="860.0" y="1400.0" type="curve" smooth="yes"/>
      <point x="1570.0" y="1400.0" type="line" smooth="yes"/>
      <point x="1644.0" y="1400.0"/>
      <point x="1676.0" y="1374.0"/>
      <point x="1666.0" y="1320.0" type="curve" smooth="yes"/>
      <point x="1656.0" y="1264.0"/>
      <point x="1616.0" y="1246.0"/>
      <point x="1550.0" y="1232.0" type="curve" smooth="yes"/>
      <point x="1532.0" y="1228.0" type="line" smooth="yes"/>
      <point x="1478.0" y="1216.0"/>
      <point x="1434.0" y="1182.0"/>
      <point x="1412.0" y="1098.0" type="curve" smooth="yes"/>
      <point x="1190.0" y="250.0" type="line" smooth="yes"/>
      <point x="1098.0" y="-104.0"/>
      <point x="866.0" y="-258.0"/>
      <point x="564.0" y="-258.0" type="curve"/>
      <point x="646.0" y="-78.0" type="line"/>
      <point x="810.0" y="-78.0"/>
      <point x="938.0" y="10.0"/>
    </contour>
  </outline>
</glyph>
<glyph name="onesuperior" format="2">
  <advance width="654"/>
  <unicode hex="00B9"/>
  <outline>
    <contour>
      <point x="428.0" y="1136.0" type="line" smooth="yes"/>
      <point x="392.0" y="1136.0"/>
      <point x="382.0" y="1160.0"/>
      <point x="394.0" y="1198.0" type="curve" smooth="yes"/>
      <point x="402.0" y="1232.0"/>
      <point x="430.0" y="1256.0"/>
      <point x="464.0" y="1256.0" type="curve" smooth="yes"/>
      <point x="512.0" y="1256.0" type="line" smooth="yes"/>
      <point x="580.0" y="1256.0"/>
      <point x="638.0" y="1268.0"/>
      <point x="674.0" y="1300.0" type="curve" smooth="yes"/>
      <point x="702.0" y="1322.0"/>
      <point x="722.0" y="1330.0"/>
      <point x="746.0" y="1330.0" type="curve" smooth="yes"/>
      <point x="776.0" y="1330.0"/>
      <point x="792.0" y="1314.0"/>
      <point x="780.0" y="1270.0" type="curve" smooth="yes"/>
      <point x="652.0" y="794.0" type="line" smooth="yes"/>
      <point x="644.0" y="758.0"/>
      <point x="664.0" y="736.0"/>
      <point x="694.0" y="732.0" type="curve" smooth="yes"/>
      <point x="730.0" y="728.0" type="line" smooth="yes"/>
      <point x="762.0" y="724.0"/>
      <point x="780.0" y="706.0"/>
      <point x="770.0" y="674.0" type="curve" smooth="yes"/>
      <point x="758.0" y="626.0"/>
      <point x="738.0" y="610.0"/>
      <point x="698.0" y="610.0" type="curve" smooth="yes"/>
      <point x="282.0" y="610.0" type="line" smooth="yes"/>
      <point x="248.0" y="610.0"/>
      <point x="232.0" y="626.0"/>
      <point x="244.0" y="674.0" type="curve" smooth="yes"/>
      <point x="254.0" y="708.0"/>
      <point x="280.0" y="728.0"/>
      <point x="314.0" y="732.0" type="curve" smooth="yes"/>
      <point x="348.0" y="736.0" type="line" smooth="yes"/>
      <point x="388.0" y="740.0"/>
      <point x="424.0" y="758.0"/>
      <point x="432.0" y="794.0" type="curve" smooth="yes"/>
      <point x="506.0" y="1070.0" type="line" smooth="yes"/>
      <point x="520.0" y="1118.0"/>
      <point x="502.0" y="1136.0"/>
      <point x="464.0" y="1136.0" type="curve" smooth="yes"/>
    </contour>
  </outline>
</glyph>
<glyph name="threequarters" format="2">
  <advance width="1540"/>
  <unicode hex="00BE"/>
  <outline>
    <contour>
      <point x="1576.0" y="1074.0" type="curve" smooth="yes"/>
      <point x="1653.1714785452568" y="1137.6664697998367"/>
      <point x="1698.0" y="1185.578947368421"/>
      <point x="1698.0" y="1234.0" type="curve" smooth="yes"/>
      <point x="1698.0" y="1279.7446808510638"/>
      <point x="1669.3333333333333" y="1320.0"/>
      <point x="1612.0" y="1320.0" type="curve" smooth="yes"/>
      <point x="1550.8131868131868" y="1320.0"/>
      <point x="1499.0399000698887" y="1278.977958138914"/>
      <point x="1438.0" y="1214.0" type="curve" smooth="yes"/>
      <point x="1303.1863614718527" y="1073.1499298959654"/>
      <point x="1156.02254732" y="896.0207253143433"/>
      <point x="958.0" y="714.0" type="curve" smooth="yes"/>
      <point x="686.0" y="464.0"/>
      <point x="506.3620268753459" y="372.62722252409947"/>
      <point x="298.0" y="198.0" type="curve" smooth="yes"/>
      <point x="238.11642065532877" y="146.37622470286965"/>
      <point x="208.0" y="91.47945205479454"/>
      <point x="208.0" y="54.0" type="curve" smooth="yes"/>
      <point x="208.0" y="18.36363636363636"/>
      <point x="234.59459459459458" y="-30.0"/>
      <point x="290.0" y="-30.0" type="curve" smooth="yes"/>
      <point x="341.51724137931035" y="-30.0"/>
      <point x="394.3977713661559" y="-15.576565965059828"/>
      <point x="456.0" y="50.0" type="curve" smooth="yes"/>
      <point x="622.5451927999032" y="218.5278736665687"/>
      <point x="712.6211426209887" y="354.47012488827676"/>
      <point x="1014.0" y="646.0" type="curve" smooth="yes"/>
      <point x="1228.9371841819363" y="854.8540563277306"/>
      <point x="1430.2642485261931" y="952.5535404384941"/>
    </contour>
    <contour>
      <point x="664.0" y="972.0" type="line"/>
      <point x="926.0" y="1186.0" type="line" smooth="yes"/>
      <point x="970.0" y="1222.0"/>
      <point x="992.0" y="1252.0"/>
      <point x="998.0" y="1274.0" type="curve" smooth="yes"/>
      <point x="1006.0" y="1308.0"/>
      <point x="992.0" y="1330.0"/>
      <point x="942.0" y="1330.0" type="curve" smooth="yes"/>
      <point x="576.0" y="1330.0" type="line" smooth="yes"/>
      <point x="524.0" y="1330.0"/>
      <point x="486.0" y="1300.0"/>
      <point x="472.0" y="1258.0" type="curve" smooth="yes"/>
      <point x="418.0" y="1102.0" type="line" smooth="yes"/>
      <point x="406.0" y="1070.0"/>
      <point x="422.0" y="1046.0"/>
      <point x="448.0" y="1046.0" type="curve" smooth="yes"/>
      <point x="472.0" y="1046.0"/>
      <point x="502.0" y="1072.0"/>
      <point x="520.0" y="1098.0" type="curve" smooth="yes"/>
      <point x="536.0" y="1118.0" type="line" smooth="yes"/>
      <point x="566.0" y="1158.0"/>
      <point x="600.0" y="1174.0"/>
      <point x="648.0" y="1174.0" type="curve" smooth="yes"/>
      <point x="852.0" y="1174.0" type="line"/>
      <point x="878.0" y="1272.0" type="line"/>
      <point x="562.0" y="1010.0" type="line" smooth="yes"/>
      <point x="540.0" y="990.0"/>
      <point x="522.0" y="974.0"/>
      <point x="518.0" y="952.0" type="curve" smooth="yes"/>
      <point x="510.0" y="926.0"/>
      <point x="526.0" y="914.0"/>
      <point x="548.0" y="914.0" type="curve" smooth="yes"/>
      <point x="598.0" y="914.0" type="line" smooth="yes"/>
      <point x="670.0" y="914.0"/>
      <point x="708.0" y="870.0"/>
      <point x="684.0" y="780.0" type="curve" smooth="yes"/>
      <point x="666.0" y="718.0"/>
      <point x="620.0" y="680.0"/>
      <point x="568.0" y="680.0" type="curve" smooth="yes"/>
      <point x="514.0" y="680.0"/>
      <point x="486.0" y="710.0"/>
      <point x="498.0" y="752.0" type="curve" smooth="yes"/>
      <point x="508.0" y="792.0" type="line" smooth="yes"/>
      <point x="522.0" y="840.0"/>
      <point x="486.0" y="878.0"/>
      <point x="434.0" y="878.0" type="curve" smooth="yes"/>
      <point x="370.0" y="878.0"/>
      <point x="308.0" y="828.0"/>
      <point x="292.0" y="766.0" type="curve" smooth="yes"/>
      <point x="264.0" y="668.0"/>
      <point x="344.0" y="590.0"/>
      <point x="518.0" y="590.0" type="curve" smooth="yes"/>
      <point x="698.0" y="590.0"/>
      <point x="856.0" y="676.0"/>
      <point x="890.0" y="806.0" type="curve" smooth="yes"/>
      <point x="926.0" y="942.0"/>
      <point x="830.0" y="1008.0"/>
      <point x="648.0" y="1008.0" type="curve" smooth="yes"/>
      <point x="644.0" y="1008.0"/>
      <point x="618.0" y="1008.0"/>
      <point x="612.0" y="1008.0" type="curve"/>
    </contour>
    <contour>
      <point x="1232.0" y="356.0"/>
      <point x="1216.0" y="328.0"/>
      <point x="1208.0" y="294.0" type="curve" smooth="yes"/>
      <point x="1174.0" y="172.0" type="line" smooth="yes"/>
      <point x="1164.0" y="134.0"/>
      <point x="1142.0" y="114.0"/>
      <point x="1106.0" y="110.0" type="curve" smooth="yes"/>
      <point x="1054.0" y="104.0"/>
      <point x="1028.0" y="86.0"/>
      <point x="1018.0" y="54.0" type="curve" smooth="yes"/>
      <point x="1010.0" y="24.0"/>
      <point x="1026.0" y="4.0"/>
      <point x="1074.0" y="4.0" type="curve" smooth="yes"/>
      <point x="1372.0" y="4.0" type="line" smooth="yes"/>
      <point x="1418.0" y="4.0"/>
      <point x="1442.0" y="24.0"/>
      <point x="1450.0" y="54.0" type="curve" smooth="yes"/>
      <point x="1460.0" y="86.0"/>
      <point x="1440.0" y="100.0"/>
      <point x="1404.0" y="108.0" type="curve" smooth="yes"/>
      <point x="1374.0" y="116.0"/>
      <point x="1364.0" y="132.0"/>
      <point x="1374.0" y="170.0" type="curve" smooth="yes"/>
      <point x="1442.0" y="426.0" type="line" smooth="yes"/>
      <point x="1452.0" y="458.0"/>
      <point x="1438.0" y="472.0"/>
      <point x="1418.0" y="472.0" type="curve" smooth="yes"/>
      <point x="1406.0" y="472.0"/>
      <point x="1392.0" y="468.0"/>
      <point x="1374.0" y="456.0" type="curve" smooth="yes"/>
      <point x="1274.0" y="386.0" type="line" smooth="yes"/>
    </contour>
    <contour>
      <point x="1104.0" y="428.0" type="curve" smooth="yes"/>
      <point x="926.0" y="306.0" type="line" smooth="yes"/>
      <point x="892.0" y="282.0"/>
      <point x="868.0" y="256.0"/>
      <point x="862.0" y="230.0" type="curve" smooth="yes"/>
      <point x="854.0" y="198.0"/>
      <point x="868.0" y="180.0"/>
      <point x="902.0" y="180.0" type="curve" smooth="yes"/>
      <point x="1440.0" y="180.0" type="line" smooth="yes"/>
      <point x="1484.0" y="180.0"/>
      <point x="1508.0" y="196.0"/>
      <point x="1518.0" y="230.0" type="curve" smooth="yes"/>
      <point x="1528.0" y="264.0"/>
      <point x="1504.0" y="276.0"/>
      <point x="1466.0" y="276.0" type="curve" smooth="yes"/>
      <point x="922.0" y="276.0" type="line"/>
      <point x="944.0" y="222.0" type="line"/>
      <point x="1334.0" y="496.0" type="line" smooth="yes"/>
      <point x="1390.0" y="536.0"/>
      <point x="1422.0" y="572.0"/>
      <point x="1432.0" y="610.0" type="curve" smooth="yes"/>
      <point x="1450.0" y="678.0"/>
      <point x="1414.0" y="724.0"/>
      <point x="1340.0" y="724.0" type="curve" smooth="yes"/>
      <point x="1254.0" y="724.0"/>
      <point x="1194.0" y="662.0"/>
      <point x="1178.0" y="606.0" type="curve" smooth="yes"/>
      <point x="1170.0" y="570.0"/>
      <point x="1186.0" y="548.0"/>
      <point x="1178.0" y="518.0" type="curve" smooth="yes"/>
      <point x="1168.0" y="486.0"/>
      <point x="1144.0" y="456.0"/>
    </contour>
  </outline>
</glyph>
<glyph name="questiondown" format="2">
  <advance width="902"/>
  <unicode hex="00BF"/>
  <outline>
    <contour>
      <point x="550.0" y="190.0" type="curve" smooth="yes"/>
      <point x="392.0" y="118.0"/>
      <point x="316.0" y="50.0"/>
      <point x="272.0" y="-126.0" type="curve" smooth="yes"/>
      <point x="236.17805152102449" y="-269.28779391590183"/>
      <point x="297.54385964912285" y="-356.0"/>
      <point x="376.0" y="-356.0" type="curve" smooth="yes"/>
      <point x="453.4545454545455" y="-356.0"/>
      <point x="505.8795429049193" y="-316.02930766046666"/>
      <point x="518.0" y="-246.0" type="curve" smooth="yes"/>
      <point x="536.0" y="-142.0" type="line" smooth="yes"/>
      <point x="551.9515394337699" y="-49.83554993821849"/>
      <point x="622.5238095238095" y="0.0"/>
      <point x="694.0" y="0.0" type="curve" smooth="yes"/>
      <point x="772.3157894736842" y="0.0"/>
      <point x="818.0" y="-59.943661971831034"/>
      <point x="818.0" y="-152.0" type="curve" smooth="yes"/>
      <point x="818.0" y="-314.2013422818793"/>
      <point x="636.0" y="-470.0"/>
      <point x="340.0" y="-470.0" type="curve" smooth="yes"/>
      <point x="90.0" y="-470.0"/>
      <point x="-54.0" y="-330.0"/>
      <point x="4.0" y="-118.0" type="curve" smooth="yes"/>
      <point x="40.0" y="16.0"/>
      <point x="103.52077997099695" y="94.41374498469281"/>
      <point x="368.0" y="234.0" type="curve" smooth="yes"/>
      <point x="452.30365079874514" y="279.09265042723575"/>
      <point x="509.1679347410336" y="338.22898528551275"/>
      <point x="532.0" y="460.0" type="curve" smooth="yes"/>
      <point x="542.0" y="514.0"/>
      <point x="574.0" y="548.0"/>
      <point x="628.0" y="548.0" type="curve" smooth="yes"/>
      <point x="710.0" y="548.0"/>
      <point x="774.0" y="494.0"/>
      <point x="774.0" y="408.0" type="curve" smooth="yes"/>
      <point x="774.0" y="328.0"/>
      <point x="716.0" y="266.0"/>
    </contour>
    <contour>
      <point x="773.832" y="983.99" type="curve" smooth="yes"/>
      <point x="643.950345323741" y="983.99"/>
      <point x="533.118" y="877.0625454545454"/>
      <point x="533.118" y="756.338" type="curve" smooth="yes"/>
      <point x="533.118" y="678.1495409836066"/>
      <point x="594.9625714285714" y="623.8520000000001"/>
      <point x="682.398" y="623.8520000000001" type="curve" smooth="yes"/>
      <point x="821.0151428571428" y="623.8520000000001"/>
      <point x="924.9780000000001" y="739.3303358778626"/>
      <point x="924.9780000000001" y="849.638" type="curve" smooth="yes"/>
      <point x="924.9780000000001" y="927.6488387096774"/>
      <point x="861.1134929577465" y="983.99"/>
    </contour>
  </outline>
</glyph>
<glyph name="Aring" format="2">
  <advance width="659"/>
  <unicode hex="00C5"/>
  <outline>
    <contour>
      <point x="230" y="289" type="line"/>
      <point x="216" y="220" type="line"/>
      <point x="524" y="220" type="line"/>
      <point x="535" y="289" type="line"/>
    </contour>
    <contour>
      <point x="131" y="185" type="line" smooth="yes"/>
      <point x="85" y="120"/>
      <point x="70" y="102"/>
      <point x="50" y="89" type="curve" smooth="yes"/>
      <point x="23" y="72"/>
      <point x="11.0" y="57"/>
      <point x="11" y="35" type="curve" smooth="yes"/>
      <point x="11.0" y="13"/>
      <point x="22" y="0"/>
      <point x="44" y="0" type="curve" smooth="yes"/>
      <point x="221" y="0" type="line" smooth="yes"/>
      <point x="249.0" y="0"/>
      <point x="265.0" y="12"/>
      <point x="265" y="38" type="curve" smooth="yes"/>
      <point x="265.0" y="57"/>
      <point x="252" y="71"/>
      <point x="231" y="87" type="curve" smooth="yes"/>
      <point x="209" y="103"/>
      <point x="204" y="120"/>
      <point x="204" y="139" type="curve" smooth="yes"/>
      <point x="204" y="159"/>
      <point x="215" y="175"/>
      <point x="227" y="192" type="curve" smooth="yes"/>
      <point x="296" y="290" type="line" smooth="yes"/>
      <point x="466.33049847073966" y="531.9186789874274"/>
      <point x="505.72505072913634" y="578.8929674362588"/>
      <point x="589" y="622" type="curve"/>
      <point x="503" y="631" type="line"/>
      <point x="494" y="446"/>
      <point x="490.9598783563019" y="294.61884438486777"/>
      <point x="475" y="143" type="curve" smooth="yes"/>
      <point x="472" y="112"/>
      <point x="448" y="93"/>
      <point x="429" y="86" type="curve" smooth="yes"/>
      <point x="403" y="76" type="line" smooth="yes"/>
      <point x="385" y="69"/>
      <point x="368.0" y="58"/>
      <point x="368" y="37" type="curve" smooth="yes"/>
      <point x="368.0" y="9"/>
      <point x="376" y="0"/>
      <point x="412" y="0" type="curve" smooth="yes"/>
      <point x="629" y="0" type="line" smooth="yes"/>
      <point x="661.0" y="0.0"/>
      <point x="677.0" y="17"/>
      <point x="677" y="36" type="curve" smooth="yes"/>
      <point x="677.0" y="55"/>
      <point x="674" y="61"/>
      <point x="646" y="84" type="curve" smooth="yes"/>
      <point x="625" y="102"/>
      <point x="618" y="125"/>
      <point x="619" y="165" type="curve" smooth="yes"/>
      <point x="625" y="310"/>
      <point x="641.0" y="504.0"/>
      <point x="655" y="688" type="curve"/>
      <point x="656" y="722" type="line"/>
      <point x="559.0" y="722.0"/>
      <point x="453" y="635"/>
      <point x="234" y="329" type="curve" smooth="yes"/>
    </contour>
    <component base="ringcomb" xOffset="281" yOffset="135"/>
  </outline>
</glyph>
<glyph name="Ccedilla" format="2">
  <advance width="1298"/>
  <unicode hex="00C7"/>
  <outline>
    <contour>
      <point x="1358.0" y="370.0" type="curve" smooth="yes"/>
      <point x="1358.0" y="418.64864864864865"/>
      <point x="1336.0" y="442.0"/>
      <point x="1300.0" y="442.0" type="curve" smooth="yes"/>
      <point x="1256.0" y="442.0"/>
      <point x="1221.336812485725" y="415.5383781043013"/>
      <point x="1172.0" y="344.0" type="curve" smooth="yes"/>
      <point x="1097.3754563603786" y="234.933359295938"/>
      <point x="1006.2857142857142" y="192.0"/>
      <point x="882.0" y="192.0" type="curve" smooth="yes"/>
      <point x="719.7142857142858" y="192.0"/>
      <point x="598.0" y="341.4505494505495"/>
      <point x="598.0" y="592.0" type="curve" smooth="yes"/>
      <point x="598.0" y="945.5537190082644"/>
      <point x="818.0" y="1282.0"/>
      <point x="1062.0" y="1282.0" type="curve" smooth="yes"/>
      <point x="1193.0569105691056" y="1282.0"/>
      <point x="1256.9014100815289" y="1236.704221337775"/>
      <point x="1310.0" y="1106.0" type="curve" smooth="yes"/>
      <point x="1336.0" y="1042.0" type="line" smooth="yes"/>
      <point x="1361.8227111703563" y="978.4364032729693"/>
      <point x="1396.8524590163934" y="942.0"/>
      <point x="1452.0" y="942.0" type="curve" smooth="yes"/>
      <point x="1495.5294117647059" y="942.0"/>
      <point x="1530.4152053626578" y="976.0033289792118"/>
      <point x="1526.0" y="1058.0" type="curve" smooth="yes"/>
      <point x="1512.0" y="1318.0" type="line" smooth="yes"/>
      <point x="1508.0" y="1388.0"/>
      <point x="1486.0" y="1430.0"/>
      <point x="1446.0" y="1430.0" type="curve" smooth="yes"/>
      <point x="1404.0" y="1430.0"/>
      <point x="1370.0" y="1380.0"/>
      <point x="1322.0" y="1380.0" type="curve" smooth="yes"/>
      <point x="1276.0" y="1380.0"/>
      <point x="1196.0" y="1430.0"/>
      <point x="1076.0" y="1430.0" type="curve" smooth="yes"/>
      <point x="584.0" y="1430.0"/>
      <point x="222.0" y="979.2622950819672"/>
      <point x="222.0" y="490.0" type="curve" smooth="yes"/>
      <point x="222.0" y="178.42975206611573"/>
      <point x="426.0" y="-30.0"/>
      <point x="742.0" y="-30.0" type="curve" smooth="yes"/>
      <point x="1028.0" y="-30.0"/>
      <point x="1250.0" y="100.0"/>
      <point x="1326.0" y="266.0" type="curve" smooth="yes"/>
      <point x="1348.0" y="314.0"/>
      <point x="1358.0" y="338.0"/>
    </contour>
    <contour>
      <point x="767.5958462727156" y="16.0" type="line"/>
      <point x="635.5958462727156" y="-142.0" type="line" smooth="yes"/>
      <point x="593.5958462727156" y="-194.0"/>
      <point x="605.5958462727156" y="-240.0"/>
      <point x="653.5958462727156" y="-240.0" type="curve" smooth="yes"/>
      <point x="665.5958462727156" y="-240.0"/>
      <point x="677.5958462727156" y="-232.0"/>
      <point x="697.5958462727156" y="-232.0" type="curve" smooth="yes"/>
      <point x="741.5958462727156" y="-232.0"/>
      <point x="759.5958462727156" y="-258.0"/>
      <point x="745.5958462727156" y="-314.0" type="curve" smooth="yes"/>
      <point x="731.5958462727156" y="-368.0"/>
      <point x="691.5958462727156" y="-396.0"/>
      <point x="645.5958462727156" y="-396.0" type="curve" smooth="yes"/>
      <point x="613.5958462727156" y="-396.0"/>
      <point x="599.5958462727156" y="-382.0"/>
      <point x="605.5958462727156" y="-362.0" type="curve" smooth="yes"/>
      <point x="611.5958462727156" y="-338.0" type="line" smooth="yes"/>
      <point x="625.5958462727156" y="-282.0"/>
      <point x="589.5958462727156" y="-246.0"/>
      <point x="525.5958462727156" y="-246.0" type="curve" smooth="yes"/>
      <point x="461.59584627271556" y="-246.0"/>
      <point x="401.59584627271556" y="-290.0"/>
      <point x="387.59584627271556" y="-346.0" type="curve" smooth="yes"/>
      <point x="363.59584627271556" y="-430.0"/>
      <point x="455.59584627271556" y="-490.0"/>
      <point x="605.5958462727156" y="-490.0" type="curve" smooth="yes"/>
      <point x="783.5958462727156" y="-490.0"/>
      <point x="929.5958462727156" y="-412.0"/>
      <point x="961.5958462727156" y="-294.0" type="curve" smooth="yes"/>
      <point x="989.5958462727156" y="-188.0"/>
      <point x="929.5958462727156" y="-130.0"/>
      <point x="817.5958462727156" y="-130.0" type="curve" smooth="yes"/>
      <point x="747.5958462727156" y="-130.0"/>
      <point x="693.5958462727156" y="-146.0"/>
      <point x="671.5958462727156" y="-170.0" type="curve"/>
      <point x="759.5958462727156" y="-180.0" type="line"/>
      <point x="909.5958462727156" y="18.0" type="line"/>
    </contour>
  </outline>
</glyph>
<glyph name="Oslash" format="2">
  <advance width="782"/>
  <unicode hex="00D8"/>
  <outline>
    <contour>
      <point x="871" y="610.0" type="curve" smooth="yes"/>
      <point x="895.3407850688378" y="627.5253652495633"/>
      <point x="912.3746721623106" y="648.5736230817047"/>
      <point x="917" y="668.0" type="curve" smooth="yes"/>
      <point x="923.6517319645877" y="692.3896838701551"/>
      <point x="910.0" y="716.0"/>
      <point x="885" y="716.0" type="curve" smooth="yes"/>
      <point x="859" y="716.0"/>
      <point x="834" y="702.0"/>
      <point x="806" y="675.0" type="curve" smooth="yes"/>
      <point x="705" y="579.0"/>
      <point x="597" y="467.0"/>
      <point x="476" y="367.0" type="curve" smooth="yes"/>
      <point x="362" y="272.0"/>
      <point x="195" y="166"/>
      <point x="86" y="85.0" type="curve" smooth="yes"/>
      <point x="60.007872710170325" y="65.74657237790395"/>
      <point x="46.38794890769846" y="48.653804146177436"/>
      <point x="41" y="28.0" type="curve" smooth="yes"/>
      <point x="32.950808366875194" y="1.5526560625899357"/>
      <point x="45.0" y="-22.0"/>
      <point x="76.0" y="-22.0" type="curve" smooth="yes"/>
      <point x="105.0" y="-22.0"/>
      <point x="129" y="-4.0"/>
      <point x="161" y="25.0" type="curve" smooth="yes"/>
      <point x="259.0" y="115.0"/>
      <point x="394.0" y="242.0"/>
      <point x="507" y="335.0" type="curve" smooth="yes"/>
      <point x="642" y="446.0"/>
      <point x="759" y="525.0"/>
    </contour>
    <component base="O"/>
  </outline>
</glyph>
<glyph name="Thorn" format="2">
  <advance width="1316"/>
  <unicode hex="00DE"/>
  <outline>
    <contour>
      <point x="916.0" y="1000.0" type="curve" smooth="yes"/>
      <point x="1034.0" y="1000.0"/>
      <point x="1126.0" y="896.0"/>
      <point x="1126.0" y="738.0" type="curve" smooth="yes"/>
      <point x="1126.0" y="526.0"/>
      <point x="976.0" y="396.0"/>
      <point x="810.0" y="396.0" type="curve" smooth="yes"/>
      <point x="664.0" y="396.0"/>
      <point x="604.0" y="440.0"/>
      <point x="534.0" y="486.0" type="curve"/>
      <point x="494.0" y="370.0" type="line"/>
      <point x="586.0" y="310.0"/>
      <point x="664.0" y="252.0"/>
      <point x="872.0" y="252.0" type="curve" smooth="yes"/>
      <point x="1194.0" y="252.0"/>
      <point x="1456.0" y="446.07843137254906"/>
      <point x="1456.0" y="742.0" type="curve" smooth="yes"/>
      <point x="1456.0" y="989.5598086124402"/>
      <point x="1266.0" y="1140.0"/>
      <point x="966.0" y="1140.0" type="curve" smooth="yes"/>
      <point x="782.0" y="1140.0"/>
      <point x="668.0" y="1064.0"/>
      <point x="668.0" y="1064.0" type="curve"/>
      <point x="678.0" y="932.0" type="line"/>
      <point x="730.0" y="968.0"/>
      <point x="810.0" y="1000.0"/>
    </contour>
    <contour>
      <point x="642.0" y="220.0" type="curve" smooth="yes"/>
      <point x="642.0" y="310.0"/>
      <point x="772.0" y="846.0"/>
      <point x="886.0" y="1154.0" type="curve" smooth="yes"/>
      <point x="906.0" y="1208.0"/>
      <point x="928.0" y="1234.0"/>
      <point x="970.0" y="1244.0" type="curve" smooth="yes"/>
      <point x="1006.0" y="1252.0" type="line" smooth="yes"/>
      <point x="1059.6553338722365" y="1263.9234075271636"/>
      <point x="1090.0" y="1296.4166666666667"/>
      <point x="1090.0" y="1334.0" type="curve" smooth="yes"/>
      <point x="1090.0" y="1374.6153846153845"/>
      <point x="1063.35" y="1400.0"/>
      <point x="1008.0" y="1400.0" type="curve" smooth="yes"/>
      <point x="482.0" y="1400.0" type="line" smooth="yes"/>
      <point x="429.33962561096627" y="1400.0"/>
      <point x="398.0" y="1366.5714285714287"/>
      <point x="398.0" y="1322.0" type="curve" smooth="yes"/>
      <point x="398.0" y="1287.0"/>
      <point x="423.9367330748936" y="1260.4854745706132"/>
      <point x="460.0" y="1252.0" type="curve" smooth="yes"/>
      <point x="494.0" y="1244.0" type="line" smooth="yes"/>
      <point x="526.0" y="1236.0"/>
      <point x="540.0" y="1218.0"/>
      <point x="540.0" y="1182.0" type="curve" smooth="yes"/>
      <point x="540.0" y="1090.0"/>
      <point x="420.3529411764706" y="565.6470588235295"/>
      <point x="298.0" y="248.0" type="curve" smooth="yes"/>
      <point x="280.0" y="198.0"/>
      <point x="258.0" y="170.0"/>
      <point x="212.0" y="160.0" type="curve" smooth="yes"/>
      <point x="172.0" y="150.0" type="line" smooth="yes"/>
      <point x="127.5544866395878" y="138.88862165989696"/>
      <point x="94.0" y="109.14893617021276"/>
      <point x="94.0" y="70.0" type="curve" smooth="yes"/>
      <point x="94.0" y="27.5"/>
      <point x="121.57575757575758" y="0.0"/>
      <point x="164.0" y="0.0" type="curve" smooth="yes"/>
      <point x="688.0" y="0.0" type="line" smooth="yes"/>
      <point x="752.0" y="0.0"/>
      <point x="786.0" y="34.325581395348834"/>
      <point x="786.0" y="82.0" type="curve" smooth="yes"/>
      <point x="786.0" y="118.06060606060606"/>
      <point x="760.0207487897546" y="143.05394146123422"/>
      <point x="722.0" y="152.0" type="curve" smooth="yes"/>
      <point x="688.0" y="160.0" type="line" smooth="yes"/>
      <point x="658.0" y="166.0"/>
      <point x="642.0" y="186.0"/>
    </contour>
  </outline>
</glyph>
<glyph name="germandbls" format="2">
  <advance width="1256"/>
  <unicode hex="00DF"/>
  <outline>
    <contour>
      <point x="420.0" y="932.0" type="curve" smooth="yes"/>
      <point x="412.0" y="910.0" type="line"/>
      <point x="302.0" y="910.0" type="line" smooth="yes"/>
      <point x="254.0" y="910.0"/>
      <point x="222.0" y="882.0"/>
      <point x="222.0" y="842.0" type="curve" smooth="yes"/>
      <point x="222.0" y="808.0"/>
      <point x="240.0" y="770.0"/>
      <point x="298.0" y="748.0" type="curve" smooth="yes"/>
      <point x="334.0" y="736.0"/>
      <point x="348.0" y="672.0"/>
      <point x="330.0" y="614.0" type="curve" smooth="yes"/>
      <point x="124.0" y="-86.0" type="line" smooth="yes"/>
      <point x="102.0" y="-160.0"/>
      <point x="82.0" y="-200.0"/>
      <point x="84.0" y="-266.0" type="curve" smooth="yes"/>
      <point x="90.0" y="-356.0"/>
      <point x="136.0" y="-404.0"/>
      <point x="220.0" y="-404.0" type="curve" smooth="yes"/>
      <point x="348.0" y="-404.0"/>
      <point x="474.0" y="-320.0"/>
      <point x="474.0" y="-210.0" type="curve" smooth="yes"/>
      <point x="474.0" y="-128.0"/>
      <point x="410.0" y="-118.0"/>
      <point x="410.0" y="-44.0" type="curve" smooth="yes"/>
      <point x="410.0" y="-24.0"/>
      <point x="414.0" y="0.0"/>
      <point x="424.0" y="38.0" type="curve" smooth="yes"/>
      <point x="424.0" y="38.0"/>
      <point x="647.5885130820277" y="856.887732560085"/>
      <point x="672.0" y="932.0" type="curve" smooth="yes"/>
      <point x="743.6935801694807" y="1161.0211588747302"/>
      <point x="885.7441860465117" y="1306.0"/>
      <point x="1036.0" y="1306.0" type="curve" smooth="yes"/>
      <point x="1122.6666666666667" y="1306.0"/>
      <point x="1166.0" y="1263.5438596491229"/>
      <point x="1166.0" y="1196.0" type="curve" smooth="yes"/>
      <point x="1166.0" y="1118.0"/>
      <point x="1106.0" y="1048.0"/>
      <point x="952.0" y="958.0" type="curve" smooth="yes"/>
      <point x="784.0" y="860.0"/>
      <point x="756.0" y="754.0"/>
      <point x="756.0" y="668.0" type="curve" smooth="yes"/>
      <point x="756.0" y="572.0"/>
      <point x="822.0" y="472.0"/>
      <point x="944.0" y="388.0" type="curve" smooth="yes"/>
      <point x="1036.0" y="326.0"/>
      <point x="1046.0" y="246.0"/>
      <point x="1046.0" y="202.0" type="curve" smooth="yes"/>
      <point x="1046.0" y="134.0"/>
      <point x="1016.0" y="102.0"/>
      <point x="972.0" y="102.0" type="curve" smooth="yes"/>
      <point x="922.0" y="102.0"/>
      <point x="900.0" y="138.0"/>
      <point x="862.0" y="214.0" type="curve" smooth="yes"/>
      <point x="818.0" y="298.0"/>
      <point x="762.0" y="328.0"/>
      <point x="706.0" y="328.0" type="curve" smooth="yes"/>
      <point x="638.0" y="328.0"/>
      <point x="594.0" y="282.0"/>
      <point x="594.0" y="196.0" type="curve" smooth="yes"/>
      <point x="594.0" y="76.0"/>
      <point x="726.0" y="-30.0"/>
      <point x="902.0" y="-30.0" type="curve" smooth="yes"/>
      <point x="1146.0" y="-30.0"/>
      <point x="1320.0" y="112.0"/>
      <point x="1320.0" y="286.0" type="curve" smooth="yes"/>
      <point x="1320.0" y="368.0"/>
      <point x="1264.0" y="458.0"/>
      <point x="1156.0" y="536.0" type="curve" smooth="yes"/>
      <point x="1050.0" y="612.0"/>
      <point x="1034.0" y="658.0"/>
      <point x="1034.0" y="706.0" type="curve" smooth="yes"/>
      <point x="1034.0" y="748.0"/>
      <point x="1048.0" y="808.0"/>
      <point x="1196.0" y="892.0" type="curve" smooth="yes"/>
      <point x="1384.0" y="1000.0"/>
      <point x="1462.0" y="1092.0"/>
      <point x="1462.0" y="1208.0" type="curve" smooth="yes"/>
      <point x="1462.0" y="1334.0"/>
      <point x="1324.0" y="1430.0"/>
      <point x="1094.0" y="1430.0" type="curve" smooth="yes"/>
      <point x="750.0" y="1430.0"/>
      <point x="530.0" y="1234.0"/>
    </contour>
  </outline>
</glyph>
<glyph name="aacute" format="2">
  <advance width="1108"/>
  <unicode hex="00E1"/>
  <outline>
    <contour>
      <point x="1000.0" y="270.0" type="curve" smooth="yes"/>
      <point x="1000.0" y="314.0"/>
      <point x="1032.3811854545988" y="437.7593174827639"/>
      <point x="1058.0" y="556.0" type="curve" smooth="yes"/>
      <point x="1072.0" y="624.0"/>
      <point x="1104.0" y="664.0"/>
      <point x="1136.0" y="698.0" type="curve" smooth="yes"/>
      <point x="1166.0" y="730.0"/>
      <point x="1194.0" y="766.0"/>
      <point x="1194.0" y="812.0" type="curve" smooth="yes"/>
      <point x="1194.0" y="926.0"/>
      <point x="1094.0" y="980.0"/>
      <point x="892.0" y="980.0" type="curve" smooth="yes"/>
      <point x="473.1320754716981" y="980.0"/>
      <point x="152.0" y="566.0"/>
      <point x="152.0" y="232.0" type="curve" smooth="yes"/>
      <point x="152.0" y="46.0"/>
      <point x="250.0" y="-30.0"/>
      <point x="384.0" y="-30.0" type="curve" smooth="yes"/>
      <point x="538.0" y="-30.0"/>
      <point x="698.0" y="76.0"/>
      <point x="858.0" y="390.0" type="curve"/>
      <point x="788.0" y="404.0" type="line"/>
      <point x="794.0" y="292.0"/>
      <point x="748.0" y="190.0"/>
      <point x="748.0" y="110.0" type="curve" smooth="yes"/>
      <point x="748.0" y="30.0"/>
      <point x="812.0" y="-32.0"/>
      <point x="910.0" y="-32.0" type="curve" smooth="yes"/>
      <point x="1066.0" y="-32.0"/>
      <point x="1172.0" y="84.0"/>
      <point x="1172.0" y="194.0" type="curve" smooth="yes"/>
      <point x="1172.0" y="248.0"/>
      <point x="1154.0" y="270.0"/>
      <point x="1130.0" y="270.0" type="curve" smooth="yes"/>
      <point x="1108.0" y="270.0"/>
      <point x="1098.0" y="260.0"/>
      <point x="1086.0" y="248.0" type="curve" smooth="yes"/>
      <point x="1074.0" y="236.0"/>
      <point x="1062.0" y="224.0"/>
      <point x="1036.0" y="224.0" type="curve" smooth="yes"/>
      <point x="1010.0" y="224.0"/>
      <point x="1000.0" y="246.0"/>
    </contour>
    <contour>
      <point x="416.0" y="350.0" type="curve" smooth="yes"/>
      <point x="416.0" y="576.0"/>
      <point x="557.1288343558283" y="776.0"/>
      <point x="740.0" y="776.0" type="curve" smooth="yes"/>
      <point x="806.0" y="776.0"/>
      <point x="842.0" y="738.0"/>
      <point x="842.0" y="652.0" type="curve" smooth="yes"/>
      <point x="842.0" y="465.68609865470853"/>
      <point x="678.0" y="210.0"/>
      <point x="536.0" y="210.0" type="curve" smooth="yes"/>
      <point x="468.0" y="210.0"/>
      <point x="416.0" y="264.0"/>
    </contour>
    <contour>
      <point x="791.4641016151443" y="1210.0" type="curve" smooth="yes"/>
      <point x="957.4641016151443" y="1330.0" type="line" smooth="yes"/>
      <point x="1069.4641016151443" y="1412.0"/>
      <point x="1163.4641016151443" y="1452.0"/>
      <point x="1241.4641016151443" y="1452.0" type="curve" smooth="yes"/>
      <point x="1319.4641016151443" y="1452.0"/>
      <point x="1345.4641016151443" y="1420.0"/>
      <point x="1329.4641016151443" y="1360.0" type="curve" smooth="yes"/>
      <point x="1315.4641016151443" y="1304.0"/>
      <point x="1249.4641016151443" y="1254.0"/>
      <point x="1143.4641016151443" y="1212.0" type="curve" smooth="yes"/>
      <point x="919.4641016151443" y="1122.0" type="line" smooth="yes"/>
      <point x="855.4641016151443" y="1096.0"/>
      <point x="803.4641016151443" y="1080.0"/>
      <point x="771.4641016151443" y="1080.0" type="curve" smooth="yes"/>
      <point x="733.4641016151443" y="1080.0"/>
      <point x="719.4641016151443" y="1102.0"/>
      <point x="727.4641016151443" y="1132.0" type="curve" smooth="yes"/>
      <point x="733.4641016151443" y="1160.0"/>
      <point x="761.4641016151443" y="1188.0"/>
    </contour>
  </outline>
</glyph>
<glyph name="atilde" format="2">
  <advance width="1108"/>
  <unicode hex="00E3"/>
  <outline>
    <contour>
      <point x="1000.0" y="270.0" type="curve" smooth="yes"/>
      <point x="1000.0" y="314.0"/>
      <point x="1032.3811854545988" y="437.7593174827639"/>
      <point x="1058.0" y="556.0" type="curve" smooth="yes"/>
      <point x="1072.0" y="624.0"/>
      <point x="1104.0" y="664.0"/>
      <point x="1136.0" y="698.0" type="curve" smooth="yes"/>
      <point x="1166.0" y="730.0"/>
      <point x="1194.0" y="766.0"/>
      <point x="1194.0" y="812.0" type="curve" smooth="yes"/>
      <point x="1194.0" y="926.0"/>
      <point x="1094.0" y="980.0"/>
      <point x="892.0" y="980.0" type="curve" smooth="yes"/>
      <point x="473.1320754716981" y="980.0"/>
      <point x="152.0" y="566.0"/>
      <point x="152.0" y="232.0" type="curve" smooth="yes"/>
      <point x="152.0" y="46.0"/>
      <point x="250.0" y="-30.0"/>
      <point x="384.0" y="-30.0" type="curve" smooth="yes"/>
      <point x="538.0" y="-30.0"/>
      <point x="698.0" y="76.0"/>
      <point x="858.0" y="390.0" type="curve"/>
      <point x="788.0" y="404.0" type="line"/>
      <point x="794.0" y="292.0"/>
      <point x="748.0" y="190.0"/>
      <point x="748.0" y="110.0" type="curve" smooth="yes"/>
      <point x="748.0" y="30.0"/>
      <point x="812.0" y="-32.0"/>
      <point x="910.0" y="-32.0" type="curve" smooth="yes"/>
      <point x="1066.0" y="-32.0"/>
      <point x="1172.0" y="84.0"/>
      <point x="1172.0" y="194.0" type="curve" smooth="yes"/>
      <point x="1172.0" y="248.0"/>
      <point x="1154.0" y="270.0"/>
      <point x="1130.0" y="270.0" type="curve" smooth="yes"/>
      <point x="1108.0" y="270.0"/>
      <point x="1098.0" y="260.0"/>
      <point x="1086.0" y="248.0" type="curve" smooth="yes"/>
      <point x="1074.0" y="236.0"/>
      <point x="1062.0" y="224.0"/>
      <point x="1036.0" y="224.0" type="curve" smooth="yes"/>
      <point x="1010.0" y="224.0"/>
      <point x="1000.0" y="246.0"/>
    </contour>
    <contour>
      <point x="416.0" y="350.0" type="curve" smooth="yes"/>
      <point x="416.0" y="576.0"/>
      <point x="557.1288343558283" y="776.0"/>
      <point x="740.0" y="776.0" type="curve" smooth="yes"/>
      <point x="806.0" y="776.0"/>
      <point x="842.0" y="738.0"/>
      <point x="842.0" y="652.0" type="curve" smooth="yes"/>
      <point x="842.0" y="465.68609865470853"/>
      <point x="678.0" y="210.0"/>
      <point x="536.0" y="210.0" type="curve" smooth="yes"/>
      <point x="468.0" y="210.0"/>
      <point x="416.0" y="264.0"/>
    </contour>
    <contour>
      <point x="479.2188556398305" y="1158.0" type="curve" smooth="yes"/>
      <point x="515.2188556398305" y="1298.0"/>
      <point x="623.2188556398305" y="1402.0"/>
      <point x="759.2188556398305" y="1402.0" type="curve" smooth="yes"/>
      <point x="853.2188556398305" y="1402.0"/>
      <point x="901.2188556398305" y="1380.0"/>
      <point x="947.2188556398305" y="1330.0" type="curve" smooth="yes"/>
      <point x="989.2188556398305" y="1284.0"/>
      <point x="1015.2188556398305" y="1270.0"/>
      <point x="1049.2188556398305" y="1270.0" type="curve" smooth="yes"/>
      <point x="1087.2188556398305" y="1270.0"/>
      <point x="1115.2188556398305" y="1290.0"/>
      <point x="1127.2188556398305" y="1330.0" type="curve" smooth="yes"/>
      <point x="1139.2188556398305" y="1378.0"/>
      <point x="1169.2188556398305" y="1402.0"/>
      <point x="1209.2188556398305" y="1402.0" type="curve" smooth="yes"/>
      <point x="1243.2188556398305" y="1402.0"/>
      <point x="1271.2188556398305" y="1384.0"/>
      <point x="1251.2188556398305" y="1312.0" type="curve" smooth="yes"/>
      <point x="1211.2188556398305" y="1162.0"/>
      <point x="1093.2188556398305" y="1090.0"/>
      <point x="969.2188556398305" y="1090.0" type="curve" smooth="yes"/>
      <point x="885.2188556398305" y="1090.0"/>
      <point x="833.2188556398305" y="1104.0"/>
      <point x="783.2188556398305" y="1156.0" type="curve" smooth="yes"/>
      <point x="731.2188556398305" y="1208.0"/>
      <point x="709.2188556398305" y="1222.0"/>
      <point x="681.2188556398305" y="1222.0" type="curve" smooth="yes"/>
      <point x="647.2188556398305" y="1222.0"/>
      <point x="623.2188556398305" y="1198.0"/>
      <point x="609.2188556398305" y="1146.0" type="curve" smooth="yes"/>
      <point x="597.2188556398305" y="1102.0"/>
      <point x="561.2188556398305" y="1080.0"/>
      <point x="523.2188556398305" y="1080.0" type="curve" smooth="yes"/>
      <point x="491.2188556398305" y="1080.0"/>
      <point x="461.2188556398305" y="1096.0"/>
    </contour>
  </outline>
</glyph>
<glyph name="egrave" format="2">
  <advance width="984"/>
  <unicode hex="00E8"/>
  <outline>
    <contour>
      <point x="320.0" y="434.0" type="curve"/>
      <point x="330.0" y="308.0" type="line"/>
      <point x="330.0" y="308.0"/>
      <point x="810.9168591948853" y="484.32868537175136"/>
      <point x="1022.0" y="560.0" type="curve" smooth="yes"/>
      <point x="1090.0" y="584.0"/>
      <point x="1114.0" y="624.0"/>
      <point x="1114.0" y="666.0" type="curve" smooth="yes"/>
      <point x="1114.0" y="700.0"/>
      <point x="1096.0" y="722.0"/>
      <point x="1066.0" y="730.0" type="curve" smooth="yes"/>
      <point x="1044.0" y="736.0"/>
      <point x="1028.0" y="754.0"/>
      <point x="1024.0" y="788.0" type="curve" smooth="yes"/>
      <point x="1008.0" y="912.0"/>
      <point x="898.0" y="980.0"/>
      <point x="750.0" y="980.0" type="curve" smooth="yes"/>
      <point x="439.03999999999996" y="980.0"/>
      <point x="152.0" y="656.0"/>
      <point x="152.0" y="346.0" type="curve" smooth="yes"/>
      <point x="152.0" y="124.0"/>
      <point x="290.0" y="-30.0"/>
      <point x="534.0" y="-30.0" type="curve" smooth="yes"/>
      <point x="826.0" y="-30.0"/>
      <point x="1022.0" y="148.0"/>
      <point x="1022.0" y="312.0" type="curve" smooth="yes"/>
      <point x="1022.0" y="356.0"/>
      <point x="1000.0" y="396.0"/>
      <point x="950.0" y="396.0" type="curve" smooth="yes"/>
      <point x="904.0" y="396.0"/>
      <point x="862.0" y="360.0"/>
      <point x="832.0" y="292.0" type="curve" smooth="yes"/>
      <point x="796.0" y="212.0"/>
      <point x="726.0" y="158.0"/>
      <point x="638.0" y="158.0" type="curve" smooth="yes"/>
      <point x="532.0" y="158.0"/>
      <point x="460.0" y="248.0"/>
      <point x="460.0" y="410.0" type="curve" smooth="yes"/>
      <point x="460.0" y="648.0"/>
      <point x="573.0" y="814.0"/>
      <point x="686.0" y="814.0" type="curve" smooth="yes"/>
      <point x="734.0" y="814.0"/>
      <point x="762.0" y="772.0"/>
      <point x="762.0" y="704.0" type="curve" smooth="yes"/>
      <point x="762.0" y="646.0"/>
      <point x="752.0" y="594.0"/>
      <point x="728.0" y="546.0" type="curve"/>
      <point x="886.0" y="656.0" type="line"/>
      <point x="693.2210396792965" y="560.6042258206828"/>
      <point x="320.0" y="434.0"/>
    </contour>
    <contour>
      <point x="747.8543842169094" y="1210.0" type="curve" smooth="yes"/>
      <point x="614.0082873086441" y="1330.0" type="line" smooth="yes"/>
      <point x="523.9801210879962" y="1412.0"/>
      <point x="440.69808878524105" y="1452.0"/>
      <point x="362.69808878524105" y="1452.0" type="curve" smooth="yes"/>
      <point x="284.69808878524105" y="1452.0"/>
      <point x="250.12371462744505" y="1420.0"/>
      <point x="250.0467630815777" y="1360.0" type="curve" smooth="yes"/>
      <point x="249.04160830543486" y="1304.0"/>
      <point x="301.64414868387877" y="1254.0"/>
      <point x="396.39028260177156" y="1212.0" type="curve" smooth="yes"/>
      <point x="596.2748552829705" y="1122.0" type="line" smooth="yes"/>
      <point x="653.3081762797614" y="1096.0"/>
      <point x="701.0209892008634" y="1080.0"/>
      <point x="733.0209892008634" y="1080.0" type="curve" smooth="yes"/>
      <point x="771.0209892008634" y="1080.0"/>
      <point x="790.9158714343482" y="1102.0"/>
      <point x="790.9543472072819" y="1132.0" type="curve" smooth="yes"/>
      <point x="792.4569245953533" y="1160.0"/>
      <point x="771.9595019834246" y="1188.0"/>
    </contour>
  </outline>
</glyph>
<glyph name="iacute" format="2">
  <advance width="666"/>
  <unicode hex="00ED"/>
  <outline>
    <contour>
      <point x="520.0" y="270.0" type="curve" smooth="yes"/>
      <point x="520.0" y="234.0"/>
      <point x="536.0" y="216.0"/>
      <point x="560.0" y="216.0" type="curve" smooth="yes"/>
      <point x="576.0" y="216.0"/>
      <point x="590.0" y="226.0"/>
      <point x="604.0" y="240.0" type="curve" smooth="yes"/>
      <point x="624.0" y="258.0"/>
      <point x="638.0" y="264.0"/>
      <point x="658.0" y="264.0" type="curve" smooth="yes"/>
      <point x="684.0" y="264.0"/>
      <point x="702.0" y="240.0"/>
      <point x="702.0" y="202.0" type="curve" smooth="yes"/>
      <point x="702.0" y="96.0"/>
      <point x="590.0" y="-30.0"/>
      <point x="386.0" y="-30.0" type="curve" smooth="yes"/>
      <point x="274.0" y="-30.0"/>
      <point x="200.0" y="26.0"/>
      <point x="200.0" y="112.0" type="curve" smooth="yes"/>
      <point x="200.0" y="186.0"/>
      <point x="228.0" y="254.0"/>
      <point x="262.0" y="332.0" type="curve" smooth="yes"/>
      <point x="394.0" y="616.0" type="line" smooth="yes"/>
      <point x="406.0" y="640.0"/>
      <point x="414.0" y="658.0"/>
      <point x="414.0" y="686.0" type="curve" smooth="yes"/>
      <point x="414.0" y="708.0"/>
      <point x="398.0" y="732.0"/>
      <point x="372.0" y="732.0" type="curve" smooth="yes"/>
      <point x="354.0" y="732.0"/>
      <point x="344.0" y="726.0"/>
      <point x="328.0" y="710.0" type="curve" smooth="yes"/>
      <point x="308.0" y="690.0"/>
      <point x="292.0" y="682.0"/>
      <point x="274.0" y="682.0" type="curve" smooth="yes"/>
      <point x="244.0" y="682.0"/>
      <point x="212.0" y="702.0"/>
      <point x="212.0" y="750.0" type="curve" smooth="yes"/>
      <point x="212.0" y="850.0"/>
      <point x="374.0" y="980.0"/>
      <point x="580.0" y="980.0" type="curve" smooth="yes"/>
      <point x="674.0" y="980.0"/>
      <point x="718.0" y="922.0"/>
      <point x="718.0" y="842.0" type="curve" smooth="yes"/>
      <point x="718.0" y="774.0"/>
      <point x="692.0" y="696.0"/>
      <point x="648.0" y="598.0" type="curve" smooth="yes"/>
      <point x="546.0" y="374.0" type="line" smooth="yes"/>
      <point x="530.0" y="340.0"/>
      <point x="520.0" y="304.0"/>
    </contour>
    <contour>
      <point x="557.2153903092199" y="1210.0" type="curve" smooth="yes"/>
      <point x="723.2153903092199" y="1330.0" type="line" smooth="yes"/>
      <point x="835.2153903092199" y="1412.0"/>
      <point x="929.2153903092199" y="1452.0"/>
      <point x="1007.2153903092199" y="1452.0" type="curve" smooth="yes"/>
      <point x="1085.2153903092199" y="1452.0"/>
      <point x="1111.2153903092199" y="1420.0"/>
      <point x="1095.2153903092199" y="1360.0" type="curve" smooth="yes"/>
      <point x="1081.2153903092199" y="1304.0"/>
      <point x="1015.2153903092199" y="1254.0"/>
      <point x="909.2153903092199" y="1212.0" type="curve" smooth="yes"/>
      <point x="685.2153903092199" y="1122.0" type="line" smooth="yes"/>
      <point x="621.2153903092199" y="1096.0"/>
      <point x="569.2153903092199" y="1080.0"/>
      <point x="537.2153903092199" y="1080.0" type="curve" smooth="yes"/>
      <point x="499.2153903092199" y="1080.0"/>
      <point x="485.2153903092199" y="1102.0"/>
      <point x="493.2153903092199" y="1132.0" type="curve" smooth="yes"/>
      <point x="499.2153903092199" y="1160.0"/>
      <point x="527.2153903092199" y="1188.0"/>
    </contour>
  </outline>
</glyph>
<glyph name="idieresis" format="2">
  <advance width="666"/>
  <unicode hex="00EF"/>
  <outline>
    <contour>
      <point x="520.0" y="270.0" type="curve" smooth="yes"/>
      <point x="520.0" y="234.0"/>
      <point x="536.0" y="216.0"/>
      <point x="560.0" y="216.0" type="curve" smooth="yes"/>
      <point x="576.0" y="216.0"/>
      <point x="590.0" y="226.0"/>
      <point x="604.0" y="240.0" type="curve" smooth="yes"/>
      <point x="624.0" y="258.0"/>
      <point x="638.0" y="264.0"/>
      <point x="658.0" y="264.0" type="curve" smooth="yes"/>
      <point x="684.0" y="264.0"/>
      <point x="702.0" y="240.0"/>
      <point x="702.0" y="202.0" type="curve" smooth="yes"/>
      <point x="702.0" y="96.0"/>
      <point x="590.0" y="-30.0"/>
      <point x="386.0" y="-30.0" type="curve" smooth="yes"/>
      <point x="274.0" y="-30.0"/>
      <point x="200.0" y="26.0"/>
      <point x="200.0" y="112.0" type="curve" smooth="yes"/>
      <point x="200.0" y="186.0"/>
      <point x="228.0" y="254.0"/>
      <point x="262.0" y="332.0" type="curve" smooth="yes"/>
      <point x="394.0" y="616.0" type="line" smooth="yes"/>
      <point x="406.0" y="640.0"/>
      <point x="414.0" y="658.0"/>
      <point x="414.0" y="686.0" type="curve" smooth="yes"/>
      <point x="414.0" y="708.0"/>
      <point x="398.0" y="732.0"/>
      <point x="372.0" y="732.0" type="curve" smooth="yes"/>
      <point x="354.0" y="732.0"/>
      <point x="344.0" y="726.0"/>
      <point x="328.0" y="710.0" type="curve" smooth="yes"/>
      <point x="308.0" y="690.0"/>
      <point x="292.0" y="682.0"/>
      <point x="274.0" y="682.0" type="curve" smooth="yes"/>
      <point x="244.0" y="682.0"/>
      <point x="212.0" y="702.0"/>
      <point x="212.0" y="750.0" type="curve" smooth="yes"/>
      <point x="212.0" y="850.0"/>
      <point x="374.0" y="980.0"/>
      <point x="580.0" y="980.0" type="curve" smooth="yes"/>
      <point x="674.0" y="980.0"/>
      <point x="718.0" y="922.0"/>
      <point x="718.0" y="842.0" type="curve" smooth="yes"/>
      <point x="718.0" y="774.0"/>
      <point x="692.0" y="696.0"/>
      <point x="648.0" y="598.0" type="curve" smooth="yes"/>
      <point x="546.0" y="374.0" type="line" smooth="yes"/>
      <point x="530.0" y="340.0"/>
      <point x="520.0" y="304.0"/>
    </contour>
    <contour>
      <point x="817.1452138021592" y="1080.0" type="curve" smooth="yes"/>
      <point x="934.4084973842489" y="1080.0"/>
      <point x="1035.3852138021591" y="1171.83825"/>
      <point x="1035.3852138021591" y="1274.481" type="curve" smooth="yes"/>
      <point x="1035.3852138021591" y="1361.493692307692"/>
      <point x="975.6378453811067" y="1423.3184999999999"/>
      <point x="884.0252138021592" y="1423.3184999999999" type="curve" smooth="yes"/>
      <point x="760.322356659302" y="1423.3184999999999"/>
      <point x="667.5452138021592" y="1324.1845321100918"/>
      <point x="667.5452138021592" y="1226.8529999999998" type="curve" smooth="yes"/>
      <point x="667.5452138021592" y="1135.069875"/>
      <point x="725.3905471354925" y="1080.0"/>
    </contour>
    <contour>
      <point x="817.1452138021592" y="1080.0" type="curve" smooth="yes"/>
      <point x="934.4084973842489" y="1080.0"/>
      <point x="1035.3852138021591" y="1171.83825"/>
      <point x="1035.3852138021591" y="1274.481" type="curve" smooth="yes"/>
      <point x="1035.3852138021591" y="1361.493692307692"/>
      <point x="975.6378453811067" y="1423.3184999999999"/>
      <point x="884.0252138021592" y="1423.3184999999999" type="curve" smooth="yes"/>
      <point x="760.322356659302" y="1423.3184999999999"/>
      <point x="667.5452138021592" y="1324.1845321100918"/>
      <point x="667.5452138021592" y="1226.8529999999998" type="curve" smooth="yes"/>
      <point x="667.5452138021592" y="1135.069875"/>
      <point x="725.3905471354925" y="1080.0"/>
    </contour>
    <contour>
      <point x="383.1452138021592" y="1080.0" type="curve" smooth="yes"/>
      <point x="500.4084973842488" y="1080.0"/>
      <point x="601.3852138021592" y="1171.83825"/>
      <point x="601.3852138021592" y="1274.481" type="curve" smooth="yes"/>
      <point x="601.3852138021592" y="1361.493692307692"/>
      <point x="541.6378453811067" y="1423.3184999999999"/>
      <point x="450.0252138021592" y="1423.3184999999999" type="curve" smooth="yes"/>
      <point x="326.32235665930205" y="1423.3184999999999"/>
      <point x="233.5452138021592" y="1324.1845321100918"/>
      <point x="233.5452138021592" y="1226.8529999999998" type="curve" smooth="yes"/>
      <point x="233.5452138021592" y="1135.069875"/>
      <point x="291.3905471354925" y="1080.0"/>
    </contour>
    <contour>
      <point x="383.1452138021592" y="1080.0" type="curve" smooth="yes"/>
      <point x="500.4084973842488" y="1080.0"/>
      <point x="601.3852138021592" y="1171.83825"/>
      <point x="601.3852138021592" y="1274.481" type="curve" smooth="yes"/>
      <point x="601.3852138021592" y="1361.493692307692"/>
      <point x="541.6378453811067" y="1423.3184999999999"/>
      <point x="450.0252138021592" y="1423.3184999999999" type="curve" smooth="yes"/>
      <point x="326.32235665930205" y="1423.3184999999999"/>
      <point x="233.5452138021592" y="1324.1845321100918"/>
      <point x="233.5452138021592" y="1226.8529999999998" type="curve" smooth="yes"/>
      <point x="233.5452138021592" y="1135.069875"/>
      <point x="291.3905471354925" y="1080.0"/>
    </contour>
    <contour>
      <point x="817.1452138021592" y="1080.0" type="curve" smooth="yes"/>
      <point x="934.4084973842489" y="1080.0"/>
      <point x="1035.3852138021591" y="1171.83825"/>
      <point x="1035.3852138021591" y="1274.481" type="curve" smooth="yes"/>
      <point x="1035.3852138021591" y="1361.493692307692"/>
      <point x="975.6378453811067" y="1423.3184999999999"/>
      <point x="884.0252138021592" y="1423.3184999999999" type="curve" smooth="yes"/>
      <point x="760.322356659302" y="1423.3184999999999"/>
      <point x="667.5452138021592" y="1324.1845321100918"/>
      <point x="667.5452138021592" y="1226.8529999999998" type="curve" smooth="yes"/>
      <point x="667.5452138021592" y="1135.069875"/>
      <point x="725.3905471354925" y="1080.0"/>
    </contour>
    <contour>
      <point x="817.1452138021592" y="1080.0" type="curve" smooth="yes"/>
      <point x="934.4084973842489" y="1080.0"/>
      <point x="1035.3852138021591" y="1171.83825"/>
      <point x="1035.3852138021591" y="1274.481" type="curve" smooth="yes"/>
      <point x="1035.3852138021591" y="1361.493692307692"/>
      <point x="975.6378453811067" y="1423.3184999999999"/>
      <point x="884.0252138021592" y="1423.3184999999999" type="curve" smooth="yes"/>
      <point x="760.322356659302" y="1423.3184999999999"/>
      <point x="667.5452138021592" y="1324.1845321100918"/>
      <point x="667.5452138021592" y="1226.8529999999998" type="curve" smooth="yes"/>
      <point x="667.5452138021592" y="1135.069875"/>
      <point x="725.3905471354925" y="1080.0"/>
    </contour>
    <contour>
      <point x="383.1452138021592" y="1080.0" type="curve" smooth="yes"/>
      <point x="500.4084973842488" y="1080.0"/>
      <point x="601.3852138021592" y="1171.83825"/>
      <point x="601.3852138021592" y="1274.481" type="curve" smooth="yes"/>
      <point x="601.3852138021592" y="1361.493692307692"/>
      <point x="541.6378453811067" y="1423.3184999999999"/>
      <point x="450.0252138021592" y="1423.3184999999999" type="curve" smooth="yes"/>
      <point x="326.32235665930205" y="1423.3184999999999"/>
      <point x="233.5452138021592" y="1324.1845321100918"/>
      <point x="233.5452138021592" y="1226.8529999999998" type="curve" smooth="yes"/>
      <point x="233.5452138021592" y="1135.069875"/>
      <point x="291.3905471354925" y="1080.0"/>
    </contour>
    <contour>
      <point x="383.1452138021592" y="1080.0" type="curve" smooth="yes"/>
      <point x="500.4084973842488" y="1080.0"/>
      <point x="601.3852138021592" y="1171.83825"/>
      <point x="601.3852138021592" y="1274.481" type="curve" smooth="yes"/>
      <point x="601.3852138021592" y="1361.493692307692"/>
      <point x="541.6378453811067" y="1423.3184999999999"/>
      <point x="450.0252138021592" y="1423.3184999999999" type="curve" smooth="yes"/>
      <point x="326.32235665930205" y="1423.3184999999999"/>
      <point x="233.5452138021592" y="1324.1845321100918"/>
      <point x="233.5452138021592" y="1226.8529999999998" type="curve" smooth="yes"/>
      <point x="233.5452138021592" y="1135.069875"/>
      <point x="291.3905471354925" y="1080.0"/>
    </contour>
  </outline>
</glyph>
<glyph name="oslash" format="2">
  <advance width="850"/>
  <unicode hex="00F8"/>
  <outline>
    <contour>
      <point x="984.0" y="1012.0" type="curve" smooth="yes"/>
      <point x="64.0" y="-50.0" type="line" smooth="yes"/>
      <point x="50.0" y="-68.0"/>
      <point x="44.0" y="-78.0"/>
      <point x="44.0" y="-90.0" type="curve" smooth="yes"/>
      <point x="42.0" y="-108.0"/>
      <point x="54.0" y="-128.0"/>
      <point x="78.0" y="-128.0" type="curve" smooth="yes"/>
      <point x="96.0" y="-128.0"/>
      <point x="112.0" y="-118.0"/>
      <point x="126.0" y="-102.0" type="curve" smooth="yes"/>
      <point x="1046.0" y="962.0" type="line" smooth="yes"/>
      <point x="1056.0" y="974.0"/>
      <point x="1062.0" y="990.0"/>
      <point x="1064.0" y="1004.0" type="curve" smooth="yes"/>
      <point x="1064.0" y="1024.0"/>
      <point x="1050.0" y="1038.0"/>
      <point x="1032.0" y="1038.0" type="curve" smooth="yes"/>
      <point x="1014.0" y="1038.0"/>
      <point x="996.0" y="1026.0"/>
    </contour>
    <contour>
      <point x="794.0" y="980.0" type="curve" smooth="yes"/>
      <point x="414.0" y="980.0"/>
      <point x="158.0" y="618.0"/>
      <point x="158.0" y="346.0" type="curve" smooth="yes"/>
      <point x="158.0" y="114.0"/>
      <point x="290.0" y="-30.0"/>
      <point x="512.0" y="-30.0" type="curve" smooth="yes"/>
      <point x="850.0" y="-30.0"/>
      <point x="1158.0" y="266.0"/>
      <point x="1158.0" y="632.0" type="curve" smooth="yes"/>
      <point x="1158.0" y="850.0"/>
      <point x="1034.0" y="980.0"/>
    </contour>
    <contour>
      <point x="588.0" y="152.0" type="curve" smooth="yes"/>
      <point x="512.0" y="152.0"/>
      <point x="470.0" y="216.0"/>
      <point x="470.0" y="362.0" type="curve" smooth="yes"/>
      <point x="470.0" y="622.0"/>
      <point x="616.0" y="810.0"/>
      <point x="724.0" y="810.0" type="curve" smooth="yes"/>
      <point x="800.0" y="810.0"/>
      <point x="844.0" y="754.0"/>
      <point x="844.0" y="616.0" type="curve" smooth="yes"/>
      <point x="844.0" y="324.0"/>
      <point x="680.0" y="152.0"/>
    </contour>
  </outline>
</glyph>
<glyph name="ucircumflex" format="2">
  <advance width="1198"/>
  <unicode hex="00FB"/>
  <outline>
    <contour>
      <point x="1188.0" y="256.0" type="curve" smooth="yes"/>
      <point x="1158.0" y="256.0"/>
      <point x="1142.0" y="250.0"/>
      <point x="1120.0" y="224.0" type="curve" smooth="yes"/>
      <point x="1108.0" y="210.0"/>
      <point x="1092.0" y="202.0"/>
      <point x="1078.0" y="202.0" type="curve" smooth="yes"/>
      <point x="1058.0" y="202.0"/>
      <point x="1044.0" y="228.0"/>
      <point x="1044.0" y="260.0" type="curve" smooth="yes"/>
      <point x="1044.0" y="280.0"/>
      <point x="1048.0" y="302.0"/>
      <point x="1060.0" y="330.0" type="curve" smooth="yes"/>
      <point x="1222.0" y="714.0" type="line" smooth="yes"/>
      <point x="1244.0" y="766.0"/>
      <point x="1264.0" y="814.1"/>
      <point x="1264.0" y="868.0" type="curve" smooth="yes"/>
      <point x="1264.0" y="946.0"/>
      <point x="1213.75" y="982.0"/>
      <point x="1130.0" y="982.0" type="curve" smooth="yes"/>
      <point x="998.0" y="982.0"/>
      <point x="898.0" y="914.0"/>
      <point x="898.0" y="838.0" type="curve" smooth="yes"/>
      <point x="898.0" y="796.0"/>
      <point x="922.0" y="738.0"/>
      <point x="922.0" y="700.0" type="curve" smooth="yes"/>
      <point x="922.0" y="666.0"/>
      <point x="912.0" y="616.0"/>
      <point x="874.0" y="510.0" type="curve" smooth="yes"/>
      <point x="794.2308319283997" y="295.762805750559"/>
      <point x="680.9295774647887" y="206.0"/>
      <point x="576.0" y="206.0" type="curve" smooth="yes"/>
      <point x="538.0" y="206.0"/>
      <point x="516.0" y="230.0"/>
      <point x="516.0" y="264.0" type="curve" smooth="yes"/>
      <point x="516.0" y="305.0232558139535"/>
      <point x="530.0" y="348.0"/>
      <point x="548.0" y="390.0" type="curve" smooth="yes"/>
      <point x="666.0" y="660.0" type="line" smooth="yes"/>
      <point x="696.0" y="730.0"/>
      <point x="708.0" y="773.9759036144578"/>
      <point x="708.0" y="832.0" type="curve" smooth="yes"/>
      <point x="708.0" y="918.0"/>
      <point x="640.0" y="982.0"/>
      <point x="518.0" y="982.0" type="curve" smooth="yes"/>
      <point x="328.0" y="982.0"/>
      <point x="212.0" y="880.0"/>
      <point x="212.0" y="774.0" type="curve" smooth="yes"/>
      <point x="212.0" y="722.0"/>
      <point x="234.0" y="696.0"/>
      <point x="260.0" y="696.0" type="curve" smooth="yes"/>
      <point x="276.0" y="696.0"/>
      <point x="294.0" y="704.0"/>
      <point x="306.0" y="718.0" type="curve" smooth="yes"/>
      <point x="324.0" y="740.0"/>
      <point x="342.0" y="746.0"/>
      <point x="362.0" y="746.0" type="curve" smooth="yes"/>
      <point x="382.0" y="746.0"/>
      <point x="396.0" y="728.0"/>
      <point x="396.0" y="692.0" type="curve" smooth="yes"/>
      <point x="396.0" y="656.0"/>
      <point x="388.0" y="624.0"/>
      <point x="378.0" y="598.0" type="curve" smooth="yes"/>
      <point x="274.0" y="342.0" type="line" smooth="yes"/>
      <point x="242.0" y="262.0"/>
      <point x="226.0" y="208.0"/>
      <point x="226.0" y="138.0" type="curve" smooth="yes"/>
      <point x="226.0" y="44.0"/>
      <point x="286.0" y="-28.0"/>
      <point x="394.0" y="-28.0" type="curve" smooth="yes"/>
      <point x="552.0" y="-28.0"/>
      <point x="718.0" y="80.0"/>
      <point x="888.0" y="342.0" type="curve"/>
      <point x="844.0" y="362.0" type="line"/>
      <point x="844.0" y="312.0"/>
      <point x="770.0" y="178.0"/>
      <point x="770.0" y="104.0" type="curve" smooth="yes"/>
      <point x="770.0" y="16.0"/>
      <point x="832.0" y="-28.0"/>
      <point x="920.0" y="-28.0" type="curve" smooth="yes"/>
      <point x="1092.0" y="-28.0"/>
      <point x="1244.0" y="100.0"/>
      <point x="1244.0" y="188.0" type="curve" smooth="yes"/>
      <point x="1244.0" y="232.0"/>
      <point x="1216.0" y="256.0"/>
    </contour>
    <contour>
      <point x="1218.0748841824598" y="1194.0" type="curve" smooth="yes"/>
      <point x="1162.0748841824598" y="1310.0" type="line" smooth="yes"/>
      <point x="1122.0748841824598" y="1392.0"/>
      <point x="1072.0748841824598" y="1418.0"/>
      <point x="1000.0748841824598" y="1418.0" type="curve" smooth="yes"/>
      <point x="934.0748841824598" y="1418.0"/>
      <point x="870.0748841824598" y="1392.0"/>
      <point x="784.0748841824598" y="1310.0" type="curve" smooth="yes"/>
      <point x="662.0748841824598" y="1194.0" type="line" smooth="yes"/>
      <point x="644.0748841824598" y="1176.0"/>
      <point x="616.0748841824598" y="1150.0"/>
      <point x="610.0748841824598" y="1128.0" type="curve" smooth="yes"/>
      <point x="602.0748841824598" y="1096.0"/>
      <point x="616.0748841824598" y="1082.0"/>
      <point x="650.0748841824598" y="1082.0" type="curve" smooth="yes"/>
      <point x="676.0748841824598" y="1082.0"/>
      <point x="702.0748841824598" y="1092.0"/>
      <point x="756.0748841824598" y="1124.0" type="curve" smooth="yes"/>
      <point x="1028.0748841824598" y="1278.0" type="line"/>
      <point x="900.0748841824598" y="1278.0" type="line"/>
      <point x="1088.0748841824598" y="1124.0" type="line" smooth="yes"/>
      <point x="1124.0748841824598" y="1094.0"/>
      <point x="1146.0748841824598" y="1084.0"/>
      <point x="1172.0748841824598" y="1084.0" type="curve" smooth="yes"/>
      <point x="1206.0748841824598" y="1084.0"/>
      <point x="1226.0748841824598" y="1098.0"/>
      <point x="1236.0748841824598" y="1130.0" type="curve" smooth="yes"/>
      <point x="1242.0748841824598" y="1152.0"/>
      <point x="1228.0748841824598" y="1176.0"/>
    </contour>
  </outline>
</glyph>
<glyph name="cacute" format="2">
  <advance width="918"/>
  <unicode hex="0107"/>
  <outline>
    <contour>
      <point x="686.0" y="814.0" type="curve" smooth="yes"/>
      <point x="728.0" y="814.0"/>
      <point x="754.0" y="780.0"/>
      <point x="754.0" y="738.0" type="curve" smooth="yes"/>
      <point x="754.0" y="706.0"/>
      <point x="740.0" y="668.0"/>
      <point x="740.0" y="642.0" type="curve" smooth="yes"/>
      <point x="740.0" y="572.0"/>
      <point x="788.0" y="528.0"/>
      <point x="858.0" y="528.0" type="curve" smooth="yes"/>
      <point x="960.0" y="528.0"/>
      <point x="1044.0" y="608.0"/>
      <point x="1044.0" y="742.0" type="curve" smooth="yes"/>
      <point x="1044.0" y="860.0"/>
      <point x="952.0" y="980.0"/>
      <point x="768.0" y="980.0" type="curve" smooth="yes"/>
      <point x="439.08196721311475" y="980.0"/>
      <point x="160.0" y="660.0"/>
      <point x="160.0" y="316.0" type="curve" smooth="yes"/>
      <point x="160.0" y="124.0"/>
      <point x="292.0" y="-30.0"/>
      <point x="512.0" y="-30.0" type="curve" smooth="yes"/>
      <point x="768.0" y="-30.0"/>
      <point x="954.0" y="136.0"/>
      <point x="954.0" y="280.0" type="curve" smooth="yes"/>
      <point x="954.0" y="338.0"/>
      <point x="930.0" y="374.0"/>
      <point x="896.0" y="374.0" type="curve" smooth="yes"/>
      <point x="854.0" y="374.0"/>
      <point x="824.0" y="342.0"/>
      <point x="802.0" y="306.0" type="curve" smooth="yes"/>
      <point x="752.0" y="226.0"/>
      <point x="692.0" y="164.0"/>
      <point x="596.0" y="164.0" type="curve" smooth="yes"/>
      <point x="517.8333333333334" y="164.0"/>
      <point x="462.0" y="258.0"/>
      <point x="462.0" y="408.0" type="curve" smooth="yes"/>
      <point x="462.0" y="640.0"/>
      <point x="571.0265486725664" y="814.0"/>
    </contour>
    <contour>
      <point x="706.8897274573592" y="1210.0" type="curve" smooth="yes"/>
      <point x="872.8897274573592" y="1330.0" type="line" smooth="yes"/>
      <point x="984.8897274573592" y="1412.0"/>
      <point x="1078.8897274573592" y="1452.0"/>
      <point x="1156.8897274573592" y="1452.0" type="curve" smooth="yes"/>
      <point x="1234.8897274573592" y="1452.0"/>
      <point x="1260.8897274573592" y="1420.0"/>
      <point x="1244.8897274573592" y="1360.0" type="curve" smooth="yes"/>
      <point x="1230.8897274573592" y="1304.0"/>
      <point x="1164.8897274573592" y="1254.0"/>
      <point x="1058.8897274573592" y="1212.0" type="curve" smooth="yes"/>
      <point x="834.8897274573592" y="1122.0" type="line" smooth="yes"/>
      <point x="770.8897274573592" y="1096.0"/>
      <point x="718.8897274573592" y="1080.0"/>
      <point x="686.8897274573592" y="1080.0" type="curve" smooth="yes"/>
      <point x="648.8897274573592" y="1080.0"/>
      <point x="634.8897274573592" y="1102.0"/>
      <point x="642.8897274573592" y="1132.0" type="curve" smooth="yes"/>
      <point x="648.8897274573592" y="1160.0"/>
      <point x="676.8897274573592" y="1188.0"/>
    </contour>
  </outline>
</glyph>
<glyph name="Ccircumflex" format="2">
  <advance width="1298"/>
  <unicode hex="0108"/>
  <outline>
    <contour>
      <point x="1358.0" y="370.0" type="curve" smooth="yes"/>
      <point x="1358.0" y="418.64864864864865"/>
      <point x="1336.0" y="442.0"/>
      <point x="1300.0" y="442.0" type="curve" smooth="yes"/>
      <point x="1256.0" y="442.0"/>
      <point x="1221.336812485725" y="415.5383781043013"/>
      <point x="1172.0" y="344.0" type="curve" smooth="yes"/>
      <point x="1097.3754563603786" y="234.933359295938"/>
      <point x="1006.2857142857142" y="192.0"/>
      <point x="882.0" y="192.0" type="curve" smooth="yes"/>
      <point x="719.7142857142858" y="192.0"/>
      <point x="598.0" y="341.4505494505495"/>
      <point x="598.0" y="592.0" type="curve" smooth="yes"/>
      <point x="598.0" y="945.5537190082644"/>
      <point x="818.0" y="1282.0"/>
      <point x="1062.0" y="1282.0" type="curve" smooth="yes"/>
      <point x="1193.0569105691056" y="1282.0"/>
      <point x="1256.9014100815289" y="1236.704221337775"/>
      <point x="1310.0" y="1106.0" type="curve" smooth="yes"/>
      <point x="1336.0" y="1042.0" type="line" smooth="yes"/>
      <point x="1361.8227111703563" y="978.4364032729693"/>
      <point x="1396.8524590163934" y="942.0"/>
      <point x="1452.0" y="942.0" type="curve" smooth="yes"/>
      <point x="1495.5294117647059" y="942.0"/>
      <point x="1530.4152053626578" y="976.0033289792118"/>
      <point x="1526.0" y="1058.0" type="curve" smooth="yes"/>
      <point x="1512.0" y="1318.0" type="line" smooth="yes"/>
      <point x="1508.0" y="1388.0"/>
      <point x="1486.0" y="1430.0"/>
      <point x="1446.0" y="1430.0" type="curve" smooth="yes"/>
      <point x="1404.0" y="1430.0"/>
      <point x="1370.0" y="1380.0"/>
      <point x="1322.0" y="1380.0" type="curve" smooth="yes"/>
      <point x="1276.0" y="1380.0"/>
      <point x="1196.0" y="1430.0"/>
      <point x="1076.0" y="1430.0" type="curve" smooth="yes"/>
      <point x="584.0" y="1430.0"/>
      <point x="222.0" y="979.2622950819672"/>
      <point x="222.0" y="490.0" type="curve" smooth="yes"/>
      <point x="222.0" y="178.42975206611573"/>
      <point x="426.0" y="-30.0"/>
      <point x="742.0" y="-30.0" type="curve" smooth="yes"/>
      <point x="1028.0" y="-30.0"/>
      <point x="1250.0" y="100.0"/>
      <point x="1326.0" y="266.0" type="curve" smooth="yes"/>
      <point x="1348.0" y="314.0"/>
      <point x="1358.0" y="338.0"/>
    </contour>
    <contour>
      <point x="1447.2440767160258" y="1630.8" type="curve" smooth="yes"/>
      <point x="1388.4440767160258" y="1735.2" type="line" smooth="yes"/>
      <point x="1346.4440767160258" y="1809.0"/>
      <point x="1293.9440767160258" y="1832.4"/>
      <point x="1218.344076716026" y="1832.4" type="curve" smooth="yes"/>
      <point x="1149.0440767160258" y="1832.4"/>
      <point x="1081.8440767160257" y="1809.0"/>
      <point x="991.5440767160258" y="1735.2" type="curve" smooth="yes"/>
      <point x="863.4440767160258" y="1630.8" type="line" smooth="yes"/>
      <point x="844.5440767160258" y="1614.6000000000001"/>
      <point x="815.1440767160257" y="1591.2"/>
      <point x="808.8440767160257" y="1571.4" type="curve" smooth="yes"/>
      <point x="800.4440767160258" y="1542.6000000000001"/>
      <point x="815.1440767160257" y="1530.0"/>
      <point x="850.8440767160257" y="1530.0" type="curve" smooth="yes"/>
      <point x="878.1440767160257" y="1530.0"/>
      <point x="905.4440767160257" y="1539.0"/>
      <point x="962.1440767160258" y="1567.8" type="curve" smooth="yes"/>
      <point x="1247.7440767160258" y="1706.4" type="line"/>
      <point x="1113.344076716026" y="1706.4" type="line"/>
      <point x="1310.7440767160258" y="1567.8" type="line" smooth="yes"/>
      <point x="1348.5440767160258" y="1540.8"/>
      <point x="1371.6440767160257" y="1531.8"/>
      <point x="1398.9440767160258" y="1531.8" type="curve" smooth="yes"/>
      <point x="1434.6440767160257" y="1531.8"/>
      <point x="1455.6440767160257" y="1544.4"/>
      <point x="1466.1440767160257" y="1573.2" type="curve" smooth="yes"/>
      <point x="1472.4440767160258" y="1593.0"/>
      <point x="1457.7440767160258" y="1614.6000000000001"/>
    </contour>
  </outline>
</glyph>
<glyph name="ccaron" format="2">
  <advance width="918"/>
  <unicode hex="010D"/>
  <outline>
    <contour>
      <point x="686.0" y="814.0" type="curve" smooth="yes"/>
      <point x="728.0" y="814.0"/>
      <point x="754.0" y="780.0"/>
      <point x="754.0" y="738.0" type="curve" smooth="yes"/>
      <point x="754.0" y="706.0"/>
      <point x="740.0" y="668.0"/>
      <point x="740.0" y="642.0" type="curve" smooth="yes"/>
      <point x="740.0" y="572.0"/>
      <point x="788.0" y="528.0"/>
      <point x="858.0" y="528.0" type="curve" smooth="yes"/>
      <point x="960.0" y="528.0"/>
      <point x="1044.0" y="608.0"/>
      <point x="1044.0" y="742.0" type="curve" smooth="yes"/>
      <point x="1044.0" y="860.0"/>
      <point x="952.0" y="980.0"/>
      <point x="768.0" y="980.0" type="curve" smooth="yes"/>
      <point x="439.08196721311475" y="980.0"/>
      <point x="160.0" y="660.0"/>
      <point x="160.0" y="316.0" type="curve" smooth="yes"/>
      <point x="160.0" y="124.0"/>
      <point x="292.0" y="-30.0"/>
      <point x="512.0" y="-30.0" type="curve" smooth="yes"/>
      <point x="768.0" y="-30.0"/>
      <point x="954.0" y="136.0"/>
      <point x="954.0" y="280.0" type="curve" smooth="yes"/>
      <point x="954.0" y="338.0"/>
      <point x="930.0" y="374.0"/>
      <point x="896.0" y="374.0" type="curve" smooth="yes"/>
      <point x="854.0" y="374.0"/>
      <point x="824.0" y="342.0"/>
      <point x="802.0" y="306.0" type="curve" smooth="yes"/>
      <point x="752.0" y="226.0"/>
      <point x="692.0" y="164.0"/>
      <point x="596.0" y="164.0" type="curve" smooth="yes"/>
      <point x="517.8333333333334" y="164.0"/>
      <point x="462.0" y="258.0"/>
      <point x="462.0" y="408.0" type="curve" smooth="yes"/>
      <point x="462.0" y="640.0"/>
      <point x="571.0265486725664" y="814.0"/>
    </contour>
    <contour>
      <point x="487.78428471442726" y="1304.0" type="curve" smooth="yes"/>
      <point x="543.7842847144273" y="1188.0" type="line" smooth="yes"/>
      <point x="583.7842847144273" y="1106.0"/>
      <point x="633.7842847144273" y="1080.0"/>
      <point x="705.7842847144273" y="1080.0" type="curve" smooth="yes"/>
      <point x="771.7842847144273" y="1080.0"/>
      <point x="835.7842847144273" y="1106.0"/>
      <point x="921.7842847144273" y="1188.0" type="curve" smooth="yes"/>
      <point x="1043.7842847144273" y="1304.0" type="line" smooth="yes"/>
      <point x="1061.7842847144273" y="1322.0"/>
      <point x="1089.7842847144273" y="1348.0"/>
      <point x="1095.7842847144273" y="1370.0" type="curve" smooth="yes"/>
      <point x="1103.7842847144273" y="1402.0"/>
      <point x="1089.7842847144273" y="1416.0"/>
      <point x="1055.7842847144273" y="1416.0" type="curve" smooth="yes"/>
      <point x="1029.7842847144273" y="1416.0"/>
      <point x="1003.7842847144273" y="1406.0"/>
      <point x="949.7842847144273" y="1374.0" type="curve" smooth="yes"/>
      <point x="677.7842847144273" y="1220.0" type="line"/>
      <point x="805.7842847144273" y="1220.0" type="line"/>
      <point x="617.7842847144273" y="1374.0" type="line" smooth="yes"/>
      <point x="581.7842847144273" y="1404.0"/>
      <point x="559.7842847144273" y="1414.0"/>
      <point x="533.7842847144273" y="1414.0" type="curve" smooth="yes"/>
      <point x="499.78428471442726" y="1414.0"/>
      <point x="479.78428471442726" y="1400.0"/>
      <point x="469.78428471442726" y="1368.0" type="curve" smooth="yes"/>
      <point x="463.78428471442726" y="1346.0"/>
      <point x="477.78428471442726" y="1322.0"/>
    </contour>
  </outline>
</glyph>
<glyph name="emacron" format="2">
  <advance width="984"/>
  <unicode hex="0113"/>
  <outline>
    <contour>
      <point x="320.0" y="434.0" type="curve"/>
      <point x="330.0" y="308.0" type="line"/>
      <point x="330.0" y="308.0"/>
      <point x="810.9168591948853" y="484.32868537175136"/>
      <point x="1022.0" y="560.0" type="curve" smooth="yes"/>
      <point x="1090.0" y="584.0"/>
      <point x="1114.0" y="624.0"/>
      <point x="1114.0" y="666.0" type="curve" smooth="yes"/>
      <point x="1114.0" y="700.0"/>
      <point x="1096.0" y="722.0"/>
      <point x="1066.0" y="730.0" type="curve" smooth="yes"/>
      <point x="1044.0" y="736.0"/>
      <point x="1028.0" y="754.0"/>
      <point x="1024.0" y="788.0" type="curve" smooth="yes"/>
      <point x="1008.0" y="912.0"/>
      <point x="898.0" y="980.0"/>
      <point x="750.0" y="980.0" type="curve" smooth="yes"/>
      <point x="439.03999999999996" y="980.0"/>
      <point x="152.0" y="656.0"/>
      <point x="152.0" y="346.0" type="curve" smooth="yes"/>
      <point x="152.0" y="124.0"/>
      <point x="290.0" y="-30.0"/>
      <point x="534.0" y="-30.0" type="curve" smooth="yes"/>
      <point x="826.0" y="-30.0"/>
      <point x="1022.0" y="148.0"/>
      <point x="1022.0" y="312.0" type="curve" smooth="yes"/>
      <point x="1022.0" y="356.0"/>
      <point x="1000.0" y="396.0"/>
      <point x="950.0" y="396.0" type="curve" smooth="yes"/>
      <point x="904.0" y="396.0"/>
      <point x="862.0" y="360.0"/>
      <point x="832.0" y="292.0" type="curve" smooth="yes"/>
      <point x="796.0" y="212.0"/>
      <point x="726.0" y="158.0"/>
      <point x="638.0" y="158.0" type="curve" smooth="yes"/>
      <point x="532.0" y="158.0"/>
      <point x="460.0" y="248.0"/>
      <point x="460.0" y="410.0" type="curve" smooth="yes"/>
      <point x="460.0" y="648.0"/>
      <point x="573.0" y="814.0"/>
      <point x="686.0" y="814.0" type="curve" smooth="yes"/>
      <point x="734.0" y="814.0"/>
      <point x="762.0" y="772.0"/>
      <point x="762.0" y="704.0" type="curve" smooth="yes"/>
      <point x="762.0" y="646.0"/>
      <point x="752.0" y="594.0"/>
      <point x="728.0" y="546.0" type="curve"/>
      <point x="886.0" y="656.0" type="line"/>
      <point x="693.2210396792965" y="560.6042258206828"/>
      <point x="320.0" y="434.0"/>
    </contour>
    <contour>
      <point x="408.5892473463115" y="1216.0" type="curve" smooth="yes"/>
      <point x="394.5892473463115" y="1164.0"/>
      <point x="416.5892473463115" y="1130.0"/>
      <point x="468.5892473463115" y="1130.0" type="curve" smooth="yes"/>
      <point x="968.5892473463115" y="1130.0" type="line" smooth="yes"/>
      <point x="1020.5892473463115" y="1130.0"/>
      <point x="1064.5892473463114" y="1164.0"/>
      <point x="1078.5892473463114" y="1216.0" type="curve" smooth="yes"/>
      <point x="1092.5892473463114" y="1270.0"/>
      <point x="1066.5892473463114" y="1306.0"/>
      <point x="1016.5892473463115" y="1306.0" type="curve" smooth="yes"/>
      <point x="518.5892473463115" y="1306.0" type="line" smooth="yes"/>
      <point x="468.5892473463115" y="1306.0"/>
      <point x="422.5892473463115" y="1270.0"/>
    </contour>
  </outline>
</glyph>
<glyph name="eogonek" format="2">
  <advance width="984"/>
  <unicode hex="0119"/>
  <outline>
    <contour>
      <point x="320.0" y="434.0" type="curve"/>
      <point x="330.0" y="308.0" type="line"/>
      <point x="330.0" y="308.0"/>
      <point x="810.9168591948853" y="484.32868537175136"/>
      <point x="1022.0" y="560.0" type="curve" smooth="yes"/>
      <point x="1090.0" y="584.0"/>
      <point x="1114.0" y="624.0"/>
      <point x="1114.0" y="666.0" type="curve" smooth="yes"/>
      <point x="1114.0" y="700.0"/>
      <point x="1096.0" y="722.0"/>
      <point x="1066.0" y="730.0" type="curve" smooth="yes"/>
      <point x="1044.0" y="736.0"/>
      <point x="1028.0" y="754.0"/>
      <point x="1024.0" y="788.0" type="curve" smooth="yes"/>
      <point x="1008.0" y="912.0"/>
      <point x="898.0" y="980.0"/>
      <point x="750.0" y="980.0" type="curve" smooth="yes"/>
      <point x="439.03999999999996" y="980.0"/>
      <point x="152.0" y="656.0"/>
      <point x="152.0" y="346.0" type="curve" smooth="yes"/>
      <point x="152.0" y="124.0"/>
      <point x="290.0" y="-30.0"/>
      <point x="534.0" y="-30.0" type="curve" smooth="yes"/>
      <point x="826.0" y="-30.0"/>
      <point x="1022.0" y="148.0"/>
      <point x="1022.0" y="312.0" type="curve" smooth="yes"/>
      <point x="1022.0" y="356.0"/>
      <point x="1000.0" y="396.0"/>
      <point x="950.0" y="396.0" type="curve" smooth="yes"/>
      <point x="904.0" y="396.0"/>
      <point x="862.0" y="360.0"/>
      <point x="832.0" y="292.0" type="curve" smooth="yes"/>
      <point x="796.0" y="212.0"/>
      <point x="726.0" y="158.0"/>
      <point x="638.0" y="158.0" type="curve" smooth="yes"/>
      <point x="532.0" y="158.0"/>
      <point x="460.0" y="248.0"/>
      <point x="460.0" y="410.0" type="curve" smooth="yes"/>
      <point x="460.0" y="648.0"/>
      <point x="573.0" y="814.0"/>
      <point x="686.0" y="814.0" type="curve" smooth="yes"/>
      <point x="734.0" y="814.0"/>
      <point x="762.0" y="772.0"/>
      <point x="762.0" y="704.0" type="curve" smooth="yes"/>
      <point x="762.0" y="646.0"/>
      <point x="752.0" y="594.0"/>
      <point x="728.0" y="546.0" type="curve"/>
      <point x="886.0" y="656.0" type="line"/>
      <point x="693.2210396792965" y="560.6042258206828"/>
      <point x="320.0" y="434.0"/>
    </contour>
    <contour>
      <point x="735.0960437228625" y="82.0" type="line"/>
      <point x="411.0960437228625" y="-62.0"/>
      <point x="279.0960437228625" y="-164.0"/>
      <point x="243.09604372286248" y="-300.0" type="curve" smooth="yes"/>
      <point x="213.09604372286248" y="-410.0"/>
      <point x="291.0960437228625" y="-490.0"/>
      <point x="455.0960437228625" y="-490.0" type="curve" smooth="yes"/>
      <point x="629.0960437228625" y="-490.0"/>
      <point x="755.0960437228625" y="-416.0"/>
      <point x="781.0960437228625" y="-320.0" type="curve" smooth="yes"/>
      <point x="797.0960437228625" y="-260.0"/>
      <point x="771.0960437228625" y="-222.0"/>
      <point x="717.0960437228625" y="-222.0" type="curve" smooth="yes"/>
      <point x="659.0960437228625" y="-222.0"/>
      <point x="605.0960437228625" y="-268.0"/>
      <point x="585.0960437228625" y="-342.0" type="curve" smooth="yes"/>
      <point x="575.0960437228625" y="-380.0"/>
      <point x="543.0960437228625" y="-400.0"/>
      <point x="509.0960437228625" y="-400.0" type="curve" smooth="yes"/>
      <point x="471.0960437228625" y="-400.0"/>
      <point x="451.0960437228625" y="-360.0"/>
      <point x="473.0960437228625" y="-276.0" type="curve" smooth="yes"/>
      <point x="503.0960437228625" y="-162.0"/>
      <point x="599.0960437228625" y="-68.0"/>
      <point x="761.0960437228625" y="16.0" type="curve"/>
    </contour>
  </outline>
</glyph>
<glyph name="Ecaron" format="2">
  <advance width="1274"/>
  <unicode hex="011A"/>
  <outline>
    <contour>
      <point x="658.0" y="766.0" type="line"/>
      <point x="636.0" y="628.0" type="line"/>
      <point x="976.0" y="628.0" type="line" smooth="yes"/>
      <point x="1058.0" y="628.0"/>
      <point x="1098.0" y="610.0"/>
      <point x="1138.0" y="564.0" type="curve" smooth="yes"/>
      <point x="1180.0" y="518.0"/>
      <point x="1202.0" y="502.0"/>
      <point x="1246.0" y="502.0" type="curve" smooth="yes"/>
      <point x="1274.0" y="502.0"/>
      <point x="1308.0" y="524.0"/>
      <point x="1300.0" y="566.0" type="curve" smooth="yes"/>
      <point x="1256.0" y="824.0" type="line" smooth="yes"/>
      <point x="1246.0" y="880.0"/>
      <point x="1218.0" y="920.0"/>
      <point x="1174.0" y="920.0" type="curve" smooth="yes"/>
      <point x="1144.0" y="920.0"/>
      <point x="1124.0" y="898.0"/>
      <point x="1094.0" y="862.0" type="curve" smooth="yes"/>
      <point x="1044.0" y="798.0"/>
      <point x="1000.0" y="766.0"/>
      <point x="940.0" y="766.0" type="curve" smooth="yes"/>
    </contour>
    <contour>
      <point x="884.0" y="0.0" type="line" smooth="yes"/>
      <point x="958.0" y="0.0"/>
      <point x="1002.0" y="-42.0"/>
      <point x="1054.0" y="-42.0" type="curve" smooth="yes"/>
      <point x="1180.0" y="-42.0"/>
      <point x="1284.0" y="112.0"/>
      <point x="1284.0" y="286.0" type="curve" smooth="yes"/>
      <point x="1284.0" y="364.0"/>
      <point x="1258.0" y="400.0"/>
      <point x="1216.0" y="400.0" type="curve" smooth="yes"/>
      <point x="1174.0" y="400.0"/>
      <point x="1152.0" y="384.0"/>
      <point x="1120.0" y="334.0" type="curve" smooth="yes"/>
      <point x="1092.0" y="290.0" type="line" smooth="yes"/>
      <point x="1014.0" y="170.0"/>
      <point x="922.0" y="132.0"/>
      <point x="816.0" y="132.0" type="curve" smooth="yes"/>
      <point x="780.0" y="132.0" type="line" smooth="yes"/>
      <point x="694.0" y="132.0"/>
      <point x="658.0" y="176.0"/>
      <point x="658.0" y="240.0" type="curve" smooth="yes"/>
      <point x="658.0" y="322.0"/>
      <point x="780.0" y="878.0"/>
      <point x="916.0" y="1268.0" type="curve"/>
      <point x="1100.0" y="1268.0" type="line" smooth="yes"/>
      <point x="1164.0" y="1268.0"/>
      <point x="1214.0" y="1236.0"/>
      <point x="1242.0" y="1170.0" type="curve" smooth="yes"/>
      <point x="1272.0" y="1096.0" type="line" smooth="yes"/>
      <point x="1294.0" y="1042.0"/>
      <point x="1326.0" y="1008.0"/>
      <point x="1376.0" y="1008.0" type="curve" smooth="yes"/>
      <point x="1412.0" y="1008.0"/>
      <point x="1454.0" y="1042.0"/>
      <point x="1452.0" y="1102.0" type="curve" smooth="yes"/>
      <point x="1440.0" y="1384.0" type="line" smooth="yes"/>
      <point x="1438.0" y="1442.0"/>
      <point x="1418.0" y="1466.0"/>
      <point x="1378.0" y="1466.0" type="curve" smooth="yes"/>
      <point x="1352.0" y="1466.0"/>
      <point x="1330.0" y="1452.0"/>
      <point x="1298.0" y="1426.0" type="curve" smooth="yes"/>
      <point x="1280.0" y="1410.0"/>
      <point x="1254.0" y="1400.0"/>
      <point x="1234.0" y="1400.0" type="curve" smooth="yes"/>
      <point x="482.0" y="1400.0" type="line" smooth="yes"/>
      <point x="432.0" y="1400.0"/>
      <point x="400.0" y="1370.0"/>
      <point x="400.0" y="1324.0" type="curve" smooth="yes"/>
      <point x="400.0" y="1280.0"/>
      <point x="420.0" y="1258.0"/>
      <point x="452.0" y="1248.0" type="curve" smooth="yes"/>
      <point x="502.0" y="1232.0" type="line" smooth="yes"/>
      <point x="528.0" y="1224.0"/>
      <point x="544.0" y="1206.0"/>
      <point x="544.0" y="1172.0" type="curve" smooth="yes"/>
      <point x="544.0" y="1098.0"/>
      <point x="394.0" y="524.0"/>
      <point x="302.0" y="258.0" type="curve" smooth="yes"/>
      <point x="282.0" y="198.0"/>
      <point x="264.0" y="166.0"/>
      <point x="214.0" y="154.0" type="curve" smooth="yes"/>
      <point x="172.0" y="144.0" type="line" smooth="yes"/>
      <point x="120.0" y="132.0"/>
      <point x="96.0" y="98.0"/>
      <point x="96.0" y="68.0" type="curve" smooth="yes"/>
      <point x="96.0" y="28.0"/>
      <point x="126.0" y="0.0"/>
      <point x="170.0" y="0.0" type="curve" smooth="yes"/>
    </contour>
    <contour>
      <point x="692.6294269426613" y="1767.6000000000001" type="curve" smooth="yes"/>
      <point x="751.4294269426614" y="1663.2" type="line" smooth="yes"/>
      <point x="793.4294269426614" y="1589.4"/>
      <point x="845.9294269426614" y="1566.0"/>
      <point x="921.5294269426613" y="1566.0" type="curve" smooth="yes"/>
      <point x="990.8294269426614" y="1566.0"/>
      <point x="1058.0294269426613" y="1589.4"/>
      <point x="1148.3294269426615" y="1663.2" type="curve" smooth="yes"/>
      <point x="1276.4294269426614" y="1767.6000000000001" type="line" smooth="yes"/>
      <point x="1295.3294269426615" y="1783.8"/>
      <point x="1324.7294269426616" y="1807.2"/>
      <point x="1331.0294269426613" y="1827.0" type="curve" smooth="yes"/>
      <point x="1339.4294269426614" y="1855.8"/>
      <point x="1324.7294269426616" y="1868.4"/>
      <point x="1289.0294269426613" y="1868.4" type="curve" smooth="yes"/>
      <point x="1261.7294269426616" y="1868.4"/>
      <point x="1234.4294269426614" y="1859.4"/>
      <point x="1177.7294269426611" y="1830.6000000000001" type="curve" smooth="yes"/>
      <point x="892.1294269426613" y="1692.0" type="line"/>
      <point x="1026.5294269426613" y="1692.0" type="line"/>
      <point x="829.1294269426613" y="1830.6000000000001" type="line" smooth="yes"/>
      <point x="791.3294269426614" y="1857.6000000000001"/>
      <point x="768.2294269426613" y="1866.6000000000001"/>
      <point x="740.9294269426613" y="1866.6000000000001" type="curve" smooth="yes"/>
      <point x="705.2294269426613" y="1866.6000000000001"/>
      <point x="684.2294269426613" y="1854.0"/>
      <point x="673.7294269426613" y="1825.2" type="curve" smooth="yes"/>
      <point x="667.4294269426613" y="1805.4"/>
      <point x="682.1294269426613" y="1783.8"/>
    </contour>
    <contour>
      <point x="692.6294269426613" y="1767.6000000000001" type="curve" smooth="yes"/>
      <point x="751.4294269426614" y="1663.2" type="line" smooth="yes"/>
      <point x="793.4294269426614" y="1589.4"/>
      <point x="845.9294269426614" y="1566.0"/>
      <point x="921.5294269426613" y="1566.0" type="curve" smooth="yes"/>
      <point x="990.8294269426614" y="1566.0"/>
      <point x="1058.0294269426613" y="1589.4"/>
      <point x="1148.3294269426615" y="1663.2" type="curve" smooth="yes"/>
      <point x="1276.4294269426614" y="1767.6000000000001" type="line" smooth="yes"/>
      <point x="1295.3294269426615" y="1783.8"/>
      <point x="1324.7294269426616" y="1807.2"/>
      <point x="1331.0294269426613" y="1827.0" type="curve" smooth="yes"/>
      <point x="1339.4294269426614" y="1855.8"/>
      <point x="1324.7294269426616" y="1868.4"/>
      <point x="1289.0294269426613" y="1868.4" type="curve" smooth="yes"/>
      <point x="1261.7294269426616" y="1868.4"/>
      <point x="1234.4294269426614" y="1859.4"/>
      <point x="1177.7294269426611" y="1830.6000000000001" type="curve" smooth="yes"/>
      <point x="892.1294269426613" y="1692.0" type="line"/>
      <point x="1026.5294269426613" y="1692.0" type="line"/>
      <point x="829.1294269426613" y="1830.6000000000001" type="line" smooth="yes"/>
      <point x="791.3294269426614" y="1857.6000000000001"/>
      <point x="768.2294269426613" y="1866.6000000000001"/>
      <point x="740.9294269426613" y="1866.6000000000001" type="curve" smooth="yes"/>
      <point x="705.2294269426613" y="1866.6000000000001"/>
      <point x="684.2294269426613" y="1854.0"/>
      <point x="673.7294269426613" y="1825.2" type="curve" smooth="yes"/>
      <point x="667.4294269426613" y="1805.4"/>
      <point x="682.1294269426613" y="1783.8"/>
    </contour>
  </outline>
</glyph>
